<?xml version="1.0" encoding="utf-8"?>
<!-- Generator: Adobe Illustrator 28.0.0, SVG Export Plug-In . SVG Version: 6.00 Build 0)  -->
<svg version="1.1" id="Layer_1" xmlns="http://www.w3.org/2000/svg" xmlns:xlink="http://www.w3.org/1999/xlink" x="0px" y="0px"
	 viewBox="0 0 541.65 568.59" style="enable-background:new 0 0 541.65 568.59;" xml:space="preserve">
<style type="text/css">
	.st0{fill:#2AAABE;}
</style>
<path class="st0" d="M520.76,324.73c-0.2,0.97-0.11,2.17-0.65,2.86c-2.16,2.74-1.72,5.18,0.71,7.49c-0.67,1.33-1.26,2.49-1.97,3.89
	c4.34,3.84,3.29,7.73-0.29,11.93c-1.62-0.52-3.25-1.04-5.06-1.62c-1.1,3.36,3.8,3.35,2.78,6.99c-0.86,1.11-2.25,2.9-3.78,4.85
	c1.14,1.26,2.11,2.32,2.98,3.28c-1.22,4.41-2.38,8.63-3.69,13.37c-2.79-1.37-5.51-2.72-8.1-3.99c-3.8,2.45,0.43,5.59-2.1,8.86
	c-1.66,1.8-2.7-1.61-4.51-2.37c-0.81,3.81,3.18,2.88,4.4,5.12c1.53,4.93-3.03,8.43-4.43,13.19c1.02,0.41,1.86,0.81,2.74,1.07
	c0.77,0.23,1.58,0.29,2.58,0.46c0,1.12,0,2.03,0,3.34c-1.83-0.54-3.34-0.99-5.14-1.53c-0.43,3.04-1.73,5.5,0.13,8.64
	c1.78,3.01-0.94,5.16-3.34,6.8c0.37,1.08,0.67,1.98,1.15,3.37c-3.09-0.14-5.86-0.26-8.94-0.39c-1.38,3.43-1.17,8.02-5.14,10.56
	c-1.53-1.79-1.47-3.82-0.95-6.04c0.61-2.57,1.07-5.19,1.4-7.82c0.11-0.86-0.39-1.79-0.66-2.87c-2.27,0.62-2.41,2.35-2.02,3.59
	c1.05,3.39-0.01,6.38-1.11,9.46c-0.99,2.78-1.86,5.61-2.88,8.72c-1.34,0.37-2.86,0.78-4.8,1.31c2.96,2.76,6.26,3.48,10.02,3.64
	c0.19,0.98,0.37,1.87,0.54,2.77c-2.1,0.36-4.14,0.3-5.75,1.1c-1.54,0.76-2.9,2.25-3.87,3.73c-1.06,1.62-1.59,3.6-2.38,5.51
	c-1.49-0.86-2.34-3.13-3.98-1.5c-0.33,3.54-0.63,6.78-0.95,10.18c-1.11,0.5-2.13,0.96-3.45,1.55c-0.83,2.74-1.29,6.43-5.7,4.78
	c-1.12,1.83-2.05,3.37-3.38,5.54c0.72,1.59,1.65,3.64,2.87,6.34c-1.32-0.28-2.11-0.44-3.37-0.7c-0.38,0.55-0.95,1.36-1.81,2.6
	c-0.96-1.8-1.69-3.17-2.63-4.92c-2.93,3.59-0.89,6.44,0.41,8.96c-0.51,4.74-4.2,2.71-6.51,3.27c0.13,3,2.91,1.97,4.41,3.54
	c-5.03,2.22-6.95,9.06-14.05,8.03c-0.13,1.71-0.24,3.18-0.41,5.58c-1.49-1.46-2.34-2.29-3.42-3.35c-0.56,0.23-1.29,0.53-1.91,0.78
	c-0.47,2.23-0.91,4.29-1.33,6.26c-4.59,0.5-5.99-0.63-7.05-5.4c-1.65,2.37-1.65,2.37-7.12,4.02c1.88,3.54-2.99,5.63-1.21,9.36
	c-2.45,0.47-3.99,2.46-6.11,1.03c-2.31-1.55,0.19-3.72-0.65-5.96c-0.78,0.18-1.69,0.2-2.37,0.6c-0.83,0.49-1.36,1.5-2.19,1.96
	c-2.37,1.29-3.3,3.28-2.92,5.82c0.75,4.98-1.77,7.47-6.18,8.45c-1.78,4.55-1.78,4.55-4.58,3.23c0.55-1.55,1.11-3.12,2.08-5.84
	c-6.46,2.15-9.68,7.44-15.51,9.02c-1-0.64-2.35-1.51-4.08-2.62c-0.88,1.2-1.71,2.32-2.75,3.73c-1.02-0.76-2.1-1.56-3.73-2.78
	c-0.1,2.09-0.16,3.54-0.25,4.99c-0.23,3.67-0.77,4.05-4.68,3.3c-0.32-0.06-0.66-0.05-1.39-0.09c-1.25,2.75-3.48,4.75-6.68,5.88
	c-0.49-0.92-0.91-1.71-1.97-3.69c-0.69,1.56-1.16,2.62-1.6,3.63c-4.06-1.05-7.64-1.73-10.91,0.78c-0.44,0.34-1.31,0.23-1.96,0.16
	c-2.6-0.29-4.44,0.86-6.04,2.79c-0.95,1.15-2.05,2.22-3.25,3.09c-1.19,0.86-2.55,1.84-3.92,2c-1.92,0.22-4.06-0.82-5.84-0.33
	c-1.88,0.51-3.39,1.68-5.6,0.82c-0.94-0.37-2.58,0.25-3.55,0.92c-3.44,2.39-3.68,2.38-5.53-1.58c-0.14-0.29-0.31-0.57-0.66-1.2
	c-0.83,0.83-1.51,1.67-2.34,2.32c-1.42,1.1-2.91,2.86-4.43,2.93c-3.08,0.14-4.79,2.05-6.99,4c-2.81-1.15-5.28-0.2-7.4,2.31
	c-3.19-2.36-6.4-4.13-9.96-1.13c-1.17-0.6-2.18-1.12-3.12-1.6c-1.6,0.66-3.08,1.27-4.7,1.94c-1.01-1.22-1.81-2.18-2.83-3.42
	c-3.75,4.2-7.63,3.08-11.67,0.78c-1.69-0.96-3.52-1.26-5.7-0.98c-2.72,0.35-5.58-0.62-8.37-0.55c-2.72,0.07-5.42,0.72-8.15,2.01
	c-3.94-1.06-7.88-2.11-13.31-3.56c-3.5,0.89-8.51,1.23-12.86-3.12c-2.11,1.92-4.41,1.59-6.91,0.7c-3.39-1.2-7.11-1.47-9.92-4.14
	c-0.64-0.61-1.88-0.9-2.8-0.82c-4.75,0.42-7.95-1.79-10.14-5.89c-2.26-0.13-4.4-0.25-6.85-0.39c-0.91-4.02-4.93-4.36-7.81-5.96
	c-2.66-1.47-5.17-2.66-6.43-5.64c-0.43-1.02-1.44-1.8-2.18-2.69c-2.99-0.76-5.99-1.52-9.11-2.32c0.24-2.06,0.42-3.64,0.6-5.27
	c-1.9-0.31-3.95-0.1-5.17-1c-1.33-0.98-2.01-2.94-2.76-4.57c-2-4.35-5.51-7.99-10.43-10.47c0.39-1,0.79-2.02,1.26-3.23
	c-4.62-4.02-9.3-7.93-13.79-12.05c-3.88-3.56-7.97-6.8-12.28-9.83c-1.82-1.28-3.05-3.45-4.37-5.34c-1.21-1.73-2.18-3.64-3.66-6.16
	c0-0.41,0-1.68,0-2.85c-6.16-3.83-14.31-13.2-13.2-18.4c-3.24-1.1-5.62-2.97-6.11-6.84c-0.18-1.43-1.75-2.73-2.79-4
	c-1.96-2.4-3.99-4.75-6.61-7.84c-0.41-0.09-1.84-0.42-3.37-0.76c-2.2-5.85-4.39-11.71-6.62-17.56c-0.41-1.07-0.97-2.07-1.47-3.1
	c-0.79-1.65-2.14-3.26-2.25-4.95c-0.18-2.98-2.05-4.65-3.54-6.84c-2.48-3.65-4.4-7.72-4.74-12.28c-0.11-1.49-0.02-2.99-0.75-4.26
	c-1-2.49-2-4.99-3.06-7.62c-1.34-1.74-2.76-3.73-4.34-5.59c-1.42-1.68-3.15-2.97-4.55-4.83c-3.06-4.06-2-8.47-2.7-12.73
	c-0.86-5.21,0.59-10.73-3.11-15.64c-1.74-2.31-1.66-5.98-2.44-9.02c-0.36-1.43-0.42-3.14-1.27-4.22c-2.31-2.95-3.07-6.18-2.78-9.81
	c0.19-2.47-0.17-4.74-2.86-5.53c0-2.83,0.4-5.04-0.7-7.56c-0.95-2.16,0.33-5.3,0.65-8.23c-0.33-1.88-0.79-4.09-1.09-6.32
	c-0.4-2.95-1-5.91-0.93-8.86c0.11-4.79,0.73-9.57,1.07-14.36c0.19-2.73,0.5-5.48,0.34-8.2c-0.21-3.63,0.06-7.05,1.24-10.57
	c0.54-1.61-0.71-3.81-1.14-5.76c3.54-4.36,3.16-9.21,0.47-14.06c1.04-3.12,2.13-6.42,3.25-9.78c1.11-0.43,2.16-0.84,3.57-1.39
	c-1.04-1.62-1.97-3.09-3.01-4.71c0.57-0.89,0.91-1.98,1.64-2.46c4.97-3.24,5.99-8.05,5.35-13.41c-0.22-1.85-0.73-3.48,0.67-5.12
	c0.46-0.54,0.55-1.62,0.43-2.39c-0.65-4.24,1.86-7.33,4-10.39c1.2-1.72,2.1-3.26,2.07-5.39c-0.03-2.29,1.25-3.86,3.47-4.24
	c2.92-0.49,4.32-1.98,4.61-4.95c0.11-1.19,0.94-2.43,1.73-3.42c1.76-2.2,3.65-4.3,5.6-6.33c0.64-0.66,1.65-0.97,2.5-1.43
	c2.73-1.46,4.98-3.35,5.03-6.71c0.06-3.55,1.86-5.46,5.17-6.31c1.1-0.28,2.57-0.56,3.11-1.35c1.26-1.88,3.04-2.21,5.28-2.02
	c0.48-3.5,0.9-6.54,1.36-9.91c5.16-1.33,4.79-6.72,6.58-10.78c0.93-0.06,1.88-0.13,3.04-0.21c0.31-1.52,0.6-2.95,0.93-4.56
	c3.2-1.53,5.07-4.07,4.83-7.95c1.26-0.68,2.39-1.35,3.56-1.91c0.74-0.36,1.56-0.56,2.34-0.84c1.86-0.67,0.78-3.79,3.69-3.98
	c1.76-0.12,3.53-1.65,5.1-2.82c2.35-1.73,4.55-3.66,6.75-5.58c0.72-0.63,1.11-1.95,1.88-2.16c6.53-1.82,10.18-7.64,15.56-11.05
	c2.01-1.27,3.23-3.72,4.99-5.46c1.13-1.11,2.47-2.14,3.91-2.78c3.3-1.47,6.71-2.68,10.75-4.25c0.63,0.28,1.94,0.87,3.32,1.48
	c0.41-0.28,1.03-0.47,1.17-0.84c0.91-2.4,2.67-3.73,4.65-5.36c2.51-2.07,5.83-3.36,7.51-6.71c1.1-2.2,3.72-3.08,6.49-2.83
	c2.1,0.19,4.38,0.48,6.33-0.1c4.65-1.4,8.72,0.68,13.4,1.62c1.73,2.19,3.67,4.66,5.85,7.42c0.4-0.6,1.23-1.27,1.29-2.01
	c0.19-2.32,0.07-4.66,0.12-6.99c0.11-5.62,4.43-8.93,9.34-6.42c3.18,1.63,6.55,0.84,9.6,2.19c0.61,0.27,1.59-0.2,2.37-0.4
	c3.68-0.96,7.32-2.09,11.05-2.85c1.29-0.26,2.76,0.37,4.77,0.69c-1.1,2.32-1.91,4.03-2.85,6.02c1.54,0.61,3.07,1.22,5.25,2.09
	c-1.19,0.84-1.74,1.35-2.38,1.65c-0.73,0.34-1.54,0.49-2.47,0.77c-0.41,1.64-0.8,3.2-1.26,5.02c-5.31-0.2-9.97,4.21-15.6,1.33
	c-1.07,1.15-2.04,2.2-3.23,3.47c-0.71-1.01-1.34-1.91-2.17-3.09c-0.94,0.11-2.04,0.24-3.03,0.35c-1.73-1.28-3.4-2.52-5.38-3.99
	c-2.32,4.49-3.33,8.76-3.44,13.18c-4.68,0.3-4.68,0.3-8.04,3.84c-3.45-1.42,0.6-3.31-0.5-5.26c-0.54,0.14-1.55,0.12-1.76,0.51
	c-0.69,1.31-1.09,2.77-1.27,3.27c-2.3,2.05-3.93,3.51-6.22,5.56c-2.55,1.12-5.18-0.58-7.62-2.73c-3.54,6.72-6.76,13.26-12.97,17.85
	c-3.29-2.07-4.9-7.5-10.62-3.98c-0.14,1.21-0.58,2.97-0.48,4.7c0.15,2.63-0.74,4.69-2.97,5.82c-2.22,1.13-4.16,0.01-5.8-1.65
	c-0.31-0.31-0.85-0.4-1.92-0.87c0.13,1.89,0.23,3.38,0.35,5.17c-1.55,0.59-3.19,1.22-4.62,1.77c-0.29,3.14-0.56,6.05-0.86,9.38
	c-1.55-0.51-2.54-0.83-3.7-1.21c-2.13,2.5-3.79,5.43-7.29,6.49c-0.94,0.28-1.5,2.07-2.07,3.24c-1.07,2.22-2.01,4.49-2.73,6.11
	c-8.21,2.87-16.02,4.73-21.19,11.44c0.68,1.81,1.3,3.45,1.86,4.93c-5.43,5.56-5.43,5.56-10.47,5.36c-0.19,1.04-0.94,2.53-0.49,3.16
	c2.32,3.28,0.48,6.67,0.76,9.98c-2.52,2.45-5.83,4.2-6.2,8.15c-4.46,3.82-6.15,9.75-10.37,13.74c-1.97,1.86-2.04,4.42-0.7,5.84
	c4.11,4.38,1.53,7.87-0.79,11.56c-0.26,0.42-0.63,0.77-1.09,1.33c-3.67,0.16-7.03,4.01-11.32,0.68c-1.03,4.91,0.93,10.45-4.58,13.23
	c-0.07,1.55-0.14,2.97-0.22,4.5c-1.5,0.61-2.84,1.16-4.38,1.79c0,1.79,0,3.56,0,5.44c1.09,0.47,2.06,0.89,3.04,1.32
	c0,0.26,0.01,0.52,0.01,0.78c-2.3,0.4-4.6,0.8-7.29,1.27c0.45,1.19,0.53,2.32,1.14,2.87c4.07,3.64,3.17,7.89,1.98,12.39
	c-0.67,2.51-0.98,5.19-0.93,7.79c0.02,1.25,1.26,2.48,2.45,4.64c-1.25,0.93-2.95,2.18-5.06,3.73c0.67,2.94,1.31,5.75,2.09,9.18
	c-0.14,0.24-0.57,1.13-1.16,1.91c-1.98,2.63-1.73,5.45-0.12,7.93c1.06,1.63,1.61,3.12,1.7,5.02c0.06,1.25,0.81,2.45,1.13,3.71
	c0.28,1.09,0.65,2.25,0.54,3.33c-0.62,5.81,0.79,8.43,6.11,10.97c0.44,0.21,0.86,0.47,1.71,0.93c0,2.55,0,5.28,0,8.38
	c-1.05-0.35-1.99-0.66-3.23-1.08c0,2.01,0,3.75,0,5.66c1.22,0.21,2.14,0.37,2.94,0.5c3.55,4.46,0.38,9.37,0.9,14.18
	c4.34,1.88,7.3,4.68,6.78,9.78c-0.29,2.89-0.74,3.34-5.81,5.4c1.69,4.34,3.39,8.69,5.29,13.58c-0.22,0.49-0.75,1.65-1.39,3.06
	c3.23,1.55,4.46,4,3.95,7.35c-0.3,2.01,0.58,3.59,2.29,4.64c2.11,1.29,2.67,3.23,2.63,5.54c-0.09,5.55,1.06,6.95,6.31,7.92
	c0.63,0.12,1.23,0.41,2.14,0.72c0.2,4.24,2.16,7.48,6.25,9.28c-0.26,6.68,5.37,10.39,7.53,16.69c-0.13,0.35-0.55,1.5-1.03,2.8
	c2.32,1.59,4.46,3.06,6.59,4.52c-1.14,2.05-2.08,3.77-3.22,5.83c2.54,0.9,4.42,1.57,6.76,2.4c-1.12,1.66-1.83,2.72-2.61,3.87
	c5.56,4.43,11.07,8.94,14.57,15.48c-3.04,6.15-0.86,7.58,3.99,11.06c1.85,1.33,3.44,2.28,3.93,4.67c0.21,0.98,1.3,1.77,1.98,2.65
	c0.59,0.76,1.33,1.47,1.7,2.33c1.46,3.43,1.42,3.45,4.86,5.43c0,3.29,0,6.72,0,10.08c3.26,2.6,6.85,2.08,11.09,1.01
	c-2,5.12,0.66,8.04,4,10.34c2.23,1.54,3.41,3.03,2.37,5.74c-0.21,0.56-0.03,1.27-0.03,1.86c2.24-0.34,4.38-0.66,6.46-0.97
	c1.72,3.11,2.81,5.98,4.67,8.2c2.29,2.74,5.19,4.99,7.89,7.38c2.55,2.26,5.18,4.42,8.05,6.86c3.96-0.78,6.05,4.09,10.07,4.25
	c0.5,1.66,0.93,3.06,1.44,4.74c4.02,0.31,6.56,2.61,9.29,5.56c2.79,3.02,7.16,4.58,10.84,6.78c0.14,0.08,0.35,0.16,0.48,0.1
	c4.57-1.89,8.21,1.61,12.36,2.15c4.43,0.58,8.85,1.28,13.24,2.1c2.87,0.53,5.55,1.76,8.65,1.34c2.2-0.3,4.49,0.16,6.73-0.15
	c2.79,0.93,5.58,1.86,8.27,2.76c2.72-1.62,5.14-3.15,7.64-4.52c2.38-1.29,4.48-0.13,6.45,1.1c4.35-3.27,9.17-5.13,14.49-5.6
	c2.15-0.19,4.38,0.15,6.47-0.27c2.08-0.42,4.04-1.49,6.29-2.37c1.21-2.25,2.14-5.15,6.02-5.19c0.49,0.95,1.06,2.05,1.64,3.2
	c0.48,0,0.99,0.11,1.43-0.02c4.3-1.3,8.76-0.7,12.9,0.05c3.91,0.7,6.39,0.06,8.31-4.11c0.91,1.66,1.43,2.62,2.32,4.24
	c1.16-2.5,2.07-4.46,2.97-6.41c2.63-0.16,5.17,1.23,7.33-0.9c0.26-0.26,1.96,0.4,2.45,1.05c0.65,0.86,0.77,2.12,1.24,3.6
	c1.27-0.33,2.44-0.63,4.15-1.06c-1.38-1.77-2.44-3.14-3.72-4.78c2.52-1.62,5.15-2.94,7.31-4.81c2.35-2.04,4.91-3.21,7.89-3.9
	c1.56-0.36,3.29-1.1,4.35-2.22c2.38-2.51,5.62-3.21,8.26-4.88c1.03,0.92,1.84,1.65,2.3,2.06c3.97-3.5,7.63-6.79,11.38-9.97
	c0.7-0.6,1.78-0.75,2.82-1.17c0.94,1.1,1.78,2.09,2.62,3.07c4.49-1.25,5.16-7.29,10.72-7.91c0.45,0.23,1.42,0.75,2.69,1.41
	c0.35-1.55,0.66-2.93,1.02-4.54c1.56-0.55,3.1-1.08,4.97-1.74c0.11-0.67,0.25-1.58,0.28-1.73c3.06-2.8,5.65-5.17,8.89-8.13
	c-0.16,2.09-0.26,3.29-0.36,4.57c1.6,1.12,3.04,1.16,4.78-0.24c-1.04-2.1-2.03-4.13-3.04-6.17c0.54-1.7,2.33-2.29,2.66-4.34
	c0.36-2.23,2.42-4.23,3.86-6.24c1.24-1.73,7.5-5.81,9.87-6.58c0.52-1.98,1.18-4.02,1.55-6.1c0.43-2.41,1.32-4.29,3.46-5.76
	c1.08-0.74,1.39-2.52,2.23-3.7c3.93-5.51,7.92-10.98,11.91-16.5c-0.53-4.75,1.58-8.94,3.61-12.93c2.13-4.21,5.14-7.98,7.81-12.02
	c1.14,0.39,1.88,0.65,3.24,1.11c0.25-2.6,0.28-5.1,0.77-7.5c0.52-2.56,1.49-5.03,2.23-7.44c1.56-0.51,2.79-0.92,4.36-1.43
	c-0.48-1.32-0.9-2.47-1.31-3.58c4.01-2.49,4.46-2.28,6.53,3.08c1.81-0.85,2.2-2.46,2.16-4.09c-0.09-3.47,0.65-6.54,4.53-8.84
	c-2.33-0.6-3.7-0.94-5.07-1.3c-0.71-3.13,0.46-4.94,3.09-6.16c4.66-2.17,6.45-4.86,5.21-9.28c-0.93-3.33-0.19-6.18,0.71-9.29
	c0.94,0.36,1.82,0.69,3.11,1.18c0.08-1.47,0.14-2.67,0.22-4.29c1.07,0.26,2.06,0.5,3.15,0.77c1.32-1.33,1.72-2.72,1.58-4.81
	c-0.24-3.48-0.96-6.74-2.07-10.01c-0.68-2.01-0.96-4.19,0.42-6.27c2.3-0.25,3.01,1.07,3.12,2.94c0.12,2.17,0.83,3.84,3.17,4.47
	c0.44-2.75-1.37-9.05-3.42-11.85c1.27-0.46,2.47-0.9,3.7-1.36c-1.01-2.94-1.98-5.79-3.05-8.92c1.26-0.3,2.49-0.6,3.26-0.78
	c-1.53-2.86-3.12-5.82-4.84-9.02c4.15-2.28,5.44-5.71,5.67-9.67c0.89,3.55,1.78,7.1,2.58,10.29c-0.78,2.17-4.34,0.05-3.71,3.97
	c1.98,1.52,4.43,3.4,7.3,5.61c0.84-1.75,1.5-3.14,2.29-4.79c4.85,1.63,2.21,6.22,3.83,9.72c1.88-0.42,3.82-0.86,5.76-1.3
	c0.03-0.28,0.06-0.56,0.09-0.84c-1.13-0.43-2.26-0.86-3.48-1.33c-0.38-1.49-0.56-3.12-1.21-4.55c-0.8-1.79-1-3.41-0.29-5.27
	c0.83-2.19-0.43-3.92-1.18-5.97c-1.51-4.09-4.41-7.71-4.49-12.35c-0.02-1.26-0.59-2.52-0.95-3.77c-0.22-0.78-0.97-1.75-0.72-2.26
	c1.4-2.83-1.11-4.22-2.33-6.51c3.76-5.38,0.82-11.19,0.22-17.5c1.45,0.53,2.43,0.89,4.09,1.5c1.1-1.25,2.39-2.73,3.92-4.48
	c2.27,0.75,4.74,1.57,7.21,2.39c3.9-0.76,0.39-4.54,2.48-6.22c3.54,0.79,1.02,3.49,1.75,5.8c1,0.23,2.28,0.53,3.45,0.81
	c2.09-3.41-0.62-5.88-0.19-8.49c-7.89-5.01-4.27-12.23-4.17-19.25c-1.24-0.55-2.68-1.19-4.48-1.99c0.86-0.81,1.61-1.5,2.36-2.2
	c-2.51-2.61-2.51-2.61-6.77,0.8c-0.41-0.92-0.78-1.76-1.09-2.47c-2.68,1.28-5.44,2.59-8.61,4.1c-0.19-0.71-0.74-1.61-0.55-2.31
	c0.52-1.89,1.36-3.7,2.19-5.86c1.14,0.92,2.2,1.77,3.39,2.72c1.62-2.15,2.91-4.14,4.53-5.83c0.41-0.43,1.82,0.09,2.97,0.19
	c0.12,1.67,0.23,3.07,0.32,4.4c2.05,0.57,3.08-0.43,3.5-2.05c0.42-1.64-0.2-3.1-1.83-3.61c-3.16-0.98-3.79-3.41-3.87-6.26
	c-2.79-1.72-6.82-1.06-8.62-4.73c0.6-1.49,1.22-3.01,1.77-4.39c-0.75-4.37-6.67-5.1-6.83-9.67c3.55-1.99,5.9,3.62,9.86,0.52
	c-1.85-1.87-3.53-3.57-5.38-5.45c-1.28,0.56-2.43,1.07-4.09,1.8c-1.04-2.2-2.91-4.37-2.88-6.5c0.04-2.65-1.05-4.53-2.29-6.35
	c-3.08-4.47-4.93-9.27-5.41-14.7c-0.22-2.48-1.1-4.89-1.34-7.46c-2.29-2.85-5-5.54-2.77-9.16c-2.22-6.85-6.23-12.67-4.93-20.51
	c-1.86-0.56-3.8-1.14-5.41-1.62c-1.7-3.04-3.56-5.91-4.94-8.99c-0.86-1.92-1.3-4.14-1.39-6.25c-0.22-5.13-0.27-10.19-2.7-14.98
	c-1.45-2.87,0.63-4.98,2.66-6.88c1.72-1.62,3.48-1.61,5.48-0.6c2.86,1.45,3.64,2.73,3.31,5.96c-0.08,0.81-0.34,1.6-0.5,2.35
	c1.4,1.14,2.37,0.92,3.52-0.27c2.63-2.68,3.89-2.55,6.19,0.38c0.97,1.24,1.87,2.54,2.29,4.52c-1.24-0.38-2.49-0.75-3.73-1.13
	c-0.32,2.71-0.32,2.71,2.02,5.16c1.04-0.85,2.1-1.71,3.34-2.72c2.6,1.85,5.28,2.97,6.4,6.59c0.66,2.14,3.59,3.59,5.52,5.33
	c0.61,0.55,1.4,0.92,1.96,1.52c1.6,1.74,1.29,3.24-0.92,4.29c-0.71,0.34-1.56,0.39-2.63,0.63c0.42,2.18,0.79,4.14,1.26,6.58
	c2.05-1.65,1.01-5.18,4.65-4.73c0,4.95,0,9.97,0,14.99c2.8-2.71,2.84-6.17,2.88-10.46c2.26,2.7,3.82,4.57,5.83,6.96
	c-0.75,2.06-1.56,4.49-2.52,6.85c-1.08,2.64-0.52,4.84,1.82,6.41c0.83,0.55,1.69,1.05,2.51,1.61c0.64,0.44,1.25,0.92,2.54,1.89
	c-0.22-3.46-5.03-4.77-2.31-8.5c3.95,3.77,5.58,8.91,8.84,12.73c-0.96,3.18-2.53,6.14-2.57,9.12c-0.04,3,1.44,6.02,2.39,9.49
	c0.58,0.25,1.62,0.69,3.23,1.39c0.36,2.58,0.74,5.5,1.17,8.41c0.19,1.29,0.23,2.7,0.8,3.82c2.57,5.06,3.7,10.56,5.24,15.95
	c0.57,1.99,1.67,3.82,2.67,6.03c1.55-1.09,2.73-1.92,4.29-3.03c2.29,5.48-0.13,10.04-2.12,14.97c1.53,0.68,2.96,1.3,4.65,2.05
	c0,1.6,0,3.19,0,5.11c-2.48,0.56-4.8,1.09-7.49,1.7c0.46,1.44,0.78,2.47,1.14,3.62c-0.92,0.69-1.97,1.48-2.95,2.22
	c1.37,2.27,2.44,4.02,3.85,6.35c1.9-0.46,4.03-0.97,6.75-1.63c0,2.37,0.13,4.64-0.04,6.89c-0.13,1.81-1.28,3.43-3.07,3.34
	c-1.19-0.05-2.46-1.33-3.43-2.32c-0.62-0.64-0.77-1.74-1.2-2.8c-2.56,4.11-2.52,4.35,0.82,6.58c2.56,1.7,3.41,3.94,2.49,6.78
	c-0.3,0.94-0.79,1.83-1.34,3.06c4.04,5.37,4.26,12.07,4.36,18.37c0.06,4.09-0.04,7.74,2.08,11.36c0.66,1.13,0.29,2.87,0.4,4.58
	c-1.79,0.88-3.4,1.67-5.17,2.54c-0.7,1.84-1.45,3.81-2.21,5.79c0.41,0.87,0.82,1.75,1.23,2.62c-0.93,1.2-1.74,2.24-2.51,3.22
	c1.58,4.69,1.48,4.87-3.2,5.15c0,1.09-0.11,2.22,0.03,3.32c0.12,0.95,0.52,1.87,1.04,3.61c-1.4-1.12-2.19-1.75-3-2.4
	c-4.17,1.68-0.61,4.09-0.48,6.9c-2.32-1.93-4.08-3.78-6.74-3.06c0.62-1.13,1-2.53,1.91-3.34c2.59-2.31,2.53-4.84,1.13-7.63
	c-0.58-1.17-1.27-2.29-1.85-3.33c-3.91,0.03-6.65-1.15-7.31-5.27c-0.27-1.69-1.23-2.69-3.64-1.83c0.2,2.25,0.41,4.59,0.65,7.35
	c-2.21,0.97-5.06,1.79-3.44,5.29c2.99-1.29,5.99-2.58,9.01-3.89c2.41,1.34,3.09,3.26,2,5.84c-0.7,1.66-1.35,3.34-1.91,5.04
	c-0.23,0.69-0.16,1.47-0.25,2.49C518.55,325.2,519.66,324.97,520.76,324.73z M520.11,266.05c-1.57-0.2-3.1-0.39-4.46-0.56
	c0.44,2.86,0.83,5.35,1.24,7.99c-5.37,1.83-3.39,6.74-5.02,10.18c1.36-0.81,2.73-1.61,4.08-2.41c1.5,1.49,2.77,3.49,5.68,1.58
	c-1.52-0.81-2.7-1.45-3.96-2.12c0.57-3.33,0.63-6.54,3.71-8.2C520.96,270.39,520.6,268.53,520.11,266.05z M493.3,343.53
	c-0.66,0.31-1.22,0.77-1.81,0.82c-3.49,0.29-3.48,0.26-3.31,3.36c0.21,4.04,0.38,8.08,0.64,12.11c0.05,0.82,0.43,1.63,0.66,2.44
	c0.24-0.03,0.47-0.05,0.71-0.08c0.66-3.97,1.32-7.93,1.95-11.72c1.19-0.69,2.15-1.24,3.06-1.77
	C494.55,346.91,493.99,345.4,493.3,343.53z M509.76,291.35c-1.31-3.13-2.51-5.97-3.71-8.83c0.41-0.83,0.82-1.67,1.34-2.74
	c-1.24-0.55-2.19-0.98-3.17-1.41c-0.5,3.59-0.98,6.83-1.4,10.07c-0.31,2.38,0.43,4.22,3.21,5.18
	C507.11,292.97,508.32,292.23,509.76,291.35z M353.14,450.59c-0.25,1.07-0.62,2.66-1.05,4.52c-2.61-0.19-4.61,0.61-6.75,2.06
	c-3.31,2.24-7.47,2.22-11.45,1.97c-0.77-0.05-1.53-0.22-3-0.45c0.83,1.66,1.36,2.7,1.87,3.72c-1.07,1.71-2.08,3.2-2.96,4.77
	c-1.71,3.03-2.77,3.17-5.54,0.65c-0.24-0.22-0.54-0.36-0.88-0.57c-2.01,0.22-3.03,1.31-3.65,3.36c-1.1,3.59-2.75,3.99-5.65,1.4
	c-1.84-1.64-3.39-2.12-5.71-0.82c-1.34,0.75-3.24,0.45-4.86,0.75c-4.39,0.82-8.73,1.94-13.15,2.51c-3.56,0.46-7.16,0.85-10.79-0.54
	c-2.41-0.92-5.2-0.84-7.81-1.29c-3.92-0.69-7.74-1.69-10.94-4.14c-5.15,0.8-10.05,1.24-14.92-1.95c-3.68-2.41-7.99-4.09-12.23-5.34
	c-4.39-1.29-8.22-3.24-11.74-6.08c-2.83-2.28-5.8-4.39-8.77-6.5c-0.65-0.46-1.48-0.73-2.27-0.9c-4.94-1.06-8.37-4.04-11.68-7.81
	c-3.19-3.64-7.42-6.37-11.97-10.15c-0.11-0.51-0.46-2.1-0.87-3.97c-2.53-0.93-4.12-2.87-4.42-5.73c-0.21-2.01,0.94-3.27,2.9-3.08
	c5.94,0.55,11.89,1,17.79,1.82c4.08,0.57,8.08,1.69,12.49,2.64c-0.49,3.5,2.02,4.75,4.64,6.4c2.07,1.3,3.36,3.85,5.54,6.49
	c5.1-0.29,8.25,3.93,11.74,7.98c1.63,1.89,4.22,3.95,6.47,4.06c4.18,0.21,7.56,2.11,10.42,4.28c6.38,4.83,13.97,6.55,21.05,9.56
	c3.17-0.73,6.35-1.42,9.5-2.22c0.75-0.19,1.66-1.26,2.05-1.06c2.79,1.43,4.22-1.03,6.12-2.08c0.99,0.46,1.87,0.87,2.99,1.39
	c0.68-1.1,1.36-2.18,2.2-3.53c4.85,0.38,9.63,0.04,12.54-5.86c1.07,2.21,1.61,3.32,2.14,4.41c1.68,0.62,2.78-0.19,3.02-1.64
	c0.37-2.22,1.36-4.25,0.64-6.79c-0.95-3.34,1.48-5.02,4.69-3.49c1.52,0.72,2.78,1.98,4.54,3.27c0.26-2.52-2.95-4.06-0.83-6.49
	c1.07,0,2.33,0,3.63,0c1.62-2.67-0.35-4.68-1.64-6.9c0.88-1.16,1.64-2.18,2.53-3.36c1.35,0.48,2.51,0.89,3.89,1.39
	c-0.36-2.57-0.69-4.87-1.11-7.84c2.08-0.23,3.77-0.41,6.06-0.66c0.25-0.44,0.81-1.39,1.48-2.55c1.14,0.09,2.38,0.18,4,0.3
	c0-2.16,0-4.05,0-6.34c-1.31,0.87-2.37,1.57-4,2.65c-0.6-3.34-1.12-6.26-1.68-9.38c3.55-0.51,7.04,1.88,9.73-1.22
	c-0.26-3.26-3.49-3.34-5.4-5.33c-0.05-0.66-0.38-1.7-0.14-2.58c1.16-4.25,2.45-8.47,3.77-12.68c0.09-0.27,0.83-0.33,1.51-0.58
	c0.78,2.18-1.28,5.36,2.63,6.43c1.58-0.48,3.19-2.09,5.68-1.22c1.01,0.36,2.76-1.36,4.32-2.22c1.05,0.54,2.2,1.13,3.75,1.92
	c0.64-1.22,1.2-2.29,1.94-3.71c-1.64-0.36-2.86-0.63-4.38-0.97c0.99-2.59,3.39-3.09,4.95-4.11c1.18-2.64,1.85-5.35,3.44-7.34
	c1.52-1.9,3.99-3.05,6.56-4.9c-1.55-0.7-2.81-1.26-4.42-1.99c-0.51-0.97-1.07-2.36-1.9-3.56c-0.83-1.21-1.93-2.25-2.51-2.91
	c0-5.5,0-10.4,0-15.61c0.96-0.58,2.04-1.33,3.21-1.9c1.73-0.84,2.21-2.18,2.32-4.03c0.23-3.88,0.71-7.75,1.11-11.62
	c0.25-2.49,2.46-2.31,4.58-3.08c0.4-1.64,0.87-3.53,1.3-5.42c0.56-2.46,1.44-3.15,3.76-2.88c7.42,0.88,8.13,0.49,11.98-6.8
	c1.94,0,4.02,0,6.4,0c0.64,1.89,1.28,3.57,1.77,5.3c0.44,1.56,0.73,3.16,1.1,4.84c1.9,0.32,3.5,0.59,5.49,0.93
	c-0.69,1.11-1.27,2.03-2.03,3.24c-2.26-0.28-5.04-1.42-6.16,2.46c0.31,0.64,0.8,1.66,1.39,2.88c-0.7,0.74-1.45,1.55-2.14,2.29
	c0.59,2.09,2.46,2.06,6.69-0.07c1.03,1.09,2.11,2.26,3.07,3.28c1.44,1.12,4.59-1.45,4.48,1.98c-2.4,0.83-4.58,1.8-6.86,2.3
	c-2.16,0.48-4.43,0.46-7.68,0.75c2.03,2.32,3.36,3.84,4.86,5.56c-0.89,1.82-1.74,3.56-2.75,5.61c-1.04-0.36-2.05-0.71-3.12-1.09
	c-1.39,0.92-1.63,2.49-0.49,3.31c2.72,1.97,1.91,5.55,4.46,7.27c-3.7,3.42-3.7,3.42-1.75,9.52c-3.73-1.02-5.68-3.25-6.35-6.79
	c-0.39-2.07-0.94-4.11-1.45-6.31c-2.06,0-3.62,0-5.7,0c0.46,0.91,0.61,1.75,1.11,2.11c1.46,1.03,3.07,1.87,4.69,2.83
	c-2.46,3.54,1.41,6.34,0.27,9.54c1.97,1.02,3.7,1.92,5.39,2.79c0.56,3.72-1.5,5.74-4.34,7.43c0.27,1.7,0.52,3.29,0.83,5.23
	c-2.58,2.17-3.87,4.95-2.18,8.52c0.22,0.46-0.26,1.23-0.39,1.87c-0.34,1.68-0.67,3.36-1.11,5.61c-0.28,0.17-1.1,0.68-2.13,1.31
	c-0.75-0.96-1.41-1.79-2.02-2.57c-1.65,0.45-2.37,1.53-1.44,2.61c1.61,1.88,2.74,3.76,2.23,6.29c-0.09,0.44-0.38,0.84-0.82,1.77
	c-1.9-3-3.59-5.69-5.29-8.37c-2.98,2.77-3.28,4-0.95,8.54c1.29,2.52,1.73,4.62-0.33,6.8c-1.46,1.55-2.93,3.09-4.62,4.88
	c-1.6-2.43-1.89-5.66-5.31-6.78c-1.8,0.84-3.85,1.81-5.71,2.68c-1.99,2.8,1.76,6.76-2.75,8.92c-0.94-0.41-2.25-0.98-4.05-1.78
	c-0.82,0.91-1.74,1.92-3.07,3.4c1.84,0.5,3.02,0.81,4.57,1.23c-0.29,1.23-0.58,2.48-1.12,4.75c1.99-1.26,3.1-1.96,4.47-2.83
	c0.67,1.12,1.32,2.21,2.19,3.64c-3.78,2.16-2.96,5.89-3.28,9.39C360.37,444.77,357.11,447.39,353.14,450.59z M360.51,397.54
	c-3.16,3.72,1.83,8.29-2.2,10.68c-1.84,0.16-1.86-2.94-3.88-1.5c0.42,1.47,0.82,2.89,1.37,4.86c-4.22-0.96-2.11-5.21-4.77-6.38
	c-5.68,1.24-6.4,3.05-2.93,7.76c0.58-0.95,1.15-1.88,2.26-3.7c0.31,3.62,0.52,6.14,0.81,9.59c1.56-1.77,2.33-3.17,3.51-3.83
	c1.2-0.68,2.81-0.64,3.18-0.71c2.43-3.36,4.3-5.93,6.81-9.4c0.49-4.73,5.02-10.69-0.49-16.78c-1.01,0.72-1.92,1.38-3.12,2.25
	c4.49,4.52,2.44,9.4,1.3,14.53C361.76,402.5,361.23,400.39,360.51,397.54z M369.01,383.66c6.58,0.83,6.94,1.39,5.97,6.98
	c-0.31,1.8-0.65,3.69,1.71,4.81c1.38-0.37,2.9-0.77,4.61-1.22c-2.08-2.83-4.33-5.62-3.09-8.78c0.93-2.38,0.74-4.29-0.45-6.76
	c2.3-1.41,4.35-2.66,6.78-4.14c0.33-1.11,0.76-2.65-0.96-3.6c-2.22,1.78-4.28,3.43-6.66,5.34
	C377.94,381.13,374.03,382.4,369.01,383.66z M395.27,56.75c3.12,3.37,3.12,3.37,8.22,2.63c2.04,1.98,5.15,3.03,5.84,6.38
	c0.09,0.42,0.58,1.04,0.95,1.09c4.14,0.62,5.7,4.5,8.59,6.68c0.65,0.49,1.34,1.06,2.1,1.26c8.9,2.3,13.83,9.87,20.19,15.43
	c3.15,2.75,5.18,6.75,7.88,10.06c1.93,2.36,4.38,3.39,7.64,1.77c-0.66-2.77-1.79-5.42-1.78-8.07c0.01-2.59,1.19-5.17,1.85-7.74
	c-1.89-0.96-3.19-1.62-4.64-2.36c-0.23-3.01-0.46-5.94-0.67-8.66c-6.96-2.86-13.57-5.48-16.51-12.77c-3.07-0.85-5.99-1.66-9.02-2.5
	c-0.71-1.43-1.51-3.03-2.36-4.77c-6.1,0.35-11.04-5.2-17.84-2.13c-1.11-2.18-2.08-4.1-3.44-6.78c-3.19-1.44-8.18,1.75-11.46-1.86
	c-0.42-1.37-0.79-2.58-1.14-3.7c-3.03-0.08-5.29-0.98-7.51-2.74c-2.78-2.21-6.03-3.82-9.09-5.67c-0.27-0.16-0.64-0.25-0.96-0.24
	c-5.84,0.19-10.63-3.38-16.12-4.47c-2.63-0.52-5.08-1.46-6.84-3.68c-0.28-0.36-0.83-0.53-1.29-0.73
	c-6.35-2.74-12.66-5.61-19.09-8.15c-4.09-1.61-8.19-3.81-12.9-2.39c-0.26,0.08-0.62-0.16-1.16-0.32c-0.58-1.15-1.23-2.44-1.7-3.36
	c-1.51-0.38-2.58-0.67-3.66-0.93c-1.42-0.34-2.87-0.99-4.27-0.9c-3.43,0.21-6.34-0.58-8.95-2.94c-0.86-0.78-2.39-1.09-3.63-1.12
	c-1.78-0.05-3.57,0.36-5.94,0.64c-0.41-0.82-0.93-1.86-1.51-3.02c-1.41,1.29-2.21,2.02-2.95,2.69c-3.85-2.79-7.59-4.3-12.15-2.09
	c-1.09,0.53-2.9,0.12-4.17-0.37c-2.8-1.09-5.26-1.61-7.83,0.72c-1.27,1.16-3.18,1.61-4.59,2.28c-3.24-0.52-4.8-4.24-8.52-3.33
	c-0.28,1.22-0.59,2.55-0.99,4.33c-3.9-0.26-7.6-0.6-11.3-0.73c-2.33-0.08-4.16-0.84-5.52-2.76c-0.13-0.19-0.61-0.12-1.16-0.22
	c-0.71,0.89-1.5,1.86-2.42,3.01c-6.38-2.11-12.23-2.2-16.56,4.3c0.46,2.34,0.97,4.91,1.48,7.5c1.61,1.03,3.14,2.01,4.76,3.05
	c1.36-0.64,2.65-1.24,4.2-1.97c0.64,2.89,2.21,3.24,4.57,2.47c1.34-0.44,2.9-0.19,4.36-0.3c1.55-0.13,3.09-0.32,4.63-0.49
	c1.39,0.84,2.8,1.69,4.19,2.53c-0.33,1.1-0.63,2.1-0.84,2.82c1.96,0.72,3.69,1.08,5.1,1.94c1.76,1.08,3.42,1.04,5.24,0.52
	c3.01-0.86,6.04-1.69,8.86-2.47c1.61,1.83,3.06,3.46,4.31,4.87c2.14-1.21,3.64-2.76,5.18-2.8c3.44-0.09,5.94-1.77,8.47-4.01
	c2.5,2.94,5.37,3.44,8.7,2.25c1.06-0.38,2.29-0.49,3.43-0.42c2.28,0.14,4.22-0.23,4.9-2.51c2.59,2.33,4.96,4.46,7.19,6.47
	c3.06-1.8,5.62-3.31,7.92-4.67c2.03,0.96,4.06,2.82,5.46,2.42c3.29-0.94,5.72,1,8.55,1.4c1.8,0.26,3.61,0.47,5.38,0.85
	c1.91,0.42,3.82,0.91,5.67,1.56c1.86,0.65,3.63,1.55,5.45,2.32c1.2,0.51,2.47,0.88,3.63,1.46c5.04,2.48,10.05,5.03,15.09,7.51
	c1.62,0.79,3.35,2.1,4.97,2.01c7.02-0.38,11.93,4.28,17.68,6.89c0.78,2.63,3.63,1.11,4.96,2.42c3.41,3.38,8.26,3.97,12.31,6.99
	C393.85,58.08,394.56,57.41,395.27,56.75z M148.31,162.4c-2.43,0.77-4.51,1.43-7.15,0.66c-2.15-0.63-4.83-0.66-5.08,1.8
	c-2.97,1.35-5.33,3.36-7.6,3.25c-3.78-0.19-3.97,2.92-5.52,4.51c-1.66,0.26-3.1,0.48-3.87,0.6c-1.35,2.58-2.63,4.49-3.36,6.58
	c-0.51,1.45-0.73,3.32-0.24,4.7c0.69,1.95,2.01,3.75,3.36,5.36c1.28,1.53,1.31,2.9,0.35,4.73c-1.07-0.41-2.09-0.79-3.43-1.3
	c-1.3,1.71-2.57,3.39-3.71,4.89c0.73,1.89,1.29,3.38,1.94,5.06c-1.11,0.62-1.94,1.48-2.77,1.47c-3.41-0.03-6.4,0.55-9.24,2.8
	c-1.39,1.1-3.78,0.95-5.73,1.29c-1.26,0.22-2.55,0.31-4,0.47c0,2.2,0,4.09,0,6.15c4.45,0.74,9.14,0.15,11.99,4.53
	c0.27,1.56-1.31,4.08,2.01,4.59c1.48-1.15,3-2.34,4.69-3.65c2.58,3.74-1.54,6.81-0.32,10.3c0.39,1.12-1.53,3.05-2.55,4.91
	c0.71,0.72,1.35,1.95,2.28,2.23c3.48,1.05,6.47,3.01,9.68,4.55c2.66,1.27,4.29,2.96,4.97,5.75c0.39,1.59,0.95,3.14,1.45,4.77
	c4.04,0.99,7.55,2.52,8.08,7.01c2.96-0.54,5.59-1.02,8.31-1.52c1.07-2.38,2.24-4.98,3.42-7.59c0-1.63-0.31-3.48,0.06-5.18
	c0.99-4.55,1.87-9.08,1.59-13.78c-0.12-1.98,0.04-3.97,1.91-5.2c0.51,0.21,1.03,0.27,1.07,0.46c1.11,4.61,4.83,5.5,8.69,5.91
	c2.61,0.28,5.27,0.05,8.36,0.05c1.39,1.06,3.1,3.42,5.48,0.46c-0.33-2.17-0.66-4.4-1.02-6.79c-5.24-0.63-10.26-1.24-15.4-1.86
	c0.37-6.05-1.85-10-7.84-11.46c1-1.69,1.79-3.02,2.51-4.24c-1.02-1.46-1.86-2.65-2.73-3.89c0.93-1.24,1.71-2.28,2.39-3.21
	c-0.38-1.05-0.69-1.93-1.07-2.98c1.85-1.28,3.46-2.41,5.57-3.87c1.97-7,0.79-14.58,0.94-22.12c-1.7-0.49-2.97-0.86-5.25-1.52
	c2.44-0.91,3.78-1.41,5.05-1.89c0.42-2.33,0.79-4.43,1.3-7.24C154.45,161.53,151.27,161.46,148.31,162.4z M327.66,146.67
	c1.24-0.56,2.25-1.01,3.3-1.48c0.79,3.64,0.49,4.3-2.19,4.62c-1.77,0.21-3.57,0.23-4.51,0.29c-2.34,4.62-4.33,8.55-6.3,12.43
	c-2.22,0-4.04,0.2-5.8-0.04c-4.59-0.63-9.14-1.47-13.71-2.19c-1.58-0.25-2.47,0.58-2.95,2.11c0.95,0.35,1.86,0.67,3.04,1.1
	c-0.95,2.74-0.02,4.83,2.21,6.48c0.48,0.36,0.78,1.04,1.01,1.63c1.26,3.17,0.15,7.55,4.63,9.09c0.11,0.04,0.15,0.28,0.45,0.87
	c-0.11,1-0.26,2.42-0.41,3.8c-1.95-0.09-3.52-0.16-5.27-0.24c-0.29,5.51,4.85,2.46,6.62,5.18c0,3.18,0,6.82,0,10.48
	c0.76,0.46,1.34,0.76,1.85,1.13c0.66,0.47,1.34,0.94,1.9,1.53c2.89,3.02,3.21,3.06,6.48,0.73c0.64-0.45,1.35-0.79,1.78-1.04
	c2.33,0.66,2.23,4.45,5.51,3.17c0.35-1.29,0.72-2.68,1.12-4.15c2.64-0.24,5.07-0.46,6.66-0.6c2.1-2.76,3.66-4.81,5.21-6.84
	c0.05-0.83,0.1-1.72,0.19-3.26c4.54,1.93,8.57,3.65,12.4,5.28c4.86-2.68,1.68-6.83,2.79-10.02c-6.19-4.93-8.89-11.41-9.75-18.91
	c1.61-0.75,3.05-1.43,4.05-1.89c1.36-4.6,3.62-8.7,3.51-12.74c-0.14-4.74,3.86-7.65,3.95-12.28c-2.99-1.25-6.03-2.18-8.7-3.74
	c-2.23-1.29-4.4-2-6.94-2.38c-3.55-0.53-6.89,0.05-10.27,0.78c-1.84,0.4-3.66,0.9-5.57,1.38
	C325.34,140.53,326.47,143.53,327.66,146.67z M264.44,37.09c-1.12,0.29-2.23,0.64-3.36,0.86c-1.3,0.25-2.64,0.28-3.91,0.6
	c-3.5,0.86-4.3,3.38-1.47,5.63c2.5,1.99,4.37,4.2,5.08,7.24c2.82-1.05,5.51-1.61,7.68-2.98c2.69-1.71,4.71-1.55,7.23,0.26
	c3.38,2.43,7.02,1.43,10.81,0.47c-0.95-3.22-1.89-5.74-4.77-6.66c-2.95-0.94-5.98-1.62-8.97-2.45c-2.66-0.74-5.3-1.52-7.95-2.28
	C264.68,37.54,264.56,37.31,264.44,37.09z M233.11,36.12c-0.1,4.15,1.08,8.29-2.73,11.44c1.21,1.23,2.12,2.16,3.2,3.25
	c1.16-3.22,2.1-5.85,3.15-8.78c1.33,0.9,2.39,1.6,3.44,2.31C240.19,39.6,237.46,37.5,233.11,36.12z"/>
</svg>
