<?xml version="1.0" encoding="utf-8"?>
<!-- Generator: Adobe Illustrator 28.0.0, SVG Export Plug-In . SVG Version: 6.00 Build 0)  -->
<svg version="1.1" id="Layer_1" xmlns="http://www.w3.org/2000/svg" xmlns:xlink="http://www.w3.org/1999/xlink" x="0px" y="0px"
	 viewBox="0 0 2089.41 1000.95" style="enable-background:new 0 0 2089.41 1000.95;" xml:space="preserve">
<style type="text/css">
	.st0{fill:#27AABE;}
</style>
<g>
	<path class="st0" d="M1655.09,519.99c1.09-0.19,2.19-0.38,3.27-0.56c-0.71-6.74-2.23-13.21,1.75-19.66c1.87-1,4.16-2.24,6.56-3.53
		c0.43-2.15,1.05-4.38,1.3-6.66c0.23-2.09,0.78-3.63,2.63-5.02c1.26-0.95,1.67-3.03,2.79-5.25c1.44,3.83,0.14,7.47,1.13,11.15
		c0.96,0.08,1.97,0.17,3.86,0.33c-4.7-4.93-0.45-8.59,0.67-12.41c0.59-2.01,2.86-3.59,4.55-5.18c1.32-1.24,2.83-2.32,4.93-1.5
		c1.96,0.77,3.12-0.44,4-1.76c0-3.07,0-5.97,0-9.39c1.39-2.12,3.39-4.12,6.71-4.28c0.22,2.43,0.11,4.72,0.75,6.78
		c0.28,0.89,2.08,1.31,3.33,2.03c1.59-2.9,2.99-5.46,4.45-8.13c-2.38-2.13-2.65,1.61-4.74,1.49c-0.43-1.08-0.94-2.37-1.48-3.73
		c1.22-0.47,2.13-0.82,2.51-0.97c1.25-2.81,2.01-5.4,3.46-7.5c1.35-1.96,0.93-5.1,4.11-6.15c0.92,0.76,1.88,1.55,3.4,2.8
		c-0.81-4.39,2.25-5.9,4.71-7.93c-0.13-1.43-0.25-2.83-0.43-4.74c1.38,0.49,2.25,0.8,3.12,1.11c0.74,1.81-1.53,4.22,1.55,5.52
		c1.6-0.63,3.18-1.51,5.62-0.62c1.8,0.65,4.52-1.23,7.04-2.06c0-2.13,0-4.21,0-6.31c-3.19-1.62-3.19-1.62-5.57,4.66
		c-1.98-0.21-4.07-0.7-4.72-2.77c-0.96-3.06,3.2-3.04,3.21-5.72c2.33,0.28,4.11,0.5,6.16,0.74c1.78-2.53,4.54-4.54,4.67-8.3
		c0.03-0.84,1.39-1.63,2.25-2.57c-0.38-2.66-3.26-2.45-5.41-3.46c2.54-1.51,4.68-2.78,6.81-4.05c-0.08-0.38-0.16-0.76-0.24-1.13
		c-1.73-0.19-3.46-0.38-6.09-0.67c1.48-1.24,2.25-2.05,3.16-2.62c1.73-1.09,3.18-2.15,3.42-4.52c0.17-1.67,1.31-3.05,3.41-2.92
		c2.41,0.14,2.88-1.53,3.4-3.41c0.73-2.68,1.66-5.31,2.66-7.9c0.26-0.67,1.13-1.1,2.24-2.12c0.86,1.79,1.59,3.16,2.18,4.59
		c0.75,1.8,2.1,2.36,4.33,2.27c-0.6-4.23-1.16-8.24-1.75-12.38c1.94-0.34,3.69-0.65,5.66-0.99c-0.26-2.71-0.42-5.28,3.05-6.33
		c1.08,0.48,2.4,1.07,4.05,1.81c1.95-1.94,3.95-3.94,6.45-6.42c0-2.33,0-5.3,0-7.9c3.33-4.01,6.6-7.21,11.28-6.79
		c2.8-3.69,5.27-6.93,7.73-10.17c1.52-2.53,1.03-5.99,3.9-8.55c1.42,0.51,2.89,1.04,4.63,1.67c-0.14-2.02-0.26-3.91-0.41-6.11
		c4.12-0.41,7.41-5.4,11.81-0.3c3.04-1.99,5.78-4.04,8.79-5.61c1.05-0.55,3.41-0.44,3.98,0.3c1.78,2.3,4.04,1.99,6.33,2.01
		c2.3,0.02,4.59,0,6.32,0c0.76,0.91,1.13,1.14,1.17,1.42c1,6.79,0.81,13.55-0.64,20.25c-0.19,0.89-0.86,1.83-1.57,2.43
		c-1.94,1.64-4.03,3.11-6.27,4.8c0,1.81,0.1,3.63-0.02,5.44c-0.22,3.33-1.77,4.94-5.25,5c-2.66,0.05-3.64,2.11-5,3.63
		c-2.63,2.96-5.03,6.12-7.55,9.18c-0.2,0.24-0.54,0.37-1.17,0.78c-1.25-0.47-2.73-1.02-4.17-1.55c-3.9,5.01-2.85,11.51-5.39,16.89
		c-5.28,2.23-6.56,2.16-6.35,10.16c-2.52,0.41-5.1,0.82-8.11,1.31c0,2.37,0.31,4.74-0.09,6.97c-0.4,2.22-1.51,4.31-2.16,6.07
		c-4.27,3.54-8.27,6.85-12.87,10.66c-0.87,0.22-2.68,0.66-5,1.24c-0.88-0.58-2.19-1.45-4.04-2.67c0,1.43-0.32,2.46,0.05,3.08
		c2.17,3.61,1.9,6.59-1.06,9.85c-2.05,2.25-3.14,5.36-4.68,8.08c-0.65,1.14-1.24,2.33-2.04,3.35c-3.4,4.33-5.91,9.12-7.73,14.7
		c-1.21,0.65-2.64,1.48-4.12,2.21c-1.52,0.75-2.49,1.79-3.4,3.35c-2.15,3.66-4.99,6.86-8.9,8.93c-0.44,1.67-0.71,3.6-1.46,5.33
		c-2.36,5.44-5.96,9.95-10.53,13.75c-1.24,1.03-2.42,2.45-2.96,3.94c-1.13,3.06-3.28,4.42-5.2,4.53c-2.23,2.34-3.77,3.95-5.31,5.57
		c-0.45,0.47-1.17,0.9-1.26,1.44c-0.84,4.74-5.19,6.67-7.87,9.92c-0.42,0.51-0.94,1.16-1.5,1.27c-5.16,1.04-7.66,5.61-11.6,8.3
		c-0.15,2.77-0.29,5.4-0.39,7.34c-3.36,2.92-6.18,5.36-8.97,7.84c-0.34,0.3-0.65,0.86-0.65,1.3c-0.03,3.16-2.53,3.98-4.93,5.31
		c-0.69-1.08-1.36-2.12-2.03-3.15c-0.41,0.27-0.85,0.4-0.89,0.62c-0.42,2.08-0.66,3.97-2.82,5.45c-2.04,1.41-3.55,3.74-4.94,5.89
		c-0.76,1.17-0.87,2.79-1.13,4.24c-0.27,1.56-0.37,3.16-0.57,5.02c-3.57,0.03-5.36,1.99-6.65,4.75c-0.97,2.09-2.62,3.57-4.48,5.08
		c-2.33,1.88-4.23,4.68-5.43,7.46c-1.43,3.33-3.54,5.07-7.04,5.33c-0.94,1.68-1.91,3.21-2.68,4.83c-1.28,2.71-0.61,5.15,1.98,6.86
		c2.35,1.55,4.67,2.97,5.53,5.96c0.23,0.82,1.21,1.62,2.04,2.05c6.83,3.52,12.1,9.56,19.56,12.08c0.73,0.25,1.58,0.76,1.94,1.4
		c1.14,2.02,3.25,2.58,4.86,3.8c3.03,2.31,6.37,3.74,9.63,5.46c0.56,0.29,1.09,0.86,1.36,1.43c1.29,2.68,3.93,2.96,6.2,4.19
		c4.88,2.65,10.39,4.02,14.85,7.41c1.03,0.78,1.79,1.92,2.64,2.87c1.5-0.17,2.77-0.32,3.97-0.46c1.96,4.98,6.92,9.12,12.16,10.17
		c0.97,4.13,4.71,4.03,7.85,4.45c2.67,0.35,4.21,1.32,6.02,3.49c2.58,3.09,4.66,7.35,9.79,7.59c1.72,0.08,3.4,1.26,5.08,1.98
		c0.6,0.25,1.4,0.47,1.68,0.96c3.67,6.29,10.37,9.83,14.34,15.9c1.37,2.09,3.55,3.82,6.42,4.37c1.31,0.25,2.4,1.63,3.6,2.48
		c1.48,1.04,2.85,2.52,4.5,3c2.67,0.78,3.88,2.54,4.33,4.92c0.81,4.27,3.57,7.22,6.82,9.47c2.86,1.98,4.18,4.03,3.26,7.43
		c-0.15,0.56,0.21,1.25,0.4,2.21c1.71-0.18,3.27-0.34,5.54-0.57c1.31,1.96,2.86,4.05,4.16,6.29c1.18,2.04,2.22,3.91,4.73,4.81
		c1.62,0.58,2.91,2.12,4.31,3.28c3.38,2.8,7.29,5,9.78,8.81c0.51,0.78,1.57,1.19,2.32,1.84c1.01,0.86,2.62,1.66,2.82,2.7
		c0.7,3.59,3.82,4.67,6.1,6.6c2.64,2.23,5.43,4.27,8.51,6.67c0.13,1.03,0.3,2.49,0.52,4.22c0.75-0.26,1.33-0.47,2.03-0.72
		c2.78,3.9,7.36,5.12,11.41,6.97c3.93,1.79,7.36,4.13,9.65,7.57c1.77,2.66,3.79,3.99,6.88,3.97c0.49,1.21,0.92,2.25,1.4,3.42
		c4.06,0.93,8.08,1.86,11.3,2.6c2.77,2.48,4.97,4.44,7.81,6.98c0.19,2.04,0.47,4.95,0.77,8.21c3.06-0.64,5.45-0.27,7.57,1.83
		c0.93,0.93,2.71,1.02,4.53,1.64c0.21,4.36,0.29,8.69-0.89,13.13c-5.88,2.13-11.81,1.07-17.75,0.16c-1.31-0.2-2.65-0.18-3.98-0.19
		c-1.68-0.02-3.3,0.05-4.44-1.63c-0.41-0.61-1.37-1.28-2.03-1.23c-4.07,0.31-5.72-3.72-8.97-4.88c-0.68-0.24-0.95-1.65-1.43-2.57
		c-2.47-1.3-6.06-0.66-7.24-4.35c-0.21-0.66-2.41-0.68-3.91-1.05c-0.74,0.69-1.56,1.45-2.48,2.3c-0.6-0.45-1.18-0.79-1.62-1.24
		c-1.75-1.79-3.37-3.43-6.27-3.55c-2.42-0.1-2.56-0.96-1.96-4.95c-2.16-4.74-6.01-6.08-10.96-5.92c-5.91,0.2-7.09-1.54-5.76-8.15
		c-1.18-1.5-2.54-3.25-3.55-4.53c-3.17-0.33-3.66,4.15-7.15,1.91c0-1.32,0-2.95,0-5.66c-4.31,4.15-8.84,0.3-12.59,2.38
		c-4.27-1.78-3.94-4.99-2.65-8.81c-2.13-1.36-4.15-2.64-6.51-4.14c0.63-1.12,1.46-2.58,2.74-4.86c-3.67,0.97-6.54,1.74-9.64,2.56
		c-0.37,0.91-0.8,1.95-1.44,3.49c-2.02-0.71-3.93-1.38-6.14-2.15c0.75-1.81,1.28-3.09,1.95-4.7c-1.58-0.68-2.89-1.25-4.56-1.98
		c0-3.22-2.27-4.53-5.27-4.75c-1.76-4.6-3.42-8.97-5.37-14.09c-4.07-1.26-10.47,1.16-13.45-5.42c2.99-3.68,1.77-8.38,2.35-12.96
		c-4.64-1.07-9.19-1.63-14.43-3.47c1.91-1.53,2.96-2.38,4.12-3.3c-0.33-0.28-0.71-0.88-1.02-0.84c-1.6,0.19-3.19,0.55-5.03,0.89
		c-0.19-1.59-0.38-3.2-0.59-4.97c-1.2-0.78-2.39-1.55-3.57-2.31c0.42-2.45,3.63-3.57,2.19-6.83c-1.37,0.87-2.66,1.68-4.15,2.63
		c-4.44-1.76-4.14-6.74-6.37-9.95c-3.44,0.49-6.85,1.18-9.52-2.55c2.27-1.39,4.35-2.66,6.63-4.06c0.81,0.74,1.62,1.49,2.45,2.25
		c2.26-4.1,1.77-5.2-2.32-5.45c-1-0.06-2-0.05-3-0.02c-0.99,0.02-1.98,0.11-3.13,0.17c-0.86,1.17-1.73,2.36-2.53,3.45
		c-2.43,0.73-3.05-0.46-3.03-5.11c-2.62-1.75-4.94-3.55-7.49-4.93c-1.98-1.07-4.25-1.61-6.94-2.58c0.93-1.04,1.71-1.91,2.87-3.2
		c-1.24-1.11-2.61-2.33-3.82-3.41c-3.18,1.38-0.51,5.47-3.83,6.24c-1.91-1.76-1.91-1.76-2.6-6.04c-1.05,0-2.13,0-2.26,0
		c-4.01-3.21-7.36-5.9-10.79-8.65c0.03-0.65,0.07-1.46,0.14-2.86c-2.07,0.15-3.97,0.3-5.87,0.44c-4.25-1.01-2.82-5.86-5.32-8.36
		c-1.83,0.98-3.49,2.51-5.23,2.61c-1.47,0.08-3.03-1.51-4.9-2.55c-1.17,0.41-2.71,0.94-4.72,1.64c-0.7-2.85-1.36-5.51-2.11-8.57
		c-1.28-1.15-2.87-2.56-4.5-4.03c-3.04,0.45-6.11,0.91-9.18,1.37c-1.78-3.6-5.22-6.54-2.67-11.41c-4.53-1.93-9.28-1.39-14.32-2.99
		c4.54-2.16,3.2-4.84,1.48-7.84c-1.9,0-3.97,0-6.24,0c-0.2,1.18-0.37,2.1-0.51,2.94c-3.67,0.93-7.3,1.84-11.11,2.81
		c-0.23,4.2-1.44,7.43-5.04,9.5c-1.04,0.6-1.32,2.51-2.03,3.98c-3.78,1.71-6.22-2.52-10.2-2.34c-0.99,0.5-2.46,1.24-3.41,1.72
		c-1.56,2.54-2.88,4.7-4.35,7.09c0.79,1.48,1.72,3.21,2.56,4.79c-0.91,3.55-1.76,6.88-2.7,10.56c-1.24-0.41-2.4-0.79-3.58-1.18
		c-2.55,1.96-1.51,4.65-1.47,7c0.04,2.46,0.54,4.92,0.9,7.37c0.12,0.8,0.17,1.84,0.67,2.32c2.49,2.39,2.39,5.72,3.46,8.62
		c1.49,4.01,0.88,7.16-2.75,9.1c-0.43,2.64-0.93,4.92-1.15,7.21c-0.35,3.75,0.28,7.26,3.16,10.03c0.6,0.58,1.15,1.21,1.77,1.76
		c1.9,1.68,2.2,3.58,1.02,5.82c-1.11,2.1-1.95,4.27-0.3,6.84c1.06,0.17,2.28,0.37,4.3,0.69c-1.06,1.53-1.81,2.63-2.75,3.98
		c0.27,0.45,0.67,1.13,1.19,2.03c-0.83,0.64-1.69,1.29-2.77,2.13c1.1,1.91,2.12,3.67,3.37,5.83c-2.47,0.88-4.58,1.64-6.64,2.37
		c0.13,5.25,1,4.73-4.41,6.54c0,0.61,0,1.25,0,2.12c1.63,0.5,4.48-0.76,4.57,2.27c0.08,2.69-2.05,3.34-4.63,3.13
		c1.74,2.24,3.15,4.04,4.84,6.21c-0.83,2.02-1.69,4.12-2.61,6.37c0.18,3.51,2.64,5.71,5.85,7.94c-0.74,1.5-1.17,3.19-2.22,4.3
		c-1.98,2.09-2.4,4.25-1.41,6.84c1.63,4.27,1.46,8.38-0.84,12.43c-1.38,2.42-0.78,4.86,0.67,7.08c0.63,0.96,1.47,1.79,2.57,3.11
		c-0.82,2.21-1.71,4.62-2.62,7.02c-0.69,1.82,0.63,9.1,2.08,10.41c0.52,0.48,1.47,0.49,2.46,0.78c-0.17,2.66,1.11,5.31-0.66,8.06
		c-1.36,2.11-2.12,4.59-3.29,7.24c2.44,0,4.48,0,6.55,0c-0.3,2.57-0.3,2.57-2,4.33c0.51,1.28,1.03,2.58,1.67,4.19
		c-1.68,0.76-3.12,1.4-4.8,2.16c0,2.11,0,4.18,0,6.35c-1.51-0.07-3.07-0.13-3.98-0.17c-1.01,2.96-1.86,5.45-2.89,8.45
		c0.59,0.63,1.56,1.67,3.05,3.27c0.22-1.75,0.3-2.81,0.48-3.85c0.57-3.2,2.28-3.84,4.76-1.76c0.48,0.4,0.76,1.06,1.32,1.87
		c-3.19,3.45,0.08,7.88-1.72,11.86c-1.35,0.53-2.7,1.05-4.62,1.8c1.02,1.82,1.93,3.44,2.94,5.24c-3.58,2.48-5.68-0.58-7.9-2.1
		c-2.05,0.69-2.3,2.39-1.24,3.16c3.1,2.22,3.1,6.51,6.68,8.58c-2.6,2.91,1.07,8.21-4.74,10.16c-0.14-2.82,1.42-5.29-0.47-7.89
		c-1.13,0.9-2.29,1.54-3.06,2.51c-1.92,2.42-4.46,2.75-7.2,2.38c-2.78-0.38-5.53-0.93-8.64-1.47c-0.34-0.6-0.76-1.47-1.3-2.26
		c-1.05-1.54-2.26-2.7-4.42-2.5c-3.6,0.33-6.98-0.43-9.44-3.29c-1.69-1.97-3.63-0.89-5.73-0.65c-1.4-2.79-2-6.06-4.94-7.71
		c-1.6-6.63-3.03-13.31-1.95-20.16c0.24-1.53,1.57-2.88,2.3-4.14c-0.74-2.63-1.41-5.03-1.92-6.87c1.16-3.45,2.2-6.54,3.43-10.21
		c1.72-0.4,4.02-0.92,7.23-1.66c-1.65-1.2-2.46-1.92-3.38-2.42c-1-0.54-2.12-0.88-2.9-1.19c-2.34-2.93-0.17-5.24,0.63-7.59
		c-1.99-0.7-3.74-1.31-5.68-1.98c1.58-1.75,3.16-2.85,3.7-4.33c0.43-1.19-0.27-2.88-0.73-4.26c-0.23-0.7-0.97-1.65-1.6-1.75
		c-2.44-0.38-3.71-1.64-4.51-3.98c-0.82-2.41-0.69-4.53,0.56-6.7c1.39-0.76,2.81-1.55,4.2-2.32c-0.41-3.53-5.68-4.37-4.1-9.13
		c3.36-0.19,6.92-0.39,10.66-0.6c0.18-2.67-0.06-4.6-2.38-5.6c-2.67,1.39-5.21,2.7-7.89,4.09c-0.49-2.47-0.49-2.47,2.55-3.32
		c0.59-2.66,1.19-5.39,1.85-8.39c1.13-0.12,2.19-0.24,3.39-0.37c-0.22-0.5-0.32-1.01-0.61-1.35c-0.64-0.76-1.33-1.49-2.08-2.15
		c-2.78-2.46-3.76-5.71-2.8-9.06c0.93-3.28,0.58-5.84-2.1-8.03c0.53-1.85,1.01-3.54,1.68-5.89c1.43,1.35,2.4,2.28,3.64,3.45
		c2.63-1.68,5.76-0.54,8.9-0.74c-2.79-2.77-3.08-6.07-3.33-9.3c-0.17-2.16-0.61-3.91-2.91-4.59c-4.33,2.31,0.36,6.27-1.91,9.2
		c-3.93-2.57-2.64-7.04-4.37-10.57c1.5-0.71,2.62-1.25,3.97-1.89c-2.65-5.38-2.04-10.24,2.28-14.7c-0.92-1.37-1.82-2.71-2.72-4.06
		c0.2-0.03,0.39-0.06,0.59-0.1c-0.4-2.49-0.81-4.97-1.21-7.46c-0.26,0-0.52-0.01-0.78-0.01c0.55-1.17,1.09-2.35,1.73-3.71
		c-0.53-1.17-1.14-2.48-1.85-4.04c1.27-1.18,2.44-2.27,3.9-3.63c-0.62-0.82-1.26-1.66-2.22-2.92c0.42-1.94,0.94-4.32,1.53-7.08
		c-0.28-1.4-1.07-3.32-0.95-5.17c0.29-4.28,1.06-8.52,1.55-12.78c0.22-1.97,0.15-3.98,0.35-5.96c0.19-1.92,0.55-3.82,0.95-6.54
		c-0.28-1.27-0.76-3.47-1.17-5.31c1.65-1.75,2.88-3.04,4.26-4.51c-0.93-1.06-1.65-1.89-2.84-3.26c2.5-1.03,4.79-1.98,7.69-3.17
		c-1.64-1.1-3.02-2.02-4.49-3.01c-1.68,0.66-3.49,2.42-4.93-0.01c0.59-2.94,1.03-5.69,1.72-8.38c0.27-1.08,0.81-2.39,1.66-2.95
		c2.46-1.63,2.27-3.83,1.86-6.4c-0.99-0.59-2.08-1.25-3.74-2.25c3.68-3.62,9.5-3.83,12.2-9.39c-2.31,1.02-4.15,2.88-5.89,0.05
		c0.64-0.84,1.35-1.79,2.05-2.71c-1.89-2.45-3.6-0.61-5.27,0.19c-1.23-3.52-1.23-3.52,3.1-4.82c-1.15-1.26-2.16-2.35-3.34-3.64
		c1.7-2.27,1.28-4.79,1.25-7.38c-0.04-4.12,0.52-8.24,0.83-12.36c0.33-4.43,0.67-8.86,0.97-12.89c6.68-3.57,8.29-5.51,3.14-11.18
		c1.7-5.85,5.23-11.05,8.25-16.47c-0.46-0.21-0.92-0.41-1.39-0.62c-0.55,1.06-1.1,2.12-1.62,3.14c-2.8,0.32-3.35-6.69-0.83-9.68
		c0.42-0.5,0.88-0.95,1.35-1.46c-0.63-3.05-4.3-2.54-5.7-5.55c0.59-2.09,1.34-4.73,2.2-7.77c-1.14-0.79-2.59-1.79-4-2.77
		c-0.17-4.6,4.19-2.24,5.95-4.19c0.84-3.2-2.46-3.58-4.27-5.2c3.24-6.39,5.71-12.73-0.69-18.41c1.1-2.82,2.11-5.4,3.23-8.26
		c-4.49-3.55-4.48-7.97-1.76-12.62c-1.46-4.66-1.46-4.66,0.54-7.26c1.05,1.91,2.04,3.71,3.3,6.01c2.31-3.19,4.38-5.8,2.9-9.84
		c-1.62-0.25-3.31-0.25-4.81-0.8c-2.97-1.08-3.56-4.64-0.77-5.63c4.83-1.72,5.25-6.54,8.03-9.64c1.28-1.42,1.86-3.47,2.45-4.64
		c-0.54-2.74-1.09-4.93-1.38-7.17c-0.23-1.79-0.49-3.34-2.76-3.3c-2.27,2.85-2.27,2.85,0.99,8.64c-2.7,2.38-5.51,4.86-8.57,7.56
		c0.41-2.74,0.24-5.47,1.2-8.27c0.95-2.76,1.13-5.78,1.71-9.01c1.21-1.61,2.77-3.5,4.12-5.54c1.02-1.54,1.56-3.2,0.7-5.17
		c-0.8-1.84-0.13-3.57,1.52-5.13c0.81,0.38,1.68,0.78,2.91,1.36c1-1.06,2.09-2.21,3-3.17c-1.13-4.45-3.64-0.07-5.37-1.41
		c-1.44-1.12-3.43-1.52-5.85-2.52c1.15-0.79,1.61-1.19,2.13-1.44c0.57-0.27,1.21-0.4,1.36-0.45c0.43-2.95,0.8-5.51,1.23-8.5
		c-1.04-0.6-2.38-1.38-4-2.31c0.96-1.38,1.78-2.56,2.74-3.93c-0.45-1.14-0.93-2.32-1.58-3.95c1.69-1.28,3.48-2.63,5.52-4.17
		c-0.36-0.75-0.75-1.57-1.26-2.65c-1.41,0.59-2.56,1.08-3.66,1.54c-0.35-0.29-0.75-0.46-0.81-0.71c-0.68-2.88-1.96-5.74-0.49-8.74
		c-2.19-8.82,1.73-18.45-4.03-26.56c1.08-1.63,1.89-2.86,2.71-4.1c1.41,0.08,2.71,0.35,3.97,0.2c4.28-0.5,4.33-0.51,5.56,4.27
		c1.04-1.75,1.94-3.26,3-5.05c-0.6-2.43-1.24-5.05-1.83-7.47c-4.51-0.37-2.79,3.29-4.39,5.42c-0.98-1.31-1.78-2.36-2.79-3.7
		c-0.82,0.35-1.81,0.76-3.06,1.29c-1.11-0.38-2.56-0.89-4.85-1.68c0.77,2.1,1.24,3.37,1.92,5.21c-1.52,0.39-2.8,0.71-4.89,1.25
		c0-3.98-0.18-7.24,0.1-10.46c0.1-1.13,1.17-2.29,2.03-3.22c1.11-1.2,2.44-2.2,3.71-3.24c2.72-2.23,4.59-4.65,3.24-8.55
		c-0.37-1.07,0.57-2.55,0.66-3.85c0.13-1.8,0.03-3.61,0.03-5.59c-1.59-0.75-3.01-1.42-4.7-2.22c0.5-0.66,0.79-1.24,1.24-1.63
		c3.25-2.77,3.38-3.84,0.74-6.81c-3.9-4.41-4.18-6.63-1.54-11.99c0.5-1.01,0.93-2.06,1.19-2.64c1.84-1.58,3.07,2.38,4.79-0.64
		c-2.62-1.98-5.31-4.02-7.97-6.03c-0.04-3.39,2.33-6.64-0.82-9.81c4.95-1.75,3.77-6.97,6.76-9.61c-1.16-3.08-2.42-5.93-3.26-8.89
		c-0.39-1.35-0.45-3.19,0.18-4.36c1.62-3.02,2.26-6.17,2.61-9.49c0.13-1.26,0.83-2.46,1.01-2.95c-0.34-2.24-0.8-3.81-0.78-5.39
		c0.05-3.58,0.34-7.15,0.57-11.45c5.37-2.3,4.62-7.28,3.42-12.71c-1.39-0.06-2.61-0.12-4.09-0.19c0.1-0.8-0.02-1.54,0.29-2
		c1.22-1.85,2.31-3.63,0.38-5.89c-0.65,0.8-1.13,1.4-1.61,1.99c-0.3-0.09-0.77-0.08-0.86-0.27c-0.5-1.03-1.2-2.07-1.28-3.16
		c-0.46-5.95-0.77-11.9-1.1-17.86c-0.08-1.49,0.31-3.12-0.14-4.47c-1.5-4.49,0.3-7.69,3.5-10.55c1.93-1.73,3.52-3.62,1.35-8.02
		c-0.5,1.7-0.82,2.77-1.42,4.82c-1.09-2.46-1.59-3.6-1.73-3.92c1.45-5.14,2.67-9.5,4.04-14.37c-1.24-1.64-1.7-3.74-0.98-6.46
		c0.75-2.81,0.39-5.94,0.37-8.93c-0.03-4.17,1.48-7.61,4.82-10.54c-2.94-2.79-3.74-6.13-1.78-9.98c-1.4-0.99-2.57-1.82-3.83-2.72
		c0-1.42,0-2.89,0-4.19c1.78-1.72,3.39-3.28,5.29-5.1c-1.62-1.4-2.82-2.44-4.22-3.65c0.96-0.91,1.98-1.71,2.8-2.67
		c2.14-2.51,2.08-3.81,0.71-6.8c-1.3-2.84-2.25-5.83-3.35-8.76c-0.12-0.31-0.33-0.72-0.22-0.95c2.52-5.43-0.64-11.46,1.79-16.9
		c0.54-1.21,0.9-2.5,1.5-3.66c1.29-2.48,2.95-4.8,3.96-7.39c0.84-2.15,1.76-3.9,4-4.28c1.99-9.37,3.11-10.34,12.63-10.96
		c0.15,1.52,0.3,3.05,0.52,5.2c1.8-1.06,3.05-2.17,4.49-2.54c1.55-0.4,3.27-0.09,5.19-0.09c2.43,3.43,5.24,6.71,7.25,10.41
		c2.3,4.25,1.68,9.06,1.06,13.68c-0.11,0.82-1.17,1.54-1.83,2.27c-1.09,1.2-2.21,2.37-3.7,3.96c2.85,1.09,5.21,1.99,7.98,3.05
		c-4.79,3.99-2.78,8.86-2.83,13.31c-0.04,2.79,0.63,5.59,0.73,8.39c0.14,4.11-0.05,8.22,0.07,12.33c0.08,2.79-0.54,5.24-2.4,7.39
		c-2.87,3.31-4.39,6.96-2.77,11.4c0.27,0.75,0.13,1.65,0.17,2.48c0.32,6.79,0.5,13.59,1.06,20.36c0.15,1.8,2.28,3.66,2,5.21
		c-0.36,1.94-0.51,3.91,0.48,5.15c4.57,5.7,2.18,12.16,2.14,18.25c-0.02,4.06-1.5,8.1-2.38,12.46c3.27,2.85,4.6,6.43,2.91,10.92
		c-0.37,0.98,0.02,2.28,0.18,3.42c0.64,4.42,1.27,8.73-0.48,13.18c-0.62,1.57,0.47,3.8,0.85,6.19c-0.88,1.44-2,3.27-3.11,5.08
		c3.98,3.94,4.49,6.35,1.99,11.45c-1.63,3.32-2.62,6.46-0.12,9.81c0.44,0.59,0.38,1.59,0.46,2.4c0.51,5.1,0.75,5.8,3.48,9.69
		c-0.82,0.93-1.65,1.87-2.69,3.05c1.07,0.87,1.91,1.57,3.01,2.47c-0.8,1.16-1.62,2.35-2.62,3.81c2.26,4.1,1.28,9.15,3.53,13.59
		c0.92,1.82,0.71,4.85-0.16,6.8c-1.3,2.91-0.95,5.36,0.03,8.08c0.38,1.04,0.29,2.26,0.43,3.6c-0.92,0.22-1.67,0.4-2.48,0.59
		c-0.28,5.83-0.55,11.69-0.86,18.19c0.39,0.42,1.27,1.36,2.07,2.23c0,0.47,0.13,0.88-0.02,1.12c-1.34,2.19-2.5,4.23-0.59,6.85
		c0.51,0.71-0.29,2.37-0.5,3.65c-2.16-0.3-2.54-3.47-5.45-1.85c0.32,0.84,0.42,2.28,1.07,2.61c2.76,1.37,2.86,3.81,3.2,6.52
		c-0.95,0.58-1.91,1.16-2.86,1.74c-0.06,0.31-0.2,0.63-0.18,0.94c0.41,4.89,0.84,9.77,1.38,15.88c-1.56,2.56-1.35,6.3,1.36,9.98
		c-0.88,1.32-1.69,2.53-2.7,4.05c2.36,2.22,3.06,5.12,2.18,8.67c-0.95,0.47-2.06,1.02-3.69,1.84c4.47,1.56,4.56,4.69,3.86,8.14
		c-0.16,0.79-0.64,1.93-0.3,2.34c2.81,3.33,0.85,5.8-1.43,8.24c0.59,3.17,1.41,6.24,1.66,9.35c0.18,2.25-0.05,4.67-0.68,6.83
		c-0.79,2.72-1.19,5.11,0.84,7.46c0.6,0.7,1.08,1.79,1.06,2.7c-0.07,4.98-0.18,9.96-0.54,14.92c-0.24,3.29-0.84,6.56-1.44,9.81
		c-0.29,1.6-0.92,3.15-1.42,4.79c-1.19,0-2.13,0-2.82,0c-0.51,2.75-0.97,5.27-1.58,8.56c2.78-1.62,4.86-2.84,7.21-4.2
		c0.58,0.97,1.48,1.76,1.47,2.55c-0.13,7.51,2.93,15.12-0.91,22.84c-3.22-1.74-6.72-1.85-10.66-1c0.31,0.79,0.38,1.65,0.77,1.84
		c3.53,1.66,3.66,5.09,3.78,8.09c0.24,5.47,0.99,9.22,3.57,13.19c-0.86,4.44-1.14,8.85-2.67,12.78c-1.2,3.07-2.35,6.1-3.08,9.31
		c-0.15,0.64-0.6,1.38-0.42,1.91c1.9,5.55,0.17,10.83-1.1,16.14c-0.07,0.3,0.06,0.65,0.1,0.98c3.91,2.95,4.78,6.78,2.75,11.83
		c-0.42,1.05-0.85,2.16-0.93,3.27c-0.19,2.45-0.73,4.32-3.35,5.53c-2.3,1.06-2.12,2.23,0.03,6c-3.89,5.46-2.07,12.34-4.08,18.4
		c-0.06,0.17,0.69,0.6,1.29,1.1c0.89-0.64,1.78-1.29,2.57-1.86c-0.65-6.41,1.23-9.69,7.15-12.72c4.38,0.29,4.53,3.59,4.53,6.87
		c0.58-0.17,1.09-0.2,1.12-0.33c0.66-2.9,1.74-5.3,4.22-7.42c2.2-1.88,3.05-5.04,1.86-7.78c1.61-2.66,3.6-0.6,5.99-1.29
		c1.47-3.08,3.1-6.62,4.84-10.11c1.68-3.37-0.33-7.68,3.23-11.23c0.72,3.6,1.34,6.75,2.04,10.27c0.81-1.04,1.54-1.98,2.49-3.19
		c0.93,1.19,1.71,2.18,2.69,3.42c0.77-1.65,1.45-3.12,2.15-4.62c1.24-0.66,2.51-1.34,4.43-2.37c-1.79-1.26-3.07-2.17-4.61-3.25
		c0.56-0.58,1.07-1.56,1.84-1.82c2.74-0.94,3.29-2.91,3.05-5.45c-0.09-0.96-0.18-1.97,0.02-2.9c0.92-4.15,2.44-5.29,6.61-5.03
		c0.82,0.05,1.63,0.27,2.53,0.42c0.94-0.59,2.13-1.03,2.85-1.87c0.65-0.76,1.22-2.02,1.08-2.93c-0.22-1.37-1.49-1.55-2.79-1.14
		c-0.4,0.12-0.9-0.07-1.31-0.11c-1.57-3.35,0.79-4.66,2.9-5.98c1.8-1.13,3.73-2.07,6.2-3.42c2.02,1.07,4.51,2.28,6.85,3.73
		c0.48,0.3,0.4,1.51,0.58,2.31c-1.34-0.5-2.68-1-3.81-1.43c-2.81,1.61-1.86,4.26-2.46,6.41c-0.6,2.14-1.55,4.19-2.39,6.39
		C1652.26,530.54,1655.79,525.72,1655.09,519.99z M1549.44,883.21c-1.67-0.81-2.95-0.42-3.35,1.46c-0.51,2.4-0.82,4.85-1.17,7.29
		c-0.68,4.73,0.94,6.15,5.67,5.01C1552.32,892.22,1551.61,887.67,1549.44,883.21z M196.26,720.86c2.38,3.77,1.41,7.75,1.6,11.65
		c0.1,2.02,0.14,3.91,1.56,5.61c1.36,1.63,1.61,3.53,0.71,5.61c-0.78,1.79-1.27,3.7-1.84,5.43c0.32,1.41,0.24,2.98,0.97,3.95
		c2.72,3.6,1.23,6.79-0.29,10.25c-0.75,1.7-0.98,3.85-0.74,5.71c0.66,5.07,1.84,10.08,2.47,15.16c0.18,1.44-0.44,3.35-1.37,4.49
		c-2.48,3.01-2.63,6.21-2.09,9.84c0.76,5.06,1.16,10.18,1.65,15.28c0.16,1.65-0.23,3.45,0.28,4.96c1.26,3.69,0.85,7.11-1.03,10.2
		c1.09,1.62,1.99,2.95,2.82,4.18c-0.4,0.79-0.51,1.37-0.85,1.64c-2.32,1.81-2.94,3.59-1.06,6.35c0.86,1.26,0.43,3.45,0.46,5.22
		c0.06,3.61,0.03,7.22,0.04,10.82c0.01,1.64,0.37,3.38-0.03,4.91c-0.74,2.84-0.39,5.5-0.03,8.34c0.43,3.42,2.61,7.06-0.41,10.29
		c1.21,2,2.3,3.81,3.34,5.54c-5.38,6.1-0.11,11.79-0.17,17.54c-0.52,2.01-1.38,4.15-1.03,6.08c1.14,6.39,1.84,12.77,1.73,19.27
		c-0.15,8.32,0.19,16.66-0.14,24.97c-0.2,5.22,1.12,9.81,3.69,14.14c-0.53,1.23-1.51,2.44-1.47,3.6c0.15,4.06-1.24,8.29,1.33,12.15
		c0.57,0.86,0.47,2.24,0.5,3.39c0.07,2.45,0.02,4.91,0.02,7.69c5.46,3.68,12.38,3.29,18.55,5.34c2.85,0.95,6.28,0.27,9.44,0.14
		c3.67-0.16,6.88-1.09,8.06-5.27c0.26-0.92,1.37-1.6,2.08-2.38c1.33,1,2.3,1.73,3.75,2.83c1.8-4.32,0.94-8.25,0.94-12.05
		c-1-0.81-1.87-1.52-2.43-1.97c-1.93-5.55,3.05-8.39,3.87-12.58c-2.37-8.16-4.73-16.33-7.29-25.13c-3.91-0.23-2.82-3.74-3-6.69
		c-0.18-3.05-0.1-5.96,3.33-7.91c-2.19-2.7-4.05-4.99-5.94-7.31c0.19-1.72,0.38-3.45,0.6-5.46c1.11,0,2.1,0.04,3.07-0.01
		c1.77-0.08,3.98,0.47,4.62-1.89c0.68-2.46-1.62-2.88-3.12-3.81c-2.99-1.84-3.44-4.22-1.3-6.99c0.89-1.15,1.89-2.23,2.53-2.98
		c-0.32-2.54-0.97-4.55-0.74-6.45c0.54-4.45-0.98-7.37-5.26-8.82c-0.24-0.08-0.36-0.54-0.4-0.6c-0.31-6.61,3.26-11.84,5.46-17.32
		c-0.98-1.06-1.72-1.85-2.58-2.77c2.86-2.41,3.15-5.15,2.28-8.32c-0.47-1.73-0.52-3.61-0.51-5.42c0.01-5.66,0.17-11.34-4.28-15.94
		c1.17-1.3,2.14-2.36,3.13-3.46c-0.6-3.01-1.17-5.93-1.74-8.82c0.56-1.37,1.88-2.97,1.53-4.03c-0.98-2.97,0.19-5.01,1.63-7.37
		c1.67-2.73-0.12-6.49-3.31-6.79c-4-0.37-6.19-2.6-7.9-5.55c0.39-1.89,1.4-2.35,2.94-2.43c4.18-0.23,4.18-0.29,3.16-4.72
		c-2.14-0.61-4.31-1.22-7.4-2.1c2.15-0.96,3.48-1.56,5.13-2.29c-1.91-0.93-3.32-1.61-4.65-2.26c0.19-2.37,1.48-3.59,3.21-3.62
		c3.5-0.06,5.31-2.15,6.94-4.49c-1.19-1.26-2.61-2.15-3.11-3.41c-1.81-4.53-3.31-9.19-4.89-13.69c0.97-2.52,6.02-0.41,5.16-4.94
		c-1.81-0.83-3.46-0.76-5.13,0.41c-1.91,1.33-3.91,1.33-6.56,0.11c1.2-0.81,1.89-1.46,2.71-1.81c5.52-2.37,5.72-3.26,1.73-7.92
		c-0.19-0.22-0.14-0.63-0.2-0.95c3.24-5.68,3.24-5.68,0.49-8.78c0.48-2.77,0.91-5.26,1.45-8.35c0.09-0.07,0.85-0.65,1.54-1.18
		c-0.37-1.99-0.7-3.76-0.98-5.29c-1.33-0.48-2.42-0.88-4.24-1.54c1.92-1.49,3.15-2.44,4.34-3.37c0.29-1.82,0.56-3.56,0.82-5.2
		c2.04-0.55,3.59-0.97,5.06-1.37c0.15-4.77,0.15-4.72-3.9-5.33c-1.2-0.18-2.35-0.69-3.94-1.18c0.94-2.22,1.57-3.9,2.36-5.5
		c1.39-2.82,3.82-5.49,4.13-8.4c0.61-5.69,0.25-11.52-0.15-17.27c-0.12-1.71-0.87-3.27-0.6-5.23c0.3-2.15,0.2-5.36-1.12-6.52
		c-3.31-2.93-2.29-6.36-2.33-9.7c-0.07-6.75,0.69-13.53-1.53-20.13c-0.46-1.37-0.85-3.14-0.36-4.38c1.26-3.23,0.37-5.77-1.5-8.34
		c-0.67-0.92-1-2.08-1.45-3.04c0.67-2.01,1.29-3.87,2.14-6.42c-1.16-0.6-2.36-1.22-3.42-1.77c1.48-4.38,1.44-7.58-2.01-10.44
		c-2.51-2.08-2.79-4.77-1.11-6.66c2.75-3.09,4.03-6.06,1.38-9.78c-0.17-0.24-0.12-0.65-0.18-0.97c-1.12-5.93-3.32-11.74-2.14-17.95
		c0.03-0.15-0.08-0.32-0.1-0.49c-0.5-4.36-2.49-8.48-1.94-13.03c0.1-0.82-0.78-1.76-1.21-2.64c-0.57-1.18-1.15-2.35-1.36-2.77
		c0.78-3.12,1.59-5.43,1.89-7.8c0.24-1.91-0.19-3.9-0.19-5.85c0-2.19-0.35-4.05-1.72-6.02c-3.23-4.65-2.37-9.54,0.04-14.55
		c3.95,0.84,8.01,2.52,9.58-3c3.9,0,7.56-0.03,11.22,0.01c3.98,0.05,8.03,0.41,11.08-3.29c3.95,3.07,8.36,2.05,12.61,2.28
		c2.83,0.15,5.49-0.57,7.47-2.31c3.96-3.45,7.97-3.45,12.44-1.41c2.2,1,4.74,1.41,6.6-0.34c2.59-2.44,5.36-2.13,8.38-1.58
		c1.61,0.29,3.37,0.74,4.9,0.4c5.13-1.15,10.2-2.58,15.26-4.01c0.73-0.2,1.26-1.03,1.97-1.42c0.97-0.52,1.99-1.09,3.05-1.3
		c5.35-1.08,10.85-1.4,15.92-3.78c1.61-0.75,3.72-1.48,5.29-1.05c3.89,1.06,7.54-0.47,11.32-0.37c2.36,0.07,4.74-1.02,6.89-1.53
		c0.99-5.2,0.87-14.02-0.13-17.48c-3.38,1.06-1.39,4.71-3.27,7.12c-1.95-3.58-0.03-7.27-1.64-10.65c-5.11-3.3-11.33-2.32-17.03-3.04
		c-8.01-1-15.63,1.78-21.59,5.14c-4.53-0.28-8.06,0-11.31-0.85c-2.83-0.74-4.99,0.62-7.45,0.92c-4.57,0.55-9.14,1.06-13.68,1.75
		c-0.89,0.13-1.63,1.06-2.49,1.54c-2.44,1.36-4.91,2.68-7.37,4.01c-0.95-0.54-1.78-1.02-1.97-1.12c-7.95,1.84-14.69,5.74-22.59,5.38
		c-2.1-0.1-4.32,0.23-6.34,0.85c-3.79,1.15-7.47,2.66-11.2,4.02c-1.14-1.03-2.09-1.89-3.13-2.83c-2.76,1.46-5.26,3.25-8.04,4.1
		c-2.74,0.84-5.77,0.72-8.07,0.96c-2.62-2.83-4.63-5.01-7.11-7.7c-0.27-5.19-0.74-10.97-0.82-16.75c-0.05-3.75-0.5-7.24-2.46-9.43
		c0-2.64-0.19-4.45,0.05-6.2c0.24-1.71,0.92-3.37,1.44-5.18c-2.81-3.47,0.54-7.56-0.73-11.42c-1.53-1.11-3.13-2.26-4.37-3.16
		c0-4.33,0.07-8.28-0.04-12.22c-0.04-1.29-0.47-2.59-0.9-3.83c-0.89-2.57-2.1-12.94-1.77-15.65c0.11-0.95,0.15-1.94,0.03-2.89
		c-0.43-3.33,0.51-6.76-1.16-10.04c-0.57-1.13,0.14-2.91,0.27-4.39c0.04-0.48,0.1-0.95,0.16-1.48c-0.6-0.37-1.15-0.71-1.9-1.18
		c0.24-1,0.49-2.07,0.77-3.24c-1.44-2.3-2.92-4.65-4.27-6.81c0.68-1.79,1.69-3.29,1.76-4.84c0.26-6.11,0.27-12.22,0.25-18.34
		c-0.01-1.26-0.19-3.2-0.97-3.66c-3.39-2-2.08-4.75-1.78-7.47c0.41-3.75,0.46-7.52-2.24-10.6c-1.29-1.47-1.58-2.99-0.48-4.52
		c2.73-3.77,2.59-7.35-0.6-10.78c0.61-1.51,1.15-2.87,1.86-4.63c-2.59-0.83-4.89-1.57-7.6-2.44c-0.11-2.12-0.32-4.24-0.32-6.35
		c-0.04-9.16,0.08-18.32-0.08-27.47c-0.05-2.78-0.82-5.54-1.27-8.31c-4.06-1.13-2.32-3.93-1.87-6.38c0.04-0.23-0.26-0.53-0.46-0.91
		c-0.73,0.59-1.44,1.16-1.7,1.37c-2.57-1.57-4.82-2.95-7.3-4.46c1.95-1.88,2.05-4.51,1.72-7.43c-0.34-2.96-0.18-5.99-0.02-8.98
		c0.08-1.49,0.64-2.96,1.02-4.62c1.04,0.61,1.5,0.88,1.97,1.15c0.2-0.27,0.4-0.53,0.6-0.8c-1.4-1.24-2.81-2.47-3.95-3.48
		c0-3.66,0-7.1,0-10.72c3.51-1.65,4.16-4.67,3.66-8.44c-1.27-0.3-2.63-0.63-4.18-1c0.07-0.7,0.17-1.33,0.2-1.96
		c0.03-0.77,0.01-1.55,0.01-2.25c-4.13-2.91-8.96-0.98-13.13-2.53c-3.98-4.89-4.06-4.91-9.41-2.54c-0.66,1.29-0.98,3.12-2.03,3.75
		c-2.73,1.66-2.91,3.65-2.03,6.36c0.4,1.22,0.26,2.64,0.22,3.97c-0.13,4.76-0.32,9.53-0.45,13.12c-1.51,2.68-3.31,4.44-3.36,6.24
		c-0.16,5.78,0.37,11.58,0.55,17.38c0.04,1.27,0.2,3.22-0.5,3.72c-2.97,2.1-2.2,5.01-2.14,7.73c0.14,5.9-0.78,11.87,1.19,17.65
		c0.15,0.45,0.39,0.88,0.55,1.25c1.43,0.62,2.74,1.19,4.19,1.81c0,2.03,0,3.85,0,5.68c0,13.27,0.07,26.53-0.06,39.8
		c-0.02,2.53,0.54,4.51,2.52,5.79c0,7.64,0,14.95,0,21.2c-0.58,3-1.76,5.26-1.22,6.99c1.48,4.75,0.48,8.87-2.13,12.71
		c-1.63,2.39-1.04,4.37,0.28,6.45c0.8,1.25,1.71,2.43,2.36,3.35c2.86,0.2,5.42,0.39,8.13,0.58c0.37,9.39,0.82,18.33,1.05,27.27
		c0.16,6.32,0.02,12.65,0.03,18.98c0,2.15,0.28,4.11,1.22,6.22c1.23,2.74,2.33,5.9,0.3,8.99c-0.39,0.6-0.25,1.55-0.36,2.42
		c1.7,1.11,3.25,2.12,5.31,3.46c-2.18,1.47-3.72,2.51-5.15,3.47c0.1,2.24,1.25,3.08,2.94,3.85c2.62,1.19,3.87,3.33,3.78,6.41
		c-0.17,5.82,0.09,11.66-0.11,17.48c-0.09,2.73,0.66,4.81,3.01,6.37c-0.4,1.41-0.39,3.33-1.17,3.73c-2.45,1.27-2.73,3.57-3.21,5.24
		c-2.26,1.61-3.95,3.61-5.99,4.07c-2.28,0.51-4.87-0.38-7.33-0.64c-0.33-0.04-0.67-0.01-1-0.01c-5.77,0-11.54,0-17.63,0
		c-0.15,0.88-0.33,1.96-0.48,2.87c1.4,1.63,5.01,0.82,3.98,4.4c-1.16,0.45-3,0.59-3.46,1.46c-1.33,2.56-3.47,2.03-5.57,2.2
		c-11.68,0.93-23.47-1.57-35.14,1.53c-3.32,0.88-7.26-0.12-10.84-0.71c-8.28-1.37-16.57-0.67-24.86-0.45
		c-0.26,0.01-0.52,0.38-0.71,0.53c-0.56,2.94-1.11,5.82-1.74,9.13c-5.03,0-9.66,0.04-14.3-0.02c-1.8-0.02-3.6-0.36-5.4-0.42
		c-4.39-0.16-8.78-0.24-13.17-0.35c-0.83-0.02-1.66-0.09-2.48-0.03c-3.63,0.26-7.26,0.57-10.88,0.84c-1.61,0.12-3.23,0.19-4.6,0.26
		c-0.39,0.69-0.68,0.97-0.69,1.25c-0.07,7.49-0.3,14.98-0.08,22.46c0.09,2.96,1.13,5.91,4.31,7.42c0.45-0.08,0.93-0.19,1.41-0.24
		c2.91-0.32,5.77-0.5,8.72,0.25c3.33,0.84,6.82,1.28,10.08-0.55c4.77,3.4,9.73-1.1,14.56,0.34c0.17,0.05,0.6-0.28,0.69-0.52
		c0.79-2.2,2.69-1.45,4.25-1.65c2.71-0.36,5.42-0.77,8.45-1.21c1.85,1.88,4.46,1.27,7.12,0.78c1.06-1.5,2.08-2.93,3.38-4.77
		c0.77,1.15,1.35,1.87,1.77,2.67c0.44,0.83,0.72,1.75,1.29,3.2c4.03-1.38,8.22,0.08,12.43-1.55c0.32-3.93,0.62-7.64,0.92-11.33
		c1.71,0.1,3.18,0.52,4.47,0.21c3.84-0.93,7.69-1.38,11.62-1c2.79,0.27,5.29-0.12,6.77-2.69c1.17,0.38,2.08,0.95,2.97,0.92
		c15.77-0.45,31.54-0.97,47.3-1.48c2.59-2.89,3.74-3.52,6.07-3.33c2.31,0.19,4.62,0.41,6.93,0.56c4.08,0.26,4.89,1.11,5.1,5.51
		c3.14,1.94,3.53,2.53,3,5.39c-0.94,5.05-1.51,9.99,0.81,14.93c0.5,1.07-0.16,2.94-0.77,4.19c-0.62,1.27-1.87,2.23-2.92,3.42
		c0.44,6.22-0.43,12.72,5.22,17.41c0.54,0.45,0.65,1.49,0.83,2.28c0.46,2,1.11,3.82,3.06,4.9c0.56,0.31,1.2,0.78,1.42,1.33
		c2.09,5.26,3.99,10.49,1.33,16.23c-0.62,1.34-0.93,3.7-0.18,4.65c3.66,4.65,2.67,10.85,6.28,15.46c-1.57,0.87-2.55,1.42-3.55,1.98
		c1.9,4.51,2.75,8.86,0.32,13.39c-0.54,1.01-0.56,2.7-0.1,3.77c0.94,2.19,2.37,4.17,3.85,6.66c-0.28,0.57-0.86,1.73-1.03,2.08
		c1.31,5.7,2.71,10.57,3.48,15.53c0.58,3.72,0.2,7.57,0.54,11.34c0.12,1.37,0.94,2.78,1.75,3.97c0.72,1.05,1.86,1.8,2.83,2.69
		c-0.56,3.17-0.72,6.27-1.71,9.1c-1.28,3.68,1.91,5.81,2.52,8.95c-3.66,3.88-0.01,7.29,0.81,11.11c-0.73,0.52-1.53,1.1-2.23,1.61
		c0.67,1.44,1.14,2.47,1.31,2.84C196.91,717.55,195.6,719.83,196.26,720.86z M2058.23,662.19c-4.3-2.74-3.75-7-3.68-11.18
		c0.09-5.75,0.02-11.5,0.02-17.38c-1.81-0.48-3.19-0.85-4.81-1.28c-0.08-1.82-0.22-3.45-0.23-5.08c-0.03-5,0.08-9.99-0.07-14.98
		c-0.06-2.07-0.67-4.12-1.09-6.57c2.25-2.11,0.86-4.48-0.84-6.84c2.33-2.62,2.28-5.51,1.63-8.55c-0.23-1.08-0.01-2.26-0.17-3.37
		c-0.21-1.52-0.58-3.02-0.82-4.18c2.53-6.68,0.98-13.38,1.21-19.93c0.06-1.77-1.27-3.58-2.11-5.74c2.35-1.34,2.54-3.82,1.99-6.59
		c-0.15-0.78-0.04-1.64,0.08-2.44c0.35-2.39,0.06-4.5-1.48-6.57c-1.94-2.62-3.5-5.52-5.44-8.64c1.17-0.91,2.28-1.78,3.08-2.41
		c0-4.19-0.03-8.18,0.02-12.16c0.02-1.48-0.31-3.46,0.48-4.33c1.76-1.93,1.45-4.65,1.03-5.98c-0.84-2.67,0.14-4.73,0.7-6.9
		c1.88-7.28-0.93-14.44-0.34-21.66c0.01-0.16-0.02-0.37-0.11-0.48c-2.32-2.68-1.75-5.94-1.77-9.06c-0.03-4.16,0.08-8.33-0.05-12.49
		c-0.05-1.6-0.65-3.18-0.92-4.78c-0.18-1.07-0.41-2.19-0.27-3.24c0.77-5.5-0.65-11.09,0.74-16.59c0.38-1.49-0.89-3.48-0.36-4.83
		c1.88-4.74-0.64-8.5-2.54-12.2c-1.22-2.37-1.65-4.57-1.64-7.09c0.01-2.31,0.42-4.95-0.52-6.87c-1.25-2.56-1.46-5.02-1.45-7.68
		c0.02-4.47-0.16-8.94,0.06-13.4c0.15-2.99-0.4-5.52-2.7-7.14c0.14-1.51,0.36-2.66,0.33-3.79c-0.19-6.13-1.1-12.32-0.47-18.36
		c0.53-5.08,1.45-9.82-2.09-13.75c0.63-1.61,1.08-2.75,1.43-3.65c-3.36-4.01-7.78,1.21-10.57-2.19c-1.59-2.6-3.19-5.2-4.78-7.79
		c-3.03,0-5.64,0.49-7.98-0.1c-4.76-1.2-9.13-1.32-12.98,2.45c-1.19-1.01-2.14-1.81-3.03-2.56c-1.25,0.91-2.24,1.85-3.41,2.42
		c-1.27,0.61-2.78,0.72-4.06,1.31c-3.78,1.74-8.36,2.59-9.27,7.77c3.36,2.8,3.4,3.56,0.39,8.14c-4.5-0.06-6.15,1.83-4.2,5.47
		c1.2,2.24,1.14,4.4,1.38,6.69c0.42,3.97,0.68,8.03,1.73,11.85c2.28,8.29,3.52,16.5,0.67,24.9c-0.85,2.49-1.53,5.03-2.36,7.83
		c2.68,1.44,3.08,3.91,2.94,6.73c-0.13,2.62-0.46,5.32,1.5,7.62c0.46,0.54,0.47,1.58,0.47,2.39c0.03,6.16,0.01,12.32-0.02,18.48
		c0,0.65,0.05,1.49-0.31,1.94c-3.21,4.02-0.65,7.06,1.36,10.16c1.95,0.78,4.66-1.92,5.59,1.55c-3.67,3.11-3.78,3.1-3.97,8.62
		c-0.11,3.21,0.26,6.43,0.35,9.64c0.06,2.33,0.04,4.66,0.01,6.99c-0.03,2.03,0.74,3.54,2.51,4.33c1.7-0.15,3.28-0.28,5.13-0.44
		c0,1.39,0,2.3,0,3.25c-1.65,0-3.06,0-4.57,0c-1.47,3.07-1.83,5.75,0.86,7.9c1.79,0.32,2.96-2.49,5.38,0.51
		c-0.77,0.39-1.65,0.79-2.47,1.28c-1.58,0.92-3.12,1.89-4.68,2.85c-2,1.23-2.73,2.8-2.72,5.34c0.01,3.71,0.31,7.02,3.7,9.31
		c-1.27,2.22-3.7,3.43-3.17,6.21c0.45,2.41-0.06,5.18,0.95,7.26c1.66,3.42,1.31,6.34-0.23,9.19c0.89,2.24,1.72,4.33,2.64,6.67
		c-4.26,1.65-3.84,4.77-2.89,7.64c1.23,3.71,0.31,7.32-1.52,10.01c-2.95,4.33-1.7,8.37-1.44,12.59c1.75,0.36,2.96,0.61,4.46,0.92
		c-0.17,1.4-0.07,2.6-0.48,3.59c-2.09,5.03-2.43,10.09-0.99,15.37c0.54,2,1.12,4.5,0.38,6.2c-1.03,2.37-0.69,4.12,0.36,6.09
		c0.94,1.76,0.85,3.34-0.16,5.17c-0.64,1.16-0.5,2.77-0.6,4.19c-0.08,1.12,0.2,2.3-0.04,3.37c-0.61,2.73-0.74,5.24,1.52,7.39
		c0.55,0.52,0.98,1.47,0.96,2.21c-0.1,4.47,1.62,9.34-3.33,13c3.37,1.8,3.63,4.5,3.46,7.44c-0.13,2.16,0.15,4.34-0.07,6.49
		c-0.14,1.41-0.48,3.08-1.37,4.07c-2.72,3.05-1.41,5.91,0.06,8.74c0.67,1.29,1.78,2.42,2.87,3.42c2.6,2.37,3.78,5.32,4.23,8.97
		c-4.32,2.97-6.26,7.2-6.26,12.24c0.82,1.59,2.33,3.2,2.26,4.75c-0.07,1.76-1.55,3.46-2.68,5.69c1.25,1.23,2.63,2.56,3.99,3.93
		c2.41,2.43,2.47,3.54,0.43,6.45c-0.46,0.65-0.92,1.31-1.63,2.33c2.4,2.02,4.62,3.91,6.8,5.74c1.87,4.34-2.65,4.49-4.46,6.51
		c2.02,2.54,3.94,4.96,6,7.57c-0.9,2.07-1.73,4-2.44,5.64c0.77,1.67,1.83,3.18,2.15,4.83c0.68,3.54,0.97,7.16,1.46,11.06
		c-3.32,4.46-3.32,4.91,0.25,10.03c-2.01,3.59-2.01,3.59-0.84,7.62c3.7,1.93,8.14-3.08,11.8,1.23c-2.7,2-5.15,3.8-7.7,5.69
		c0.5,0.96,0.92,1.65,1.25,2.39c1.67,3.75,3.4,7.23,2.18,11.84c-0.93,3.53-0.64,7.74,0.32,11.33c1.45,5.41,0.49,10.37-0.8,15.49
		c-0.84,3.33-2.17,6.57-1.53,10.19c0.72,4.06,1.35,8.17,1.6,12.28c0.16,2.54,0.67,4.54,3.33,5.81c0.98-0.78,2.05-1.63,3.24-2.58
		c2.69,3.06,1.6,6.48,2.34,9.6c-1.35,0.82-2.45,1.5-4.11,2.51c0.52,3.04,1.06,6.2,1.71,10.04c-0.19,0.35-0.8,1.45-1.55,2.81
		c1.34,0.57,2.36,1.01,3.42,1.46c-0.35,1.38-0.7,2.76-1.07,4.23c2.63,1.53,4.79,3.14,3.21,6.82c-1.49,0.97-3.27,2.14-5.16,3.38
		c0,2.21,0,4.48,0,6.99c2.04,1,3.95,1.93,6.34,3.1c0.1,2.97,2.14,4.65,5.2,5.39c0.78,0.19,1.45,0.8,2.2,1.15
		c3.67,1.73,7.34,3.43,10.63,4.96c1.83,1.55,3.25,3.13,5,4.17c3.08,1.83,5.76,3.86,6.81,7.49c0.07,0.23,0.53,0.34,1.04,0.64
		c1.17-0.54,2.48-1.15,3.47-1.61c1.98,0.52,3.56,1.19,5.19,1.32c3.42,0.28,6.9,0.05,10.3,0.48c3.42,0.44,6.98-1.47,10.34,0.71
		c0.51,0.33,1.76-0.48,2.89-0.84c0-1.6,0-3.01,0-3.4c1.64-3.82,5.83-1.21,7.07-4.73c-0.77-0.9-1.59-1.85-2.46-2.85
		c1.08-1.32,3.67-1.81,1.99-4.5c-0.39-0.12-1.01-0.3-1.62-0.5c-4.03-1.33-4.3-1.66-3.87-5.97c0.22-2.15-0.31-3.59-2.66-3.95
		c-0.94-0.14-1.85-0.42-2.66-0.61c-0.93-7.42-0.74-20.54,0.33-24.06c1.54-0.3,3.12-0.6,4.6-0.89c0.94-5.72,0.75-22.39-0.27-26.09
		c-1.53,0-3.1,0-4.67,0c-1.36-4.06,0.82-8.47-1.78-12.21c-0.17-0.25,0.16-0.97,0.42-1.38c1.09-1.75,0.15-3.16-0.68-4.63
		c-0.94-1.68-1.82-3.4-2.79-5.23c1.7-1.23,2.98-2.14,4.36-3.14c-0.6-1.06-1.07-1.89-1.21-2.15c0.46-2.23,1-3.93,1.12-5.66
		c0.17-2.49-0.26-5.03,0.09-7.48c0.74-5.16-1.44-8.22-6.18-9.81c-0.27-0.09-0.43-0.48-0.43-0.48c-0.48-5.55-0.96-10.83-1.38-16.11
		c-0.08-0.99-0.19-2.11,0.19-2.96c1.38-3.09,0.36-5.48-2-7.46c0.25-1.31,0.91-2.58,0.6-3.53c-1.15-3.54,1.31-7.5-1.65-10.93
		c-1-1.16-0.55-3.49-0.98-5.24c-0.63-2.55-1.73-5-2.11-7.57c-0.29-1.91-0.62-3.56-2.14-4.83c-1.92-1.59-1.94-3.43-1.45-5.82
		c0.88-4.34-0.31-8.44-2.45-12.17c-2.08-0.35-3.83-0.65-5.7-0.97c0-8.17,0-16.06,0-23.87c1.9-0.54,3.45-0.98,4.82-1.37
		c0.72-2.16,1.05-4.18,2.02-5.82c2.6-4.41,2.59-7-0.64-11.12c1.09-1.37,2.21-2.77,3.38-4.24
		C2058.98,663.23,2058.73,662.51,2058.23,662.19z M914.38,575.94c-0.2,0.97-0.11,2.17-0.65,2.86c-2.16,2.74-1.72,5.18,0.71,7.49
		c-0.67,1.33-1.26,2.49-1.97,3.89c4.34,3.84,3.29,7.73-0.29,11.93c-1.62-0.52-3.25-1.04-5.06-1.62c-1.1,3.36,3.8,3.35,2.78,6.99
		c-0.86,1.11-2.25,2.9-3.78,4.85c1.14,1.26,2.11,2.32,2.98,3.28c-1.22,4.41-2.38,8.63-3.69,13.37c-2.79-1.37-5.51-2.72-8.1-3.99
		c-3.8,2.45,0.43,5.59-2.1,8.86c-1.66,1.8-2.7-1.61-4.51-2.37c-0.81,3.81,3.18,2.88,4.4,5.12c1.53,4.93-3.03,8.43-4.43,13.19
		c1.02,0.41,1.86,0.81,2.74,1.07c0.77,0.23,1.58,0.29,2.58,0.46c0,1.12,0,2.03,0,3.34c-1.83-0.54-3.34-0.99-5.14-1.53
		c-0.43,3.04-1.73,5.5,0.13,8.64c1.78,3.01-0.94,5.16-3.34,6.8c0.37,1.08,0.67,1.98,1.15,3.37c-3.09-0.14-5.86-0.26-8.94-0.39
		c-1.38,3.43-1.17,8.02-5.14,10.56c-1.53-1.79-1.47-3.82-0.95-6.04c0.61-2.57,1.07-5.19,1.4-7.82c0.11-0.86-0.39-1.79-0.66-2.87
		c-2.27,0.62-2.41,2.35-2.02,3.59c1.05,3.39-0.01,6.38-1.11,9.46c-0.99,2.78-1.86,5.61-2.88,8.72c-1.34,0.37-2.86,0.78-4.8,1.31
		c2.96,2.76,6.26,3.48,10.02,3.64c0.19,0.98,0.37,1.87,0.54,2.77c-2.1,0.36-4.14,0.3-5.75,1.1c-1.54,0.76-2.9,2.25-3.87,3.73
		c-1.06,1.62-1.59,3.6-2.38,5.51c-1.49-0.86-2.34-3.13-3.98-1.5c-0.33,3.54-0.63,6.78-0.95,10.18c-1.11,0.5-2.13,0.96-3.45,1.55
		c-0.83,2.74-1.29,6.43-5.7,4.78c-1.12,1.83-2.05,3.37-3.38,5.54c0.72,1.59,1.65,3.64,2.87,6.34c-1.32-0.28-2.11-0.44-3.37-0.7
		c-0.38,0.55-0.95,1.36-1.81,2.6c-0.96-1.8-1.69-3.17-2.63-4.92c-2.93,3.59-0.89,6.44,0.41,8.96c-0.51,4.74-4.2,2.71-6.51,3.27
		c0.13,3,2.91,1.97,4.41,3.54c-5.03,2.22-6.95,9.06-14.05,8.03c-0.13,1.71-0.24,3.18-0.41,5.58c-1.49-1.46-2.34-2.29-3.42-3.35
		c-0.56,0.23-1.29,0.53-1.91,0.78c-0.47,2.23-0.91,4.29-1.33,6.26c-4.59,0.5-5.99-0.63-7.05-5.4c-1.65,2.37-1.65,2.37-7.12,4.02
		c1.88,3.54-2.99,5.63-1.21,9.36c-2.45,0.47-3.99,2.46-6.11,1.03c-2.31-1.55,0.19-3.72-0.65-5.96c-0.78,0.18-1.69,0.2-2.37,0.6
		c-0.83,0.49-1.36,1.5-2.19,1.96c-2.37,1.29-3.3,3.28-2.92,5.82c0.75,4.98-1.77,7.47-6.18,8.45c-1.78,4.55-1.78,4.55-4.58,3.23
		c0.55-1.55,1.11-3.12,2.08-5.84c-6.46,2.15-9.68,7.44-15.51,9.02c-1-0.64-2.35-1.51-4.08-2.62c-0.88,1.2-1.71,2.32-2.75,3.73
		c-1.02-0.76-2.1-1.56-3.73-2.78c-0.1,2.09-0.16,3.54-0.25,4.99c-0.23,3.67-0.77,4.05-4.68,3.3c-0.32-0.06-0.66-0.05-1.39-0.09
		c-1.25,2.75-3.48,4.75-6.68,5.88c-0.49-0.92-0.91-1.71-1.97-3.69c-0.69,1.56-1.16,2.62-1.6,3.63c-4.06-1.05-7.64-1.73-10.91,0.78
		c-0.44,0.34-1.31,0.23-1.96,0.16c-2.6-0.29-4.44,0.86-6.04,2.79c-0.95,1.15-2.05,2.22-3.25,3.09c-1.19,0.86-2.55,1.84-3.92,2
		c-1.92,0.22-4.06-0.82-5.84-0.33c-1.88,0.51-3.39,1.68-5.6,0.82c-0.94-0.37-2.58,0.25-3.55,0.92c-3.44,2.39-3.68,2.38-5.53-1.58
		c-0.14-0.29-0.31-0.57-0.66-1.2c-0.83,0.83-1.51,1.67-2.34,2.32c-1.42,1.1-2.91,2.86-4.43,2.93c-3.08,0.14-4.79,2.05-6.99,4
		c-2.81-1.15-5.28-0.2-7.4,2.31c-3.19-2.36-6.4-4.13-9.96-1.13c-1.17-0.6-2.18-1.12-3.12-1.6c-1.6,0.66-3.08,1.27-4.7,1.94
		c-1.01-1.22-1.81-2.18-2.83-3.42c-3.75,4.2-7.63,3.08-11.67,0.78c-1.69-0.96-3.52-1.26-5.7-0.98c-2.72,0.35-5.58-0.62-8.37-0.55
		c-2.72,0.07-5.42,0.72-8.15,2.01c-3.94-1.06-7.88-2.11-13.31-3.56c-3.5,0.89-8.51,1.23-12.86-3.12c-2.11,1.92-4.41,1.59-6.91,0.7
		c-3.39-1.2-7.11-1.47-9.92-4.14c-0.64-0.61-1.88-0.9-2.8-0.82c-4.75,0.42-7.95-1.79-10.14-5.89c-2.26-0.13-4.4-0.25-6.85-0.39
		c-0.91-4.02-4.93-4.36-7.81-5.96c-2.66-1.47-5.17-2.66-6.43-5.64c-0.43-1.02-1.44-1.8-2.18-2.69c-2.99-0.76-5.99-1.52-9.11-2.32
		c0.24-2.06,0.42-3.64,0.6-5.27c-1.9-0.31-3.95-0.1-5.17-1c-1.33-0.98-2.01-2.94-2.76-4.57c-2-4.35-5.51-7.99-10.43-10.47
		c0.39-1,0.79-2.02,1.26-3.23c-4.62-4.02-9.3-7.93-13.79-12.05c-3.88-3.56-7.97-6.8-12.28-9.83c-1.82-1.28-3.05-3.45-4.37-5.34
		c-1.21-1.73-2.18-3.64-3.66-6.16c0-0.41,0-1.68,0-2.85c-6.16-3.83-14.31-13.2-13.2-18.4c-3.24-1.1-5.62-2.97-6.11-6.84
		c-0.18-1.43-1.75-2.73-2.79-4c-1.96-2.4-3.99-4.75-6.61-7.84c-0.41-0.09-1.84-0.42-3.37-0.76c-2.2-5.85-4.39-11.71-6.62-17.56
		c-0.41-1.07-0.97-2.07-1.47-3.1c-0.79-1.65-2.14-3.26-2.25-4.95c-0.18-2.98-2.05-4.65-3.54-6.84c-2.48-3.65-4.4-7.72-4.74-12.28
		c-0.11-1.49-0.02-2.99-0.75-4.26c-1-2.49-2-4.99-3.06-7.62c-1.34-1.74-2.76-3.73-4.34-5.59c-1.42-1.68-3.15-2.97-4.55-4.83
		c-3.06-4.06-2-8.47-2.7-12.73c-0.86-5.21,0.59-10.73-3.11-15.64c-1.74-2.31-1.66-5.98-2.44-9.02c-0.36-1.43-0.42-3.14-1.27-4.22
		c-2.31-2.95-3.07-6.18-2.78-9.81c0.19-2.47-0.17-4.74-2.86-5.53c0-2.83,0.4-5.04-0.7-7.56c-0.95-2.16,0.33-5.3,0.65-8.23
		c-0.33-1.88-0.79-4.09-1.09-6.32c-0.4-2.95-1-5.91-0.93-8.86c0.11-4.79,0.73-9.57,1.07-14.36c0.19-2.73,0.5-5.48,0.34-8.2
		c-0.21-3.63,0.06-7.05,1.24-10.57c0.54-1.61-0.71-3.81-1.14-5.76c3.54-4.36,3.16-9.21,0.47-14.06c1.04-3.12,2.13-6.42,3.25-9.78
		c1.11-0.43,2.16-0.84,3.57-1.39c-1.04-1.62-1.97-3.09-3.01-4.71c0.57-0.89,0.91-1.98,1.64-2.46c4.97-3.24,5.99-8.05,5.35-13.41
		c-0.22-1.85-0.73-3.48,0.67-5.12c0.46-0.54,0.55-1.62,0.43-2.39c-0.65-4.24,1.86-7.33,4-10.39c1.2-1.72,2.1-3.26,2.07-5.39
		c-0.03-2.29,1.25-3.86,3.47-4.24c2.92-0.49,4.32-1.98,4.61-4.95c0.11-1.19,0.94-2.43,1.73-3.42c1.76-2.2,3.65-4.3,5.6-6.33
		c0.64-0.66,1.65-0.97,2.5-1.43c2.73-1.46,4.98-3.35,5.03-6.71c0.06-3.55,1.86-5.46,5.17-6.31c1.1-0.28,2.57-0.56,3.11-1.35
		c1.26-1.88,3.04-2.21,5.28-2.02c0.48-3.5,0.9-6.54,1.36-9.91c5.16-1.33,4.79-6.72,6.58-10.78c0.93-0.06,1.88-0.13,3.04-0.21
		c0.31-1.52,0.6-2.95,0.93-4.56c3.2-1.53,5.07-4.07,4.83-7.95c1.26-0.68,2.39-1.35,3.56-1.91c0.74-0.36,1.56-0.56,2.34-0.84
		c1.86-0.67,0.78-3.79,3.69-3.98c1.76-0.12,3.53-1.65,5.1-2.82c2.35-1.73,4.55-3.66,6.75-5.58c0.72-0.63,1.11-1.95,1.88-2.16
		c6.53-1.82,10.18-7.64,15.56-11.05c2.01-1.27,3.23-3.72,4.99-5.46c1.13-1.11,2.47-2.14,3.91-2.78c3.3-1.47,6.71-2.68,10.75-4.25
		c0.63,0.28,1.94,0.87,3.32,1.48c0.41-0.28,1.03-0.47,1.17-0.84c0.91-2.4,2.67-3.73,4.65-5.36c2.51-2.07,5.83-3.36,7.51-6.71
		c1.1-2.2,3.72-3.08,6.49-2.83c2.1,0.19,4.38,0.48,6.33-0.1c4.65-1.4,8.72,0.68,13.4,1.62c1.73,2.19,3.67,4.66,5.85,7.42
		c0.4-0.6,1.23-1.27,1.29-2.01c0.19-2.32,0.07-4.66,0.12-6.99c0.11-5.62,4.43-8.93,9.34-6.42c3.18,1.63,6.55,0.84,9.6,2.19
		c0.61,0.27,1.59-0.2,2.37-0.4c3.68-0.96,7.32-2.09,11.05-2.85c1.29-0.26,2.76,0.37,4.77,0.69c-1.1,2.32-1.91,4.03-2.85,6.02
		c1.54,0.61,3.07,1.22,5.25,2.09c-1.19,0.84-1.74,1.35-2.38,1.65c-0.73,0.34-1.54,0.49-2.47,0.77c-0.41,1.64-0.8,3.2-1.26,5.02
		c-5.31-0.2-9.97,4.21-15.6,1.33c-1.07,1.15-2.04,2.2-3.23,3.47c-0.71-1.01-1.34-1.91-2.17-3.09c-0.94,0.11-2.04,0.24-3.03,0.35
		c-1.73-1.28-3.4-2.52-5.38-3.99c-2.32,4.49-3.33,8.76-3.44,13.18c-4.68,0.3-4.68,0.3-8.04,3.84c-3.45-1.42,0.6-3.31-0.5-5.26
		c-0.54,0.14-1.55,0.12-1.76,0.51c-0.69,1.31-1.09,2.77-1.27,3.27c-2.3,2.05-3.93,3.51-6.22,5.56c-2.55,1.12-5.18-0.58-7.62-2.73
		c-3.54,6.72-6.76,13.26-12.97,17.85c-3.29-2.07-4.9-7.5-10.62-3.98c-0.14,1.21-0.58,2.97-0.48,4.7c0.15,2.63-0.74,4.69-2.97,5.82
		c-2.22,1.13-4.16,0.01-5.8-1.65c-0.31-0.31-0.85-0.4-1.92-0.87c0.13,1.89,0.23,3.38,0.35,5.17c-1.55,0.59-3.19,1.22-4.62,1.77
		c-0.29,3.14-0.56,6.05-0.86,9.38c-1.55-0.51-2.54-0.83-3.7-1.21c-2.13,2.5-3.79,5.43-7.29,6.49c-0.94,0.28-1.5,2.07-2.07,3.24
		c-1.07,2.22-2.01,4.49-2.73,6.11c-8.21,2.87-16.02,4.73-21.19,11.44c0.68,1.81,1.3,3.45,1.86,4.93c-5.43,5.56-5.43,5.56-10.47,5.36
		c-0.19,1.04-0.94,2.53-0.49,3.16c2.32,3.28,0.48,6.67,0.76,9.98c-2.52,2.45-5.83,4.2-6.2,8.15c-4.46,3.82-6.15,9.75-10.37,13.74
		c-1.97,1.86-2.04,4.42-0.7,5.84c4.11,4.38,1.53,7.87-0.79,11.56c-0.26,0.42-0.63,0.77-1.09,1.33c-3.67,0.16-7.03,4.01-11.32,0.68
		c-1.03,4.91,0.93,10.45-4.58,13.23c-0.07,1.55-0.14,2.97-0.22,4.5c-1.5,0.61-2.84,1.16-4.38,1.79c0,1.79,0,3.56,0,5.44
		c1.09,0.47,2.06,0.89,3.04,1.32c0,0.26,0.01,0.52,0.01,0.78c-2.3,0.4-4.6,0.8-7.29,1.27c0.45,1.19,0.53,2.32,1.14,2.87
		c4.07,3.64,3.17,7.89,1.98,12.39c-0.67,2.51-0.98,5.19-0.93,7.79c0.02,1.25,1.26,2.48,2.45,4.64c-1.25,0.93-2.95,2.18-5.06,3.73
		c0.67,2.94,1.31,5.75,2.09,9.18c-0.14,0.24-0.57,1.13-1.16,1.91c-1.98,2.63-1.73,5.45-0.12,7.93c1.06,1.63,1.61,3.12,1.7,5.02
		c0.06,1.25,0.81,2.45,1.13,3.71c0.28,1.09,0.65,2.25,0.54,3.33c-0.62,5.81,0.79,8.43,6.11,10.97c0.44,0.21,0.86,0.47,1.71,0.93
		c0,2.55,0,5.28,0,8.38c-1.05-0.35-1.99-0.66-3.23-1.08c0,2.01,0,3.75,0,5.66c1.22,0.21,2.14,0.37,2.94,0.5
		c3.55,4.46,0.38,9.37,0.9,14.18c4.34,1.88,7.3,4.68,6.78,9.78c-0.29,2.89-0.74,3.34-5.81,5.4c1.69,4.34,3.39,8.69,5.29,13.58
		c-0.22,0.49-0.75,1.65-1.39,3.06c3.23,1.55,4.46,4,3.95,7.35c-0.3,2.01,0.58,3.59,2.29,4.64c2.11,1.29,2.67,3.23,2.63,5.54
		c-0.09,5.55,1.06,6.95,6.31,7.92c0.63,0.12,1.23,0.41,2.14,0.72c0.2,4.24,2.16,7.48,6.25,9.28c-0.26,6.68,5.37,10.39,7.53,16.69
		c-0.13,0.35-0.55,1.5-1.03,2.8c2.32,1.59,4.46,3.06,6.59,4.52c-1.14,2.05-2.08,3.77-3.22,5.83c2.54,0.9,4.42,1.57,6.76,2.4
		c-1.12,1.66-1.83,2.72-2.61,3.87c5.56,4.43,11.07,8.94,14.57,15.48c-3.04,6.15-0.86,7.58,3.99,11.06c1.85,1.33,3.44,2.28,3.93,4.67
		c0.21,0.98,1.3,1.77,1.98,2.65c0.59,0.76,1.33,1.47,1.7,2.33c1.46,3.43,1.42,3.45,4.86,5.43c0,3.29,0,6.72,0,10.08
		c3.26,2.6,6.85,2.08,11.09,1.01c-2,5.12,0.66,8.04,4,10.34c2.23,1.54,3.41,3.03,2.37,5.74c-0.21,0.56-0.03,1.27-0.03,1.86
		c2.24-0.34,4.38-0.66,6.46-0.97c1.72,3.11,2.81,5.98,4.67,8.2c2.29,2.74,5.19,4.99,7.89,7.38c2.55,2.26,5.18,4.42,8.05,6.86
		c3.96-0.78,6.05,4.09,10.07,4.25c0.5,1.66,0.93,3.06,1.44,4.74c4.02,0.31,6.56,2.61,9.29,5.56c2.79,3.02,7.16,4.58,10.84,6.78
		c0.14,0.08,0.35,0.16,0.48,0.1c4.57-1.89,8.21,1.61,12.36,2.15c4.43,0.58,8.85,1.28,13.24,2.1c2.87,0.53,5.55,1.76,8.65,1.34
		c2.2-0.3,4.49,0.16,6.73-0.15c2.79,0.93,5.58,1.86,8.27,2.76c2.72-1.62,5.14-3.15,7.64-4.52c2.38-1.29,4.48-0.13,6.45,1.1
		c4.35-3.27,9.17-5.13,14.49-5.6c2.15-0.19,4.38,0.15,6.47-0.27c2.08-0.42,4.04-1.49,6.29-2.37c1.21-2.25,2.14-5.15,6.02-5.19
		c0.49,0.95,1.06,2.05,1.64,3.2c0.48,0,0.99,0.11,1.43-0.02c4.3-1.3,8.76-0.7,12.9,0.05c3.91,0.7,6.39,0.06,8.31-4.11
		c0.91,1.66,1.43,2.62,2.32,4.24c1.16-2.5,2.07-4.46,2.97-6.41c2.63-0.16,5.17,1.23,7.33-0.9c0.26-0.26,1.96,0.4,2.45,1.05
		c0.65,0.86,0.77,2.12,1.24,3.6c1.27-0.33,2.44-0.63,4.15-1.06c-1.38-1.77-2.44-3.14-3.72-4.78c2.52-1.62,5.15-2.94,7.31-4.81
		c2.35-2.04,4.91-3.21,7.89-3.9c1.56-0.36,3.29-1.1,4.35-2.22c2.38-2.51,5.62-3.21,8.26-4.88c1.03,0.92,1.84,1.65,2.3,2.06
		c3.97-3.5,7.63-6.79,11.38-9.97c0.7-0.6,1.78-0.75,2.82-1.17c0.94,1.1,1.78,2.09,2.62,3.07c4.49-1.25,5.16-7.29,10.72-7.91
		c0.45,0.23,1.42,0.75,2.69,1.41c0.35-1.55,0.66-2.93,1.02-4.54c1.56-0.55,3.1-1.08,4.97-1.74c0.11-0.67,0.25-1.58,0.28-1.73
		c3.06-2.8,5.65-5.17,8.89-8.13c-0.16,2.09-0.26,3.29-0.36,4.57c1.6,1.12,3.04,1.16,4.78-0.24c-1.04-2.1-2.03-4.13-3.04-6.17
		c0.54-1.7,2.33-2.29,2.66-4.34c0.36-2.23,2.42-4.23,3.86-6.24c1.24-1.73,7.5-5.81,9.87-6.58c0.52-1.98,1.18-4.02,1.55-6.1
		c0.43-2.41,1.32-4.29,3.46-5.76c1.08-0.74,1.39-2.52,2.23-3.7c3.93-5.51,7.92-10.98,11.91-16.5c-0.53-4.75,1.58-8.94,3.61-12.93
		c2.13-4.21,5.14-7.98,7.81-12.02c1.14,0.39,1.88,0.65,3.24,1.11c0.25-2.6,0.28-5.1,0.77-7.5c0.52-2.56,1.49-5.03,2.23-7.44
		c1.56-0.51,2.79-0.92,4.36-1.43c-0.48-1.32-0.9-2.47-1.31-3.58c4.01-2.49,4.46-2.28,6.53,3.08c1.81-0.85,2.2-2.46,2.16-4.09
		c-0.09-3.47,0.65-6.54,4.53-8.84c-2.33-0.6-3.7-0.94-5.07-1.3c-0.71-3.13,0.46-4.94,3.09-6.16c4.66-2.17,6.45-4.86,5.21-9.28
		c-0.93-3.33-0.19-6.18,0.71-9.29c0.94,0.36,1.82,0.69,3.11,1.18c0.08-1.47,0.14-2.67,0.22-4.29c1.07,0.26,2.06,0.5,3.15,0.77
		c1.32-1.33,1.72-2.72,1.58-4.81c-0.24-3.48-0.96-6.74-2.07-10.01c-0.68-2.01-0.96-4.19,0.42-6.27c2.3-0.25,3.01,1.07,3.12,2.94
		c0.12,2.17,0.83,3.84,3.17,4.47c0.44-2.75-1.37-9.05-3.42-11.85c1.27-0.46,2.47-0.9,3.7-1.36c-1.01-2.94-1.98-5.79-3.05-8.92
		c1.26-0.3,2.49-0.6,3.26-0.78c-1.53-2.86-3.12-5.82-4.84-9.02c4.15-2.28,5.44-5.71,5.67-9.67c0.89,3.55,1.78,7.1,2.58,10.29
		c-0.78,2.17-4.34,0.05-3.71,3.97c1.98,1.52,4.43,3.4,7.3,5.61c0.84-1.75,1.5-3.14,2.29-4.79c4.85,1.63,2.21,6.22,3.83,9.72
		c1.88-0.42,3.82-0.86,5.76-1.3c0.03-0.28,0.06-0.56,0.09-0.84c-1.13-0.43-2.26-0.86-3.48-1.33c-0.38-1.49-0.56-3.12-1.21-4.55
		c-0.8-1.79-1-3.41-0.29-5.27c0.83-2.19-0.43-3.92-1.18-5.97c-1.51-4.09-4.41-7.71-4.49-12.35c-0.02-1.26-0.59-2.52-0.95-3.77
		c-0.22-0.78-0.97-1.75-0.72-2.26c1.4-2.83-1.11-4.22-2.33-6.51c3.76-5.38,0.82-11.19,0.22-17.5c1.45,0.53,2.43,0.89,4.09,1.5
		c1.1-1.25,2.39-2.73,3.92-4.48c2.27,0.75,4.74,1.57,7.21,2.39c3.9-0.76,0.39-4.54,2.48-6.22c3.54,0.79,1.02,3.49,1.75,5.8
		c1,0.23,2.28,0.53,3.45,0.81c2.09-3.41-0.62-5.88-0.19-8.49c-7.89-5.01-4.27-12.23-4.17-19.25c-1.24-0.55-2.68-1.19-4.48-1.99
		c0.86-0.81,1.61-1.5,2.36-2.2c-2.51-2.61-2.51-2.61-6.77,0.8c-0.41-0.92-0.78-1.76-1.09-2.47c-2.68,1.28-5.44,2.59-8.61,4.1
		c-0.19-0.71-0.74-1.61-0.55-2.31c0.52-1.89,1.36-3.7,2.19-5.86c1.14,0.92,2.2,1.77,3.39,2.72c1.62-2.15,2.91-4.14,4.53-5.83
		c0.41-0.43,1.82,0.09,2.97,0.19c0.12,1.67,0.23,3.07,0.32,4.4c2.05,0.57,3.08-0.43,3.5-2.05c0.42-1.64-0.2-3.1-1.83-3.61
		c-3.16-0.98-3.79-3.41-3.87-6.26c-2.79-1.72-6.82-1.06-8.62-4.73c0.6-1.49,1.22-3.01,1.77-4.39c-0.75-4.37-6.67-5.1-6.83-9.67
		c3.55-1.99,5.9,3.62,9.86,0.52c-1.85-1.87-3.53-3.57-5.38-5.45c-1.28,0.56-2.43,1.07-4.09,1.8c-1.04-2.2-2.91-4.37-2.88-6.5
		c0.04-2.65-1.05-4.53-2.29-6.35c-3.08-4.47-4.93-9.27-5.41-14.7c-0.22-2.48-1.1-4.89-1.34-7.46c-2.29-2.85-5-5.54-2.77-9.16
		c-2.22-6.85-6.23-12.67-4.93-20.51c-1.86-0.56-3.8-1.14-5.41-1.62c-1.7-3.04-3.56-5.91-4.94-8.99c-0.86-1.92-1.3-4.14-1.39-6.25
		c-0.22-5.13-0.27-10.19-2.7-14.98c-1.45-2.87,0.63-4.98,2.66-6.88c1.72-1.62,3.48-1.61,5.48-0.6c2.86,1.45,3.64,2.73,3.31,5.96
		c-0.08,0.81-0.34,1.6-0.5,2.35c1.4,1.14,2.37,0.92,3.52-0.27c2.63-2.68,3.89-2.55,6.19,0.38c0.97,1.24,1.87,2.54,2.29,4.52
		c-1.24-0.38-2.49-0.75-3.73-1.13c-0.32,2.71-0.32,2.71,2.02,5.16c1.04-0.85,2.1-1.71,3.34-2.72c2.6,1.85,5.28,2.97,6.4,6.59
		c0.66,2.14,3.59,3.59,5.52,5.33c0.61,0.55,1.4,0.92,1.96,1.52c1.6,1.74,1.29,3.24-0.92,4.29c-0.71,0.34-1.56,0.39-2.63,0.63
		c0.42,2.18,0.79,4.14,1.26,6.58c2.05-1.65,1.01-5.18,4.65-4.73c0,4.95,0,9.97,0,14.99c2.8-2.71,2.84-6.17,2.88-10.46
		c2.26,2.7,3.82,4.57,5.83,6.96c-0.75,2.06-1.56,4.49-2.52,6.85c-1.08,2.64-0.52,4.84,1.82,6.41c0.83,0.55,1.69,1.05,2.51,1.61
		c0.64,0.44,1.25,0.92,2.54,1.89c-0.22-3.46-5.03-4.77-2.31-8.5c3.95,3.77,5.58,8.91,8.84,12.73c-0.96,3.18-2.53,6.14-2.57,9.12
		c-0.04,3,1.44,6.02,2.39,9.49c0.58,0.25,1.62,0.69,3.23,1.39c0.36,2.58,0.74,5.5,1.17,8.41c0.19,1.29,0.23,2.7,0.8,3.82
		c2.57,5.06,3.7,10.56,5.24,15.95c0.57,1.99,1.67,3.82,2.67,6.03c1.55-1.09,2.73-1.92,4.29-3.03c2.29,5.48-0.13,10.04-2.12,14.97
		c1.53,0.68,2.96,1.3,4.65,2.05c0,1.6,0,3.19,0,5.11c-2.48,0.56-4.8,1.09-7.49,1.7c0.46,1.44,0.78,2.47,1.14,3.62
		c-0.92,0.69-1.97,1.48-2.95,2.22c1.37,2.27,2.44,4.02,3.85,6.35c1.9-0.46,4.03-0.97,6.75-1.63c0,2.37,0.13,4.64-0.04,6.89
		c-0.13,1.81-1.28,3.43-3.07,3.34c-1.19-0.05-2.46-1.33-3.43-2.32c-0.62-0.64-0.77-1.74-1.2-2.8c-2.56,4.11-2.52,4.35,0.82,6.58
		c2.56,1.7,3.41,3.94,2.49,6.78c-0.3,0.94-0.79,1.83-1.34,3.06c4.04,5.37,4.26,12.07,4.36,18.37c0.06,4.09-0.04,7.74,2.08,11.36
		c0.66,1.13,0.29,2.87,0.4,4.58c-1.79,0.88-3.4,1.67-5.17,2.54c-0.7,1.84-1.45,3.81-2.21,5.79c0.41,0.87,0.82,1.75,1.23,2.62
		c-0.93,1.2-1.74,2.24-2.51,3.22c1.58,4.69,1.48,4.87-3.2,5.15c0,1.09-0.11,2.22,0.03,3.32c0.12,0.95,0.52,1.87,1.04,3.61
		c-1.4-1.12-2.19-1.75-3-2.4c-4.17,1.68-0.61,4.09-0.48,6.9c-2.32-1.93-4.08-3.78-6.74-3.06c0.62-1.13,1-2.53,1.91-3.34
		c2.59-2.31,2.53-4.84,1.13-7.63c-0.58-1.17-1.27-2.29-1.85-3.33c-3.91,0.03-6.65-1.15-7.31-5.27c-0.27-1.69-1.23-2.69-3.64-1.83
		c0.2,2.25,0.41,4.59,0.65,7.35c-2.21,0.97-5.06,1.79-3.44,5.29c2.99-1.29,5.99-2.58,9.01-3.89c2.41,1.34,3.09,3.26,2,5.84
		c-0.7,1.66-1.35,3.34-1.91,5.04c-0.23,0.69-0.16,1.47-0.25,2.49C912.17,576.41,913.28,576.18,914.38,575.94z M913.73,517.26
		c-1.57-0.2-3.1-0.39-4.46-0.56c0.44,2.86,0.83,5.35,1.24,7.99c-5.37,1.83-3.39,6.74-5.02,10.18c1.36-0.81,2.73-1.61,4.08-2.41
		c1.5,1.49,2.77,3.49,5.68,1.58c-1.52-0.81-2.7-1.45-3.96-2.12c0.57-3.33,0.63-6.54,3.71-8.2
		C914.58,521.6,914.22,519.74,913.73,517.26z M886.92,594.74c-0.66,0.31-1.22,0.77-1.81,0.82c-3.49,0.29-3.48,0.26-3.31,3.36
		c0.21,4.04,0.38,8.08,0.64,12.11c0.05,0.82,0.43,1.63,0.66,2.44c0.24-0.03,0.47-0.05,0.71-0.08c0.66-3.97,1.32-7.93,1.95-11.72
		c1.19-0.69,2.15-1.24,3.06-1.77C888.17,598.12,887.61,596.61,886.92,594.74z M903.38,542.56c-1.31-3.13-2.51-5.97-3.71-8.83
		c0.41-0.83,0.82-1.67,1.34-2.74c-1.24-0.55-2.19-0.98-3.17-1.41c-0.5,3.59-0.98,6.83-1.4,10.07c-0.31,2.38,0.43,4.22,3.21,5.18
		C900.73,544.18,901.94,543.44,903.38,542.56z M1164.64,773.79c0.81,1.19,1.62,2.38,2.17,3.19c2.34,0.5,1.78-2.7,4.12-1.89
		c0.93,0.32,2.72-0.97,3.72-1.94c1.23-1.18,0.77-2.4-1.84-3.42c-0.54,1.08-1.27,2.53-2.13,4.26c-2.04-3.58-0.36-4.88,2.12-6.14
		c-4.34-3.31-3.53-7.99-4.11-12.27c-0.29-2.19,0.62-4.71-1.82-6.65c-1.07,1-2.1,1.96-3.2,3c-2.45-0.96-3.36-2.44-2.15-4.68
		c0.92-1.7,2.15-3.24,3.62-5.41c-1.94-0.1-3.29-0.18-4.59-0.25c-1.16-3.88-1.16-3.88,0.07-8.59c-1.96-2.56-3.09-5.31,0.49-7.9
		c0.46-0.33,0.06-1.85,0.06-3.17c4.18-1.14,5.45-4.47,5.55-8.55c0.05-1.91,0.11-1.9,2.11-4.06c1.45,1.14-1.79,3.79,1.39,4.37
		c2.06-2.77,2.06-2.77,0.93-7.16c-1.6-0.6-3.27-1.23-5.27-1.98c0.37-1.08,0.67-1.95,1.06-3.08c-0.89-0.55-1.91-1.19-3.24-2.02
		c2.72-4.33,2.54-8.75,1.08-13.53c0.84-0.99,1.78-2.09,2.66-3.12c0.25-2.79,0.49-5.52,0.73-8.24c0.32-0.06,0.65-0.12,0.97-0.18
		c0.81,1.03,1.63,2.06,2.51,3.19c0.4-2.2,0.78-4.28,1.27-6.96c-1.56-0.84-2.61-2.55-2.39-5.18c0.14-1.69-0.28-3.69-1.13-5.15
		c-2.58-4.45-2.53-7.4,0.97-11.97c-0.46-0.82-0.99-1.77-1.68-3.01c0.76-0.67,1.57-1.38,2.4-2.1c-0.08-0.24-0.08-0.68-0.27-0.81
		c-3.87-2.45-4.08-3.55-1.28-6.82c0.64-0.75,1.27-1.52,1.88-2.3c0.09-0.12,0.07-0.32,0.19-0.87c-1.89-2.13-1.76-4.87-0.65-7.54
		c0.35-0.84,1.51-1.33,2.83-2.41c0.64,2.74,1.1,4.71,1.78,7.59c1.5-2.34,2.01-4,1.89-6.01c-0.13-2.11,0.09-4.24,0.08-6.37
		c-0.01-1.93,0.19-3.98-1.83-5.33c-2.44,2.07,0.27,4.49-0.57,6.35c-1.6,2.08-2.76,0.03-4.37-0.17c-0.73,1.27-1.5,2.63-2.31,4.05
		c-3.28-2.91-3.28-2.91-1.54-7.43c-1.2-3.11-2.31-5.96-3.58-9.24c2.31-0.59,4.12-1.06,6.11-1.57c-0.2-4.17-0.64-8.04-3.55-11.48
		c-0.61-0.16-1.63-0.42-2.89-0.74c1.26-2.52,2.36-4.7,3.4-6.77c-2.55-5.27-2.51-7.02,0.48-9.33c0.24,1.56,0.44,2.88,0.68,4.49
		c1.03,0,2.09,0,3.27,0c-0.28,0.94-0.56,1.9-1.07,3.61c1.68-0.79,2.65-1.25,3.98-1.88c-1.83-6.59-8.04-8.01-12.6-10.96
		c0.74-3.51,0.83-6.92,2.23-9.65c1.3-2.53,4.01-4.33,6.26-6.63c-3.75-0.54-5.35,1.74-6.73,4.31c-1.24,0-2.36,0-3.67,0
		c-0.69,1.21-1.41,2.47-2.5,4.39c0-3.76-0.32-6.91,0.1-9.95c0.34-2.51,1.16-4.87-1.79-7.01c2.24-1.06,3.66-1.73,5.43-2.57
		c-0.92-1.17-1.79-2.27-2.82-3.58c0.98-3.35,1.66-6.85-3.31-8.54c0.4-3.37,0.78-6.58,1.21-10.28c-0.42-0.24-1.39-0.79-2.67-1.53
		c0.73-4.08-3.94-7.54-1.05-12.39c-2.16-0.48-3.85-0.85-5.58-1.23c-1.17-2.01-0.17-3.51,0.9-5.02c2.6-0.55,5.15-1.1,8.09-1.72
		c-0.57-1.66-1.02-2.97-1.56-4.56c-1.38,0.77-2.33,1.38-3.34,1.85c-3.68,1.72-7.18-0.12-7.64-4.16c-0.22-1.96-0.04-3.96-0.04-6.28
		c-0.98,0.68-1.59,1.11-2.62,1.83c-0.38-3.32-1.88-6.1-0.05-9.51c1.34-2.51,0.98-5.61-0.96-8.45c-0.28,2.31-0.56,4.62-0.89,7.36
		c-2.57-1.11-4.04-2.48-4.56-5.05c-0.31-1.53-0.97-3.25-2.04-4.28c-1.59-1.52-1.77-3.05-1.2-4.69c-2.16-2.79-4.44-5.21-6.09-8.01
		c-1.66-2.82-2.68-6.01-4.12-9.37c-1.12,0.1-2.37,0.21-3.52,0.31c-2.49-2.59,0.96-4.24,0.82-6.39c-2.36-1.48-2.36-1.48-5.23,1.13
		c-1.91-1-3.85-2.29-5.97-3.06c-2.92-1.05-5.63-2.76-9.04-2.49c-1.48,0.12-3.06-0.97-4.67-1.54c-1.86,1.16-3.79,2.36-4.77,2.96
		c-3.84-0.56-6.58-1.09-9.34-1.29c-1.05-0.08-2.39,0.34-3.19,1.02c-2.28,1.91-4.93,1.85-7.42,1.33c-2.21-0.47-3.87-0.16-5.55,1.18
		c-0.64,0.51-1.42,0.93-2.2,1.15c-6.72,1.88-10.51,7.1-14.45,12.28c-2.36,3.1-5.14,5.89-8.07,9.19c0.23,2.58-1.41,5.29-2.94,7.99
		c-0.26,0.47-1.41,0.43-2.71,0.78c0.25-3.11,0.46-5.77,0.74-9.24c-5.55,3.23-5.5,8.93-8.46,12.61c1.27,2.52,2.48,4.95,3.74,7.45
		c-2.02,1.01-3.55,1.77-5.69,2.84c1.71,1.43,2.88,2.41,4.3,3.6c-1.42,1.19-2.77,2.32-4.08,3.43c0.06,5.67,0.05,11.25-2.49,16.23
		c0.04,5.36,1.71,10.65-0.51,16.03c-2.42-1.73-2.62-1.96-4.4-5.2c-0.27,4.77-0.49,8.53-0.72,12.62c0.53,0.55,1.31,1.38,2.07,2.17
		c-2.48,4.72,0.06,9.81-1.5,14.49c2.16,4.49-1.52,9.89,2.16,14.13c-1.6,6.1,2.09,12.2-0.01,18.54c-1.19-0.13-2.28-0.25-3.81-0.41
		c0.79,1.22,1.44,2.24,2.29,3.55c-4.34,4.4-1.99,9.12-0.09,14.15c3.37,0.78,4.09,3.21,4.43,6.81c0.67,7.03,2.35,13.97,3.62,20.95
		c0.06,0.33,0.2,0.65,0.19,0.98c-0.1,7.41-0.69,14.8-0.12,22.24c0.23,3.05-2.36,5.02-4.45,6.92c-2.06,1.87-3.03,3.93-1.87,6.63
		c0.11,0.26,0.48,0.42,0.94,0.8c2.54-1.54,0.86-6.14,4.99-6.83c0.36,1.48,2.19,2.67,0.29,4.6c-1.27,1.29-0.68,2.71,0.16,4.09
		c3.03,5.01,2.93,6.65-0.52,11.4c-0.07,0.09,0.04,0.31,0.14,0.9c1.03-0.26,2.02-0.52,3.25-0.83c0.07,1.35,0.25,2.66,0.2,3.96
		c-0.3,7.72-0.47,15.45-1.07,23.15c-0.21,2.7-1.36,5.37-2.31,7.97c-1.18,3.25-2.97,6.43,0.56,10.13c0.51-2.05,0.91-3.65,1.46-5.84
		c1.86,2.51,1.26,4.74,1.05,7.17c-1.46,0.39-2.85,0.76-4.02,1.08c-1.39,2.33,0.21,3.65,1.1,5.19c0.9,1.57,1.7,3.2,2.55,4.81
		c-2.09,0.72-4.1,1.4-6.08,2.08c-0.45,5.43,2.77,7.31,7.21,8.2c0.17,4.03,2.35,7.67,0.6,11.75c-0.92,2.16-2.35,2.91-4.4,3.07
		c-1.43-2.59,1.43-3.23,1.96-5.97c-0.75-0.6-1.99-1.58-3.46-2.75c-1.2,1.09-2.13,1.93-2.48,2.25c0.58,5.32,1.05,9.95,1.6,14.57
		c0.11,0.94,0.36,1.91,0.76,2.76c1.46,3.08,1.66,5.97-0.66,8.81c-0.76,0.93-1.06,2.23-1.73,3.72c1.88,0.61,3.23,1.05,4.79,1.56
		c-0.16,2-0.33,4.08-0.49,6.16c0.24,0.17,0.47,0.35,0.71,0.52c-0.08-1.13-0.16-2.26-0.25-3.39c4.45,4.59,4.11,6.01-0.6,9.42
		c1.02,2.23,2.09,4.55,3.41,7.43c-3.57-0.3-4.34-3.44-6.75-4.23c-3.34,2.32,0.38,3.19,1.31,4.97c-2.56,0.42-4.86,0.79-7.33,1.19
		c1.16,4.03,3.98,0.72,5.85,2.37c0,0.89,0,2.12,0,3.09c0.66,2.26,4.66,2.25,3.27,5.12c-0.52,1.07-2.59,1.38-4.08,2.1
		c-0.84,1.87-0.05,2.99,2.25,3.59c0.75-0.87,1.57-1.81,2.32-2.67c3.6-0.25,1.67,2.53,2.37,3.97c1.36,0.61,2.8,1.26,3.68,1.65
		c-0.5,3.78-0.94,7.08-1.41,10.66c-1.34-0.33-2.39-1.42-2.61-3.14c-0.42-3.2-2.72-4.67-5.33-6.06c0.72,2.84,3.4,5.07,2.2,8.36
		c-1.28,3.52-4.31,4.22-7.46,4.68c-0.09,3.07,1.75,4.38,4.01,5.3c2.08,0.85,4.19,1.63,6.1,2.37c0.05,3.51-2.68,2.06-3.97,2.75
		c-0.93,3.81,3.04,2.35,4.21,4.55c-1.07,1.1-2.26,2.32-3.48,3.58c-2.88-1.37-3.91-3.54-4.37-6.07c-0.3-1.64-0.86-2.88-3.2-2.61
		c-0.47,1.19-0.98,2.51-1.32,3.38c-3.45,1.94-6.51,3.66-9.96,5.6c-0.82-1.84-1.47-3.29-2.12-4.73c-0.31-0.03-0.75-0.2-0.91-0.06
		c-3.61,3.06-3.6,3.06-7.3,0.29c-1.59-1.19-3.22-2.33-4.95-3.57c-1.13,0.5-2.27,1.02-3.58,1.6c-0.19-0.76-0.56-1.38-0.39-1.64
		c2.02-3.05,2.33-6.12,0.44-9.16c-1.23-0.59-2.38-1.13-3.76-1.79c0.45-1.1,0.8-1.95,1.25-3.07c1.28,0.42,2.31,0.76,3.79,1.25
		c-0.46-4.19-0.25-8.28-3.14-11.95c0.87-0.72,1.58-1.31,2.31-1.92c-0.29-1.15-1.18-2.6-0.8-3.55c1.54-3.88-0.21-6.37-3-8.36
		c0.09-2.04,1.43-2.16,2.74-2.58c3.05-0.96,3.61-2.38,2.09-5.17c-1.27-2.32-2.72-4.55-4.05-6.73c1.96-5.97,2.5-11.84,0.5-17.76
		c-0.58-1.72-0.75-3.2,1.33-4.09c1.25,4.23,1.25,4.23,4.24,3.81c0.22-2.24,0.01-4.62,0.79-6.63c0.74-1.92,2.5-3.44,3.6-4.85
		c-0.2-3.13-0.18-5.96-0.63-8.71c-0.43-2.66,3.44-4.45,1.08-7.72c-0.7,0.77-1.64,1.34-1.81,2.09c-0.56,2.41-0.79,4.9-1.24,7.34
		c-0.36,1.95-0.69,3.92-1.34,5.78c-0.49,1.4-1.65,2.02-3.05,1.19c0.12-2.99,0.57-5.89,0.24-8.7c-0.32-2.75-1.45-5.4-2.19-7.99
		c1.13-1.27,2.36-2.4,3.29-3.73c3.02-4.29,2.9-5.85-0.46-10.07c-2.22-2.79-2.06-4.4,0.9-8.38c3.05,1.09,0.59,4.34,2.5,6.13
		c3.54-1.4,0.02-4.87,2.47-6.65c-1.74-0.76-2.9-1.28-4.19-1.84c-0.17-4.03-1-8.02,1.24-10.67c0-3.99,0-7.08,0-10.48
		c-0.64-0.29-2.02-0.52-2.78-1.33c-1.11-1.18,0.23-2.35,0.55-3.57c0.64-2.41,0-5.22,2.94-6.84c-1.01-1.46-1.84-2.65-2.7-3.89
		c0.45-3.61,0.24-7.47,4.46-10.58c-2.12-0.18-3.15-0.27-4.53-0.39c-0.06-1.18-0.13-2.41-0.19-3.67c0.73-0.25,1.21-0.6,1.62-0.53
		c1.83,0.35,3.68,0.24,3.55-2.04c-0.12-2.31-1.95-2.28-3.75-1.61c-0.26,0.1-0.62-0.08-1.21-0.17c-2.81-4.04,2.3-7.25,1.48-11.1
		c-0.61-1.32-1.21-2.65-2.07-4.52c1.84-1.17,3.57-2.26,5.62-3.55c-1.18-0.68-2.34-1.36-3.84-2.22c-0.97-6.69,1.39-13.33,1.07-20.31
		c1.75-0.11,2.94-0.19,4.55-0.3c-0.5-1.16-0.62-2.29-1.15-2.53c-3.1-1.39-2.92-4.01-3.05-6.74c-0.26-5.2-0.87-10.38-0.36-15.6
		c0.06-0.59-0.19-1.35-0.55-1.83c-1.47-1.96-1.31-4.06-0.69-6.19c1.02-3.49,0.64-6.78-0.61-10.22c-0.93-2.56-0.89-5.45-1.42-8.17
		c-0.24-1.25-0.8-2.44-1.31-3.93c0.65-0.61,1.36-1.27,2.36-2.21c-0.3-0.53-0.67-1.17-1.03-1.82c2.08-4.54,2.54-9.14,0.52-13.85
		c-0.25-0.58-0.46-1.26-0.41-1.87c0.23-3.13,0.55-6.25,0.84-9.43c0.62-0.13,1.22-0.25,2.28-0.47c-2.41-2.35-1.37-4.49,0.5-6.61
		c-1.98-3.33-2.73-6.65-1.47-10.45c0.5-1.51-0.12-3.69-0.87-5.26c-2.07-4.3-2.46-8.59-1.95-13.35c0.54-5.08-0.11-10.28-0.2-15.43
		c-0.02-1.13,0.19-2.27,0.2-3.4c0.01-1.32,0.43-2.99-0.2-3.9c-3.22-4.57-1.26-8.43,1.37-12.43c-0.63-1.63-1.29-3.32-1.99-5.14
		c0.66-1.26,1.34-2.55,2.1-3.98c-3.28-0.89-3.91-3.72-4.71-6.17c-1.07-3.27-1.68-6.69-2.5-10.05c-0.12-0.48-0.23-1-0.48-1.41
		c-3.62-5.89-3.05-11.91-0.84-18.09c0.46-1.3,0.62-3.21-0.02-4.3c-1.87-3.22-0.64-6.08,0.34-9.05c0.39-1.18,1.65-2.3-0.13-3.85
		c-1,0.8-2.06,1.64-3.23,2.57c-1.92-1.42-1.58-2.81-0.57-4.38c0.78-1.23,1.58-2.49,2.08-3.85c1.61-4.33,4.17-4.97,7.69-1.83
		c0.23,0.2,0.57,0.27,1.29,0.58c0.17-0.94,0.4-1.77,0.46-2.62c0.03-0.47-0.3-0.96-0.31-1.45c-0.04-1.93-0.74-4.18,1.74-5.18
		c1.67-0.67,4.46,1.08,5.44,3.46c0.8,1.95,1.07,4.05,3.4,5.12c0.75,0.34,1.2,2.02,1.23,3.1c0.14,4.82,0.81,9.8-0.1,14.44
		c-0.96,4.94-0.85,9.78-0.74,14.66c0.08,3.61,0.73,7.21,1.19,11.41c1.22-1.99-0.02-4.71,2.67-5.2c2.46,2.32,2.79,3,0.91,5.1
		c-1.83,2.04-1.89,3.83-1.19,6.34c0.99,3.55,1.33,7.27,2,11.23c1.76,1.53,3.89,2.42,6.91,1.55c-0.98-1.03-1.74-1.83-2.58-2.71
		c0.99-2.46,1.95-4.86,2.79-6.93c2.98-0.37,5.64-0.7,8.29-1.02c0.05-0.3,0.1-0.59,0.14-0.89c1.9,1.24,3.81,2.48,5.32,3.47
		c1.12,3.42-1.4,4.19-3.19,5.74c0.42,0.83,0.83,1.63,1.61,3.16c1.59-2.61,2.84-4.66,4.14-6.78c1.77-0.48,3.61-0.98,5.86-1.59
		c-0.74-2.15-1.31-3.82-2-5.83c0.55-0.74,1.15-1.7,1.89-2.54c2.71-3.11,2.45-3.24,0.6-6.85c-1.31-2.55-1.83-5.57-2.37-8.44
		c-0.3-1.57,0.52-3.14,2.39-3.14c1.86,0,2.43,1.49,2.48,3.13c0.06,1.66-0.09,3.35,0.13,4.99c0.22,1.63,0.79,3.21,1.24,4.96
		c0.96,0.39,1.95,0.8,2.99,1.23c-4.75,6.92-5.05,8.26-2.5,13.36c-0.22-5.67,3.72-8.8,5.28-13.05c0.78-2.13,1.37-4.09-0.11-6.14
		c-1.84-0.11-3.67-0.23-5.7-0.35c0.05-2.6,0.67-4.5,2.51-5.07c3.18-0.98,3.93-3.24,4.17-6.06c0.05-0.63,0.31-1.23,0.51-1.99
		c5.04-0.43,6.93,5.63,12.15,4.95c0.18-0.3,0.65-1.12,1.17-2.03c-1.23-0.93-2.3-1.75-3.39-2.58c2.65-1.75,5.01-3.31,7.83-5.17
		c1.07,0.78,2.59,1.89,4.11,3c1.69-2.43-1.02-3.75-1.08-5.62c1.04-2.07,2.54-2.14,4.02-0.77c0.94,0.87,1.49,2.17,2.27,3.23
		c0.93,1.27,1.91,2.49,3.23,4.19c1.52-2.44,2.62-4.22,3.74-6.01c3.48,0.18,3.03,3.48,4.29,5.81c2.11-1.5,3.89-2.77,5.84-4.16
		c0-2.08-6.45-2.04-1.71-6.11c2.17,2.22,4.3,4.4,6.88,7.04c1.72-1.13,3.56-2.34,5.79-3.8c1.43,0,3.4,0,5.27,0
		c1.91,1.36-0.92,4.92,2.72,5.19c2.37-0.85,0.28-5.49,4.58-5.04c0.45,1.53,0.93,3.19,1.43,4.86c3.65-1.46,6.8,2.08,10.57-0.16
		c0,2.47-3.56,3.28-1.3,5.76c2.72-1.4,4.91-4.56,9.01-3.58c0.16,1.33,0.34,2.82,0.52,4.26c3.07,0.16,1.83-2.85,3.48-4
		c0.74,2.92,1.43,5.63,2.19,8.62c1.68,0.29,3.52,0.61,5.36,0.92c-0.01,0.33-0.02,0.66-0.03,1c-1.3,0.33-2.59,0.67-4,1.03
		c-0.41,2.32,1.01,3.73,2.42,5.38c2.57-0.36,5.15-0.72,7.66-1.07c3.07,2.67-0.12,3.98-1.28,5.7c1.67,1.62,4.78,0.1,5.59,3.26
		c-0.45,0.97-1.01,2.19-1.94,4.22c2.59-0.61,4.35-1.03,6.26-1.49c-0.35,3.09-2.96,2.47-4.65,3.5c-0.33,6.36,6.16,5.3,9.58,8.57
		c-0.29,2.41-0.74,5.14-0.9,7.9c-0.07,1.06,0.3,2.27,0.85,3.19c0.27,0.45,1.4,0.39,2.68,0.68c0-2.37,0-4.33,0-6.28
		c0.3-0.13,0.61-0.26,0.91-0.38c1.49,1.6,2.99,3.2,4.76,5.09c-1.53,1.15-2.64,1.98-3.79,2.85c1.45,3.34,2.89,6.65,4.41,10.15
		c-0.55,1.13-1.11,2.3-1.68,3.48c1.58,7.07,1.88,7.38,6.02,6.09c1.03-2.01-1.71-4.43,1.09-6.88c0.68,3.73,1.28,7.04,2.02,11.13
		c0.44,0.48,1.42,1.56,1.67,1.84c1.01,6.74,1.88,12.5,2.82,18.77c1.19,0.59,2.93,1.45,4.5,2.23c0,3.71,0,7.09,0,10.59
		c1.19,2.18,5.08,1.78,5.48,5.18c-2.86,1.3-6.81,0.12-8.45,3.74c1.78,2.58,3.88,0.02,5.65,0.77c0.5,3.25,0.5,3.25-5.29,5.65
		c2.77,1.16,2.77,1.16,8.26-1.42c-0.69,1.72-1.21,3.01-1.87,4.66c0.72,1.75,2.24,3.93-0.44,6.13c-1.08-1.15-2.2-2.34-3.32-3.54
		c0.04,2.73,1.12,4.67,3.45,6.07c1.44-0.74,2.9-1.49,4.66-2.39c0.54,0.48,1.23,1.08,2.23,1.95c-1.45,0.99-2.59,1.76-3.6,2.45
		c1.25,3.35,2.41,6.5,3.58,9.64c-0.23,0.12-0.47,0.24-0.7,0.35c0.86,0.68,1.72,1.37,2.83,2.25c-1.26,1.94-2.42,3.72-3.8,5.83
		c1.32,2.88-0.6,7.1,3.16,9.49c-0.26,1.24-0.82,2.45-0.72,3.61c0.49,5.41,0.56,5.4-3.99,8.4c0.11,2.08,0.22,4.19,0.35,6.29
		c0.12,2.11,0.27,4.21,0.39,6.2c2.82-0.2,5.16-0.36,7.4-0.51c2.59,5.06,2.73,6.13,1.44,10.99c-3.58-0.22-5.1-4.85-9.33-4.36
		c-0.84,1.96-1.7,3.97-2.95,6.87c2.82-1.54,4.94-3.32,7.49-0.84c-1.46,2.74-1.09,5.39,1.07,7.91c0.79,0.92,1.18,2.3,1.45,3.54
		c0.61,2.72,1.02,5.48,1.62,8.79c-2.16,0-3.95,0-6.28,0c1.37-3.65,3.05-6.9,0.08-10.43c-0.98,0.71-2.25,1.14-2.65,1.98
		c-3.32,6.95-2.78,14.06-0.25,21.27c0.32-0.84,0.63-1.69,1.06-2.83c0.93,0,1.96,0,3.31,0c-1.37-1.95-2.49-3.55-3.79-5.4
		c0.84-1.03,1.62-2,2.4-2.95c0.75,0.29,1.38,0.33,1.62,0.66c0.78,1.03,2.08,2.24,1.98,3.26c-0.44,4.25,1.99,8.58-0.53,12.79
		c-0.57,0.94-0.61,3.08,0.04,3.72c2.85,2.8,2.7,6.71,4.19,9.98c0.26,0.58,0.46,1.18,0.73,1.89c1.76-0.79,3.19-3.35,5.33-0.43
		c-0.18,1.22-0.73,2.7-0.52,4.07c0.2,1.35,1.15,2.59,2.05,4.43c-1.2,0-1.78-0.03-2.37,0.01c-4.23,0.28-6.27,2.86-5.29,6.88
		c0.38,1.58,1.17,3.06,1.66,4.62c0.38,1.22,0.57,2.51,0.87,3.87c-1.4,1.01-2.57,1.84-4.05,2.9c-0.35-0.9-0.84-1.52-0.73-2
		c0.41-1.74,2.74-3.15,0.4-5.8c-0.46,3.11-4.88,3.84-2.97,7.65c-1.45,1.14-2.7,2.13-4,3.15c-2.06-3.05,0.82-4.39,1.91-6.61
		c-0.89-0.98-1.75-1.92-2.84-3.11c-1.01,3.29-1.81,5.87-2.75,8.93c0.35,2.64,3.29,2.69,5.5,3.65c0.51,3.54,0.99,6.93,1.49,10.43
		c-1.81,0.69-3.16,1.2-4.44,1.69c0.02,4.91,0.02,4.91,3,6.52c0.19-1.53,0.36-2.98,0.53-4.37c3.45-0.93,3.98-0.85,4.6,1.53
		c0.69,2.68,1.02,5.46,1.49,8.1c-1.41,1.09-2.41,1.86-3.22,2.49c-0.48,3.94,4.68,5.29,3.51,9.14c-0.3,0.2-0.64,0.59-0.83,0.52
		c-3.76-1.29-6.49-6.84-4.79-10.15c1.05-2.04,1.32-3.65-1.1-5.74c-0.69,2.48-1.15,4.63-1.9,6.66c-0.73,1.98-1.77,3.84-2.9,6.23
		c1.7-0.1,2.93-0.16,4.49-0.25c0.05,0.74,0.1,1.49,0.16,2.57c-1.6,0.12-2.96,0.22-4.37,0.33c0.61,2.37,0.61,2.37,4.89,2.2
		c-0.15,0.96-0.2,1.86-0.44,2.71c-0.27,0.95-0.72,1.85-1.17,2.95c-0.84-0.21-1.7-0.43-3.04-0.76c-0.45,2.51-0.88,4.87-1.32,7.32
		c3.75,1.69,3.66-2.58,5.87-3.49c1.26,1.56,1.08,3.21,0.25,4.63c-2.38,4.1-1.51,8.42-0.63,12.52c0.9,4.18,1.78,8.02-0.89,11.92
		c-0.76,1.11-0.62,2.86-0.84,4.32c-0.32,2.12-0.44,4.29-0.94,6.37c-1.18,4.86,0.2,7.1,5.95,8.54c0.52-1.75,1.05-3.53,1.6-5.38
		c2.95,2.46,2.98,2.92,0.62,7.76c0.18,0.47,0.36,1.11,0.66,1.68c0.29,0.57,0.69,1.09,1.16,1.81c1.11-0.43,2.11-0.83,3.19-1.25
		c0.28,0.66,0.71,1.18,0.6,1.53c-0.48,1.51-0.88,3.14-1.76,4.42c-1.31,1.92-1.79,3.73,0.15,5.28c2.68,2.15,1.82,4.76,1.2,7.28
		c-0.35,1.42-1.2,2.74-1.91,4.06c-1.68,3.13-2.69,6.4-2.61,10.02c0.03,1.15-0.65,2.32-1.19,4.08c-3.35-2.48-6.18-1.95-9.66,0.63
		c0.46-1.92,0.62-2.74,0.85-3.55c0.23-0.81,0.53-1.6,0.99-2.94c-2.9,1.88-5.2,3.36-7.49,4.84c-2.62-1.62-4.98-3.08-7.52-4.66
		c-1.3,1.47-0.93,4.73-4.38,3.22c-0.08-1.01-0.17-2.24-0.27-3.57c-1.01-1.17-2.09-2.42-3.17-3.68c0.43-6.74,4.98-11.6,7.56-17.34
		c-1.9,0.2-1.9,0.2-4.92,4.27c-1.97-0.77-3.98-1.55-5.64-2.2c-5.49,4.38-3.65,9.2-2.52,14.13c-1.15-1.03-2.29-2.06-3.6-3.23
		c0.63-3.42,1.35-6.8,1.85-10.22c0.5-3.44-1.6-6.23-2.88-9.33c0.97-1.42,1.9-2.77,2.99-4.37c-1.49-2.8,1.37-6.35-1.28-9.24
		c2.73-4.89-1.03-9.81,0.13-14.9c0.72-3.17-0.62-6.84-1.13-10.26c-0.39-2.63-0.18-4.96,2.38-6.47L1164.64,773.79z M995.95,452.54
		c-3.91,0.54-3.24,3.06-3.25,5.1c-0.01,13.81,0.04,27.63,0.05,41.44c0,1.5,0.3,3.14-0.19,4.46c-2.55,6.83,1.85,12.58,2.18,19.17
		c0.8-0.46,1.25-0.57,1.32-0.79c1.76-5.45,2.09-11.02,1.26-16.68c-0.24-1.63-0.61-3.27-0.63-4.91c-0.07-5.99-0.12-11.99,0.02-17.97
		c0.06-2.46,0.92-4.91,0.85-7.35c-0.2-6.46-0.69-12.92-1.11-19.37C996.4,454.7,996.16,453.77,995.95,452.54z M1192.35,678.45
		c-0.68-1.69-1.28-3.19-2.3-5.72c-0.38,2.71-0.59,4.14-0.8,5.68c-1.55,0.4-2.93,0.76-4.71,1.23c0.55,1.11,0.8,2.42,1.39,2.6
		c0.91,0.28,2.12-0.07,3.09-0.43c0.71-0.26,1.25-0.97,2.58-2.08c-2.13,5.06-2.13,5.06-1.14,8.79c2.8-0.65,2.8-0.65,2.52-5.31
		c1.42-1.21,2.23-3.61,4.91-3c0.25,0.39,0.59,0.67,0.58,0.94c-0.05,1.74-0.16,3.48-0.33,6.42c1.78-3.01,2.97-5.03,4.1-6.94
		c-1.77-1.95-3.33-3.68-4.85-5.36C1195.33,675.85,1195.95,679.98,1192.35,678.45z M1018.04,477.19c-3.48-2.72-2.52-7.8-6.8-10.24
		c-1.2,1.54-2.33,2.9-3.32,4.34c-0.16,0.23,0.27,0.85,0.44,1.33c1.07-0.48,2.03-0.92,3.36-1.52c2.14,4.97,3.17,9.62,1.65,14.61
		c0.94,1.12,2.38,2.13,2.67,3.4c0.3,1.32-0.5,2.9-0.9,4.68c4.04-3,4.18-3.12,2.93-7.03C1017.1,483.71,1015.92,480.76,1018.04,477.19
		z M1011.76,697.24c0.6-1.95,0.93-3.85,1.75-5.52c1.74-3.52,1.64-4.72-1.54-8.42c-2.69,3.76,0.18,8.51-2.72,13.32
		c-0.58-2.44-0.91-3.88-1.49-6.34c-1.27,3.05-2.13,5.1-2.96,7.1c-1.14-0.29-1.95-0.49-2.99-0.75c0.3,3.06,1.63,4.63,4.2,5
		C1008.11,700.02,1010.07,698.53,1011.76,697.24z M995.69,555.86c0.86,8.85-2.22,16.67-0.2,24.61c0.26-2.92,0.19-5.86,0.29-8.79
		c0.06-1.78,0.58-3.08,2.31-4.43c3.09-2.41,5.33-5.77,5.24-10.68C1000.97,556.35,998.79,556.15,995.69,555.86z M1248.23,441.72
		c0.21,3.53,0.42,7.06,0.66,10.93c2.18,0,4.04,0,6.43,0c0.07-5.99,1.62-11.57,0.05-17.43c-1.56,0.17-2.68,0.29-3.76,0.4
		c-0.25-3.88-0.49-7.73-0.76-11.94c1.76-0.32,3.34-0.61,5.19-0.95c0.35-0.5,1.26-1.22,1.2-1.83c-0.46-4.3,1.29-8.51,0.04-12.92
		c-1.54-5.4-0.74-8.72,2.15-13.52c0.94,0.3,1.94,0.61,3.37,1.06c0.48-2.38,0.93-4.61,1.24-6.13c3.36-3.4,6.32-6.38,9.18-9.27
		c1.97,0.58,4.22,1.24,6.66,1.95c1.02-1.55,1.9-2.88,3.26-4.94c0.46,2.3,0.78,3.92,1.23,6.21c4.51-3.7,0.61-9.05,3.57-12.8
		c3.71,2.11,4.97,5.78,6.63,10.47c0.81-2.44,1.24-3.75,1.77-5.33c2.01-0.52,4.22-1.09,6.55-1.7c0-1.4,0-2.67,0-4.31
		c2.56-1.1,5.07-2.35,7.71-3.23c0.94-0.31,2.27,0.1,3.27,0.52c1,0.43,1.81,1.29,2.97,2.16c1.69-3.04,2.27-6.75,6.56-7.38
		c0.26,1.66,0.5,3.23,0.85,5.52c1.41-1.56,2.41-2.66,3.64-4.01c1.54,3.05,0.79,5.39-1.18,7.78c0.73,1.25,1.44,2.46,2.23,3.81
		c0.7-0.55,1.26-0.77,1.4-1.15c0.27-0.76,0.47-1.62,0.42-2.42c-0.16-2.54,0.79-4.21,3.66-4.51c-0.52-1.98-4.35-2.27-1.71-5.28
		c1.01,0.11,2.41,0.26,4.63,0.51c0.36-0.72,0.98-1.92,1.56-3.09c1.87,0.99,3.02,1.6,4.54,2.41c1.05-0.86,2.14-1.75,3.16-2.59
		c-1.26-3.09-2.37-5.81-3.5-8.56c3.12-4.77,6.34-5.39,13.17-2.82c-0.54,2.04-1.34,3.95-1.49,5.92c-0.27,3.53,0.51,7.14-0.74,10.85
		c1.29-1.18,2.59-2.36,3.42-3.13c-0.21-2.86-0.36-4.9-0.54-7.36c1.6,0.33,2.5,0.51,3.69,0.75c0-2.37,0-4.67,0-7.26
		c1.21-0.31,2.24-0.56,3.53-0.89c0.48-2.51,0.97-5.14,1.57-8.32c2.04,1.2,3.38,2,4.91,2.9c0.78-1.51,1.31-2.9,2.15-4.07
		c1.91-2.66,3.99-3.17,6.95-1.9c0.76,0.32,1.52,1.18,2.18,1.08c5.09-0.72,8.09,3.25,12.2,5.05c0.35,1.65,0.69,3.24,1.09,5.11
		c1.33,0.58,2.76,1.2,4.48,1.95c-2.24,3.33-4.62,5.9-8.45,6.78c-3.6,0.82-6.92,2.21-9.56,4.89c-1.49,1.51-3.1,1.43-5.04,0.96
		c-3.46-0.84-4.66-0.11-5.8,2.88c-2.11,5.53-3.61,6.34-9.34,5.03c-0.48-0.11-0.96-0.18-2.06-0.39c-0.74,1.62-1.51,3.33-2.37,5.22
		c-0.76-1.22-1.52-2.45-2.36-3.8c-4.33,1.61-1.21,4.43-1.4,7.08c-1.35-0.42-2.6-0.82-4.11-1.29c-0.95,1.39-1.66,3.18-2.98,4.19
		c-1.42,1.09-3.13,0.55-4.37-1.36c1.84-3.08,5.38-5.75,3.28-10.09c-2.18-0.27-4.26-0.53-6.48-0.81c-1.61,0.8-3.1,1.86-2.59,4.1
		c0.38,1.69,1.86,2.2,6.61,2.4c-1.57,1.88-2.98,3.33-5.35,3.26c-1.42-0.05-1.84-0.7-3.27-4.85c-0.87,2.91-1.54,5.13-2.31,7.72
		c-1.54-1.02-2.71-1.8-4.42-2.93c-0.24,1.74-0.46,2.96-0.58,4.18c-0.36,3.61-0.95,4.05-4.81,3.49c-0.47-0.07-0.94-0.12-1.39-0.17
		c-1.42,5.53-4.57,8.22-10.25,4.76c-0.59,1.37-1.2,2.66-1.7,4c-0.46,1.23-0.79,2.51-1.19,3.78c-0.69-1.25-1.4-2.53-2.08-3.77
		c-2.59,0.71-2.66,2.44-2.55,4.1c0.21,3.04-1.16,5.06-3.91,6.5c-0.95-0.46-1.96-0.95-3.55-1.73c-0.68,2.15-1.31,4.13-2.05,6.47
		c-1.95-0.21-4.39-0.41-4.83,2.36c-0.32,2.02-0.06,4.14-0.06,7.54c-1.5-2.67-2.46-4.35-3.46-6.13c-3.04,5.15-3.04,5.15,1.67,10.05
		c-1.16,2.21-2.34,4.43-3.74,7.1c-0.58-0.17-1.57-0.46-2.57-0.75c-1.82,1.61-1.27,3.17,0,4.8c1.02,0,1.97,0,3.19,0
		c0,1.34,0,2.58,0,3.92c-1.35,0-2.44,0-3.96,0c0.88,4.9-2.06,9.79,1.61,14.46c-2.2,1.36-4,2.48-5.98,3.7
		c-0.6,3.05-0.57,6.11,0.4,9.21c0.59,1.88,1.02,3.85,1.23,5.8c0.25,2.28,1.35,3.54,3.47,4.33c3.66,1.38,4.2,3,2.35,6.36
		c-0.95,1.72-1.97,3.39-2.73,4.68c1.13,2.61,2.38,4.6,2.82,6.76c0.45,2.22,0.1,4.59,0.1,6.65c4.79,3.01,6.73,6.5,5.54,11.9
		c-0.82,3.72,0.41,7.5,3.45,10.5c-0.93,1.33-1.75,2.5-2.77,3.95c5.81,2.31,2.93,7.52,4.22,11.63c1.58-0.08,3.13-0.16,5.18-0.27
		c0.38,2.52,0.74,4.89,1.06,6.98c1.88,2.59,4.1,4.89,5.41,7.63c1.37,2.89,3.72,4.24,6.31,4.95c2.1,0.58,3.59,1.6,4.93,3.09
		c1.89,2.1,4.1,3.3,6.85,2.57c2.36,2.32,0.71,6.31,4,8.76c0.66-2.69,1.17-4.79,1.82-7.43c4.27,2.67,7.76,4.99,9.94,9.09
		c3.41-0.06,6.33,0.57,7.61,4.66c0.41,1.3,2.97,1.82,4.32,2.96c1.93,1.64,3.64,3.53,6.2,6.06c-0.18-0.02,0.78,0.09,2,0.22
		c0.6,1.16,1.27,2.44,1.9,3.65c0.65,0.2,1.11,0.4,1.59,0.48c1.31,0.2,2.96-0.1,3.87,0.59c2.51,1.93,4.94,3.51,8.23,4.14
		c2.72,0.53,5.17,2.43,7.97,3.83c-0.41,0.95-0.82,1.91-1.36,3.17c2.25,0.28,4.19,0.52,6.16,0.77c4.08-3.47,4.84-3.4,8.16,0.62
		c0.73,0.88,1.66,1.6,2.41,2.3c-0.38,1.22-0.75,2.4-1.1,3.49c2.87,2,5.62,1.1,8.94,0.15c-0.6,1.67-0.96,2.65-1.38,3.82
		c1.32,1.09,2.68,2.22,4.22,3.49c-0.89,1.01-1.61,1.82-2.44,2.76c0.52,0.33,0.97,0.85,1.28,0.78c1.41-0.32,2.79-0.8,4.56-1.34
		c0.42,0.83,0.97,1.93,1.66,3.27c1.15-0.08,2.39-0.17,4.2-0.29c-0.72,2.11-1.32,3.85-2.09,6.12c2.08,0,3.72,0,6.16,0
		c-2.2,3.24-5.15,4.08-7.68,5.95c-0.41,1.3-0.89,2.83-1.38,4.37c0.2,0.14,0.4,0.28,0.6,0.42c0.44-0.47,0.94-0.89,1.32-1.41
		c0.37-0.52,0.61-1.13,0.53-0.98c3.72-1.19,6.77-2.17,10.13-3.24c0.11,0.98,0.25,2.18,0.4,3.59c-1.86,0.48-3.42,0.88-5.15,1.32
		c-0.87,2.13-1.75,4.25-2.75,6.68c0.96,0.61,1.81,1.15,3.14,1.98c0.5-2.22,0.87-3.91,1.24-5.56c2.5-1.68,3.21,0.4,4.3,2
		c1-0.39,2.01-0.78,3.52-1.36c0.59,2.12,1.42,3.97,1.56,5.86c0.22,2.99-2.98,2.42-4.97,3.64c4.4,0.53,4.02,0.66,5.58,5.15
		c0.93,2.67,3.28,4.84,5.14,7.43c0.35,4.04,0.73,8.46,1.13,13.08c-1.65,0.33-3.08,0.62-4.42,0.89c-2.9,5.13-3.92,5.77-9.02,4.29
		c1.51,3.11,2.94,6.06,4.51,9.28c3.65-2.45,3.26-7.08,6.39-9.7c0.88,1.61,1.71,3.13,2.6,4.76c-1.24,0.78-2.3,1.44-3.64,2.27
		c1.45,1.52,2.65,2.78,3.83,4.01c-1.56,3.58-5.14,1.94-7.98,3.5c1,0.74,1.71,1.26,2.7,1.99c-0.4,0.77-0.92,1.56-1.25,2.42
		c-1.12,2.88-2.64,5.51-2.64,8.9c0,3.23-1.12,6.54-4.11,8.69c-0.62,0.44-0.97,1.25-1.68,2.22c1.37,0.63,2.46,1.13,4.14,1.92
		c-1.68,0.78-2.8,1.3-4.04,1.87c0.06,1.21,0.11,2.33,0.19,4.11c1.41-1.13,2.35-1.88,3.45-2.76c1.87,0.51,3.2,1.74,3.12,3.78
		c-0.15,3.6-0.1,7.37-3.65,9.89c-1.49-0.29-2.92-0.58-4.46-0.88c-2.29,2.37-3.09,5.07-2.54,8.21c0.2,1.13,0.88,2.42,0.56,3.37
		c-1.35,4.03-0.86,7.83,0.93,11.35c-2.32,3.45-5.6-0.26-8.28,1.75c-0.23,0.96-0.54,2.21-0.74,3.05c-3.57,1.9-6.86,3.65-10.14,5.4
		c-0.98,3.25-0.64,5.96,1.7,8.29c2.3-0.93,1.5-2.91,1.92-4.39c0.89-3.16,1.74-3.75,5.83-3.4c-0.29,1.39-0.33,2.83-0.91,4.01
		c-0.63,1.29-1.95,2.24-2.62,3.51c-0.6,1.13-0.72,2.5-1.02,3.65c-1.72,0.42-3.65,0.34-4.61,1.27c-0.85,0.82-0.95,2.8-0.79,4.2
		c0.36,3.22-1.75,4.82-3.99,6.57c0.25,2.54,0.49,5.03,0.73,7.51c-0.5,0.31-1,0.61-1.51,0.92c-0.73-1.45-1.46-2.9-2.16-4.27
		c-3.5,2.27-1.19,4.64-1.33,7.41c-1.44,1.34-3.22,3-5.43,5.07c-0.66,2.2-0.78,5.42-4.01,7.07c-1.99-1.51-4.04-3.07-6.06-4.6
		c-2.92,2.96-2.92,2.96,1.51,6.2c-0.63,0.55-1.16,1.11-1.78,1.55c-0.52,0.36-1.15,0.58-1.65,0.82c-0.49,3.3-0.86,6.41-1.44,9.48
		c-0.24,1.27-0.61,2.79-1.48,3.62c-1.85,1.77-2.58,3.7-1.55,6.76c-1.77-0.2-2.93-0.33-4.25-0.47c-0.86,0.8-1.85,2.1-3.15,2.81
		c-1.18,0.64-2.71,0.63-4.13,0.92c0.59,2.42,1.63,4.37,1.31,6.06c-0.28,1.52-2.05,2.75-2.98,3.89c-4.36-0.78-0.81-2.8-1.4-4.54
		c-1.65,0.54-3.27,1.07-5.27,1.72c0.57,1.31,0.94,2.15,1.3,3c1.57,3.67,0.67,6.67-2.58,9.04c-2.8,2.04-5.53,4.17-8.44,6.37
		c-2.98-2.15-1.44-4.93-0.19-7.97c-1.12,0-1.77-0.14-2.31,0.04c-0.41,0.14-0.78,0.63-0.99,1.06c-1.7,3.49-3.35,7.01-4.99,10.46
		c-7.84,1.33-14.33,4.08-15.21,13.8c0.05,0.13,0.38,0.98,1.06,2.7c-5.46-3.19-10.09-1.17-14.82-0.1c-0.14,1.48,2.39,3.53-1.15,4.32
		c-2.26-1.26-1.98-5.9-6.35-5.09c1.21,3.53,0.08,6.66-1.79,10.01c-3.39-4-7.09-2.79-11.19-1.07c0,2.32,0,4.72,0,7.52
		c-2.75,2.45-8.76-1.81-10.25,4.56c0.47,0.99,1.09,2.29,1.75,3.69c-0.58,0.54-1.04,0.97-1.66,1.54c-0.92-0.85-1.73-1.61-2.52-2.35
		c-2.85,1.04-3.74,3.49-4.29,6.73c-1.28-2.25-2.08-3.67-2.95-5.19c-2.4,1.58-0.38,4.99-3.84,5.62c-0.62-0.76-1.39-1.72-2.17-2.67
		c-3.87,3.07-4.57,2.88-8.8-2.7c-1.28,0.16-2.69,0.33-3.03,0.38c-3.45-2.75-6.17-4.93-9.49-7.57c0.21-0.71,0.66-2.21,1.17-3.91
		c1.88,0.69,3.34,1.22,4.87,1.78c0.25-2.36,0.22-2.54-0.77-4.33c1.02-0.74,2.05-1.48,3.34-2.42c0.88,1.61,1.63,2.99,2.69,4.93
		c1.37-0.99,2.44-1.78,3.8-2.77c-1.19-1.47-2.07-2.56-2.95-3.66c2.37-1.65,2.37-1.65,4.32,1.73c2.14,0.83,4.18,1.68,6.07-0.89
		c0.43-0.58,2.33-0.09,4.26-0.09c-0.74-2.18-1.28-3.76-1.9-5.59c1.99-0.87,3.7-0.09,5.22,0.59c1.36,0.6,2.5,2.66,3.77-0.34
		c-1.85-1.2-3.6-2.33-5.4-3.5c3.16-2.6,3.16-2.6,6.98-0.23c0.27-1.83,0.52-3.53,0.79-5.42c3.37-1.93,6.75-3.86,10.13-5.8
		c0.29-0.16,0.63-0.32,0.81-0.57c2.76-4.01,6.98-6.12,11-8.5c0.71-0.42,1.49-0.86,2-1.48c3.41-4.18,8.47-6.11,12.04-9.31
		c2.16,0.53,3.83,0.95,5.72,1.41c0.54-1.83,0.8-3.31,1.42-4.61c0.46-0.97,1.57-2.54,2.09-2.43c2.74,0.58,1.88-2.22,3-2.97
		c0.71,0.21,1.32,0.4,2.23,0.67c-0.48-5.58,4.09-7.84,7.23-10.75c2.05-1.9,3.97-3.63,4.97-6.25c1.63-4.26,5.55-6.45,8.61-9.39
		c1.22-1.18,2.08-2.25,2.61-3.97c1.07-3.44,2.18-7.1,6.23-8.37c0.44-4.85,3.92-7.98,5.94-11.87c1.87-3.59,5.46-6.28,5.65-10.78
		c0.03-0.71,0.73-1.4,1.13-2.09c0.79-1.4,1.84-2.72,2.34-4.22c1.2-3.62,2.52-6.98,7.25-7.14c-0.09-1.31-0.3-2.29-0.18-3.22
		c0.19-1.41,0.24-3.05,1.01-4.12c1.91-2.63,4.35-4.87,6.27-7.49c1.22-1.66,1.9-3.73,2.8-5.57c-0.93-1.1-1.74-2.07-2.8-3.33
		c1.41-1,2.56-1.82,3.7-2.64c2.26-8.49,2.71-17.42,6.15-25.68c1.42,0,2.51,0,3.91,0c-0.25-4.01-0.77-7.89-0.63-11.75
		c0.07-2.14,1.23-4.25,2.22-7.39c-1.05-2.03-1.91-5-0.03-8.64c1.15-2.24,0.87-5.48,0.54-8.18c-0.83-6.76,0.85-13.04,2.84-19.49
		c-0.58-1.23-2.4-2.32-0.88-4.49c1.31-0.33,2.87-0.71,5.43-1.35c-1.83-0.89-2.86-1.4-4.35-2.12c1.08-1.2,1.96-2.18,2.82-3.13
		c-0.06-0.21-0.05-0.43-0.15-0.51c-3.78-3.1-6.14-6.82-5.65-11.98c0.06-0.66-0.72-1.43-1.18-2.11c-1.21-1.77-2.49-3.5-3.69-5.27
		c-3.42-5.05-6.82-10.12-10.22-15.17c-0.52,1.69-0.89,3.31-1.62,4.75c-0.12,0.23-1.87-0.36-3.25-0.66c0.9-1.86,1.53-3.15,2.37-4.89
		c-2.39-3.25-4.82-6.56-7.25-9.88c-3.15-0.15-4.82-2.31-6.26-4.92c-1.57,0.17-2.99,0.33-4.59,0.5c-0.63-1.43-1.19-2.72-1.89-4.33
		c-1.27,1.35-2.35,2.51-3.8,4.05c-0.89-1.03-2.04-1.74-2.18-2.62c-0.64-4.11-3.4-5.4-7.01-5.78c-0.65-0.07-1.29-0.23-1.48-0.26
		c-2.85-3.14-5.4-5.93-8.52-9.37c-4.37-1.8-9.62-3.86-14.78-6.13c-2.52-1.11-5.01-2.13-6.28-5.19c-0.82-1.97-2.67-4.04-5.35-3.95
		c-4.46,0.14-7.33-2.74-10.45-5.17c-0.91-0.71-1.61-2.12-2.56-2.3c-4.44-0.79-6.12-4.09-7.49-8.11c-1.53,0.56-2.83,1.04-4,1.47
		c-3.04-1.19-2.79-4.1-3.99-6.75c-4.33-0.18-9.31,0.24-12.06-5.11c1.83-2.27,1.44-4.89-0.06-7.78c-1.9,0.19-3.93,0.4-5.75,0.59
		c-1.91-3.11-3.54-5.77-5.25-8.57c0.41-1.05,0.99-2.09,1.18-3.2c0.15-0.89,0.09-2-0.33-2.76c-0.72-1.28-3.1-0.47-3.43-2.81
		c-0.22-1.53-1.52-2.91-2.46-4.59c0.24-1.23,0.51-2.66,0.86-4.47c-4.59-3.18-5.58-7.87-4.94-13.14c0.16-1.33,0.23-2.68,2.06-2.9
		c1.65,1.35-0.16,4.63,3.05,5.24c2.99-5.61-2.04-10.83-0.42-16.51c-1.45-0.62-2.77-1.18-4.24-1.81c0.17-0.39,0.28-0.83,0.52-1.19
		c0.43-0.66,1.23-1.22,1.35-1.92c0.41-2.37,0.59-4.78,0.98-8.29c-0.39-0.87-1.67-2.76-2.04-4.81c-0.37-2.01,0.17-4.19,0.35-6.94
		c-1.48,0.32-2.77,0.6-4.15,0.89c-0.28,2.67,1.63,5.25-0.6,7.28c-0.46-0.1-1.03-0.16-1.03-0.24c-0.2-4.05-3.16-7.84-1.08-12.14
		c0.39-0.8,0.11-1.96,0.04-2.95C1245.2,451.1,1246.37,446.38,1248.23,441.72z M1372.99,814.05c-0.38-5.34,0.42-10.17-4.31-13.84
		c-0.7,4.89-3.96,9.04-2.41,14.64C1368.65,814.56,1370.69,814.32,1372.99,814.05z M1409.66,660.92c0.5,2.91,0.96,5.59,1.45,8.42
		c4.91-0.99,7.87-3.64,9.07-8.63C1416.68,659.91,1413.46,657.43,1409.66,660.92z M1382.92,790.06c0.52,2.98,0.95,5.49,1.39,7.99
		c2.97-0.45,2.8-0.66,4.61-2.22c1.97-1.7,2.31-3.7,2.34-6.1C1388.39,788.65,1385.8,788.34,1382.92,790.06z M746.76,701.8
		c-0.25,1.07-0.62,2.66-1.05,4.52c-2.61-0.19-4.61,0.61-6.75,2.06c-3.31,2.24-7.47,2.22-11.45,1.97c-0.77-0.05-1.53-0.22-3-0.45
		c0.83,1.66,1.36,2.7,1.87,3.72c-1.07,1.71-2.08,3.2-2.96,4.77c-1.71,3.03-2.77,3.17-5.54,0.65c-0.24-0.22-0.54-0.36-0.88-0.57
		c-2.01,0.22-3.03,1.31-3.65,3.36c-1.1,3.59-2.75,3.99-5.65,1.4c-1.84-1.64-3.39-2.12-5.71-0.82c-1.34,0.75-3.24,0.45-4.86,0.75
		c-4.39,0.82-8.73,1.94-13.15,2.51c-3.56,0.46-7.16,0.85-10.79-0.54c-2.41-0.92-5.2-0.84-7.81-1.29c-3.92-0.69-7.74-1.69-10.94-4.14
		c-5.15,0.8-10.05,1.24-14.92-1.95c-3.68-2.41-7.99-4.09-12.23-5.34c-4.39-1.29-8.22-3.24-11.74-6.08c-2.83-2.28-5.8-4.39-8.77-6.5
		c-0.65-0.46-1.48-0.73-2.27-0.9c-4.94-1.06-8.37-4.04-11.68-7.81c-3.19-3.64-7.42-6.37-11.97-10.15c-0.11-0.51-0.46-2.1-0.87-3.97
		c-2.53-0.93-4.12-2.87-4.42-5.73c-0.21-2.01,0.94-3.27,2.9-3.08c5.94,0.55,11.89,1,17.79,1.82c4.08,0.57,8.08,1.69,12.49,2.64
		c-0.49,3.5,2.02,4.75,4.64,6.4c2.07,1.3,3.36,3.85,5.54,6.49c5.1-0.29,8.25,3.93,11.74,7.98c1.63,1.89,4.22,3.95,6.47,4.06
		c4.18,0.21,7.56,2.11,10.42,4.28c6.38,4.83,13.97,6.55,21.05,9.56c3.17-0.73,6.35-1.42,9.5-2.22c0.75-0.19,1.66-1.26,2.05-1.06
		c2.79,1.43,4.22-1.03,6.12-2.08c0.99,0.46,1.87,0.87,2.99,1.39c0.68-1.1,1.36-2.18,2.2-3.53c4.85,0.38,9.63,0.04,12.54-5.86
		c1.07,2.21,1.61,3.32,2.14,4.41c1.68,0.62,2.78-0.19,3.02-1.64c0.37-2.22,1.36-4.25,0.64-6.79c-0.95-3.34,1.48-5.02,4.69-3.49
		c1.52,0.72,2.78,1.98,4.54,3.27c0.26-2.52-2.95-4.06-0.83-6.49c1.07,0,2.33,0,3.63,0c1.62-2.67-0.35-4.68-1.64-6.9
		c0.88-1.16,1.64-2.18,2.53-3.36c1.35,0.48,2.51,0.89,3.89,1.39c-0.36-2.57-0.69-4.87-1.11-7.84c2.08-0.23,3.77-0.41,6.06-0.66
		c0.25-0.44,0.81-1.39,1.48-2.55c1.14,0.09,2.38,0.18,4,0.3c0-2.16,0-4.05,0-6.34c-1.31,0.87-2.37,1.57-4,2.65
		c-0.6-3.34-1.12-6.26-1.68-9.38c3.55-0.51,7.04,1.88,9.73-1.22c-0.26-3.26-3.49-3.34-5.4-5.33c-0.05-0.66-0.38-1.7-0.14-2.58
		c1.16-4.25,2.45-8.47,3.77-12.68c0.09-0.27,0.83-0.33,1.51-0.58c0.78,2.18-1.28,5.36,2.63,6.43c1.58-0.48,3.19-2.09,5.68-1.22
		c1.01,0.36,2.76-1.36,4.32-2.22c1.05,0.54,2.2,1.13,3.75,1.92c0.64-1.22,1.2-2.29,1.94-3.71c-1.64-0.36-2.86-0.63-4.38-0.97
		c0.99-2.59,3.39-3.09,4.95-4.11c1.18-2.64,1.85-5.35,3.44-7.34c1.52-1.9,3.99-3.05,6.56-4.9c-1.55-0.7-2.81-1.26-4.42-1.99
		c-0.51-0.97-1.07-2.36-1.9-3.56c-0.83-1.21-1.93-2.25-2.51-2.91c0-5.5,0-10.4,0-15.61c0.96-0.58,2.04-1.33,3.21-1.9
		c1.73-0.84,2.21-2.18,2.32-4.03c0.23-3.88,0.71-7.75,1.11-11.62c0.25-2.49,2.46-2.31,4.58-3.08c0.4-1.64,0.87-3.53,1.3-5.42
		c0.56-2.46,1.44-3.15,3.76-2.88c7.42,0.88,8.13,0.49,11.98-6.8c1.94,0,4.02,0,6.4,0c0.64,1.89,1.28,3.57,1.77,5.3
		c0.44,1.56,0.73,3.16,1.1,4.84c1.9,0.32,3.5,0.59,5.49,0.93c-0.69,1.11-1.27,2.03-2.03,3.24c-2.26-0.28-5.04-1.42-6.16,2.46
		c0.31,0.64,0.8,1.66,1.39,2.88c-0.7,0.74-1.45,1.55-2.14,2.29c0.59,2.09,2.46,2.06,6.69-0.07c1.03,1.09,2.11,2.26,3.07,3.28
		c1.44,1.12,4.59-1.45,4.48,1.98c-2.4,0.83-4.58,1.8-6.86,2.3c-2.16,0.48-4.43,0.46-7.68,0.75c2.03,2.32,3.36,3.84,4.86,5.56
		c-0.89,1.82-1.74,3.56-2.75,5.61c-1.04-0.36-2.05-0.71-3.12-1.09c-1.39,0.92-1.63,2.49-0.49,3.31c2.72,1.97,1.91,5.55,4.46,7.27
		c-3.7,3.42-3.7,3.42-1.75,9.52c-3.73-1.02-5.68-3.25-6.35-6.79c-0.39-2.07-0.94-4.11-1.45-6.31c-2.06,0-3.62,0-5.7,0
		c0.46,0.91,0.61,1.75,1.11,2.11c1.46,1.03,3.07,1.87,4.69,2.83c-2.46,3.54,1.41,6.34,0.27,9.54c1.97,1.02,3.7,1.92,5.39,2.79
		c0.56,3.72-1.5,5.74-4.34,7.43c0.27,1.7,0.52,3.29,0.83,5.23c-2.58,2.17-3.87,4.95-2.18,8.52c0.22,0.46-0.26,1.23-0.39,1.87
		c-0.34,1.68-0.67,3.36-1.11,5.61c-0.28,0.17-1.1,0.68-2.13,1.31c-0.75-0.96-1.41-1.79-2.02-2.57c-1.65,0.45-2.37,1.53-1.44,2.61
		c1.61,1.88,2.74,3.76,2.23,6.29c-0.09,0.44-0.38,0.84-0.82,1.77c-1.9-3-3.59-5.69-5.29-8.37c-2.98,2.77-3.28,4-0.95,8.54
		c1.29,2.52,1.73,4.62-0.33,6.8c-1.46,1.55-2.93,3.09-4.62,4.88c-1.6-2.43-1.89-5.66-5.31-6.78c-1.8,0.84-3.85,1.81-5.71,2.68
		c-1.99,2.8,1.76,6.76-2.75,8.92c-0.94-0.41-2.25-0.98-4.05-1.78c-0.82,0.91-1.74,1.92-3.07,3.4c1.84,0.5,3.02,0.81,4.57,1.23
		c-0.29,1.23-0.58,2.48-1.12,4.75c1.99-1.26,3.1-1.96,4.47-2.83c0.67,1.12,1.32,2.21,2.19,3.64c-3.78,2.16-2.96,5.89-3.28,9.39
		C753.99,695.98,750.73,698.6,746.76,701.8z M754.13,648.75c-3.16,3.72,1.83,8.29-2.2,10.68c-1.84,0.16-1.86-2.94-3.88-1.5
		c0.42,1.47,0.82,2.89,1.37,4.86c-4.22-0.96-2.11-5.21-4.77-6.38c-5.68,1.24-6.4,3.05-2.93,7.76c0.58-0.95,1.15-1.88,2.26-3.7
		c0.31,3.62,0.52,6.14,0.81,9.59c1.56-1.77,2.33-3.17,3.51-3.83c1.2-0.68,2.81-0.64,3.18-0.71c2.43-3.36,4.3-5.93,6.81-9.4
		c0.49-4.73,5.02-10.69-0.49-16.78c-1.01,0.72-1.92,1.38-3.12,2.25c4.49,4.52,2.44,9.4,1.3,14.53
		C755.38,653.71,754.85,651.6,754.13,648.75z M762.63,634.87c6.58,0.83,6.94,1.39,5.97,6.98c-0.31,1.8-0.65,3.69,1.71,4.81
		c1.38-0.37,2.9-0.77,4.61-1.22c-2.08-2.83-4.33-5.62-3.09-8.78c0.93-2.38,0.74-4.29-0.45-6.76c2.3-1.41,4.35-2.66,6.78-4.14
		c0.33-1.11,0.76-2.65-0.96-3.6c-2.22,1.78-4.28,3.43-6.66,5.34C771.56,632.34,767.65,633.61,762.63,634.87z M2088.33,34.92
		c-1.16-3.57,0.05-6.93,0.71-10.24c0.8-4.03,0.5-7.55-2.61-11.49c-11.6-1.72-23.87-0.32-36.58-0.71c-0.21-4-0.43-8.06-0.67-12.48
		c-7.26,0-14.09,0-21.71,0c-1.17,1.26-3.36,2.83-4.37,4.96c-0.98,2.08-0.74,4.74-1.04,7.22c-3.22,0.18-6,0.33-9.36,0.52
		c2.05,4.24-2.79,5.12-3.06,7.77c-2.16,0.97-4.38,1.35-5.65,2.66c-3.08,3.18-6.31,5.72-11,5.67c-0.67,3.37-1.29,6.43-1.92,9.57
		c-1.37,0.69-2.68,1.35-3.84,1.94c-2.52,8.46-2.52,8.46-1.42,10.73c0.94-1.98,1.82-3.83,2.93-6.16c6.22,4.2,8.07,11.16,13.49,15.88
		c-2,1.95-3.59,3.5-5.37,5.24c-0.41,3.58-0.81,7.35,1.44,10.96c4.71,1.37,9.11,0.81,13.13-2.54c2.37,2.87,4.8,3.9,8.21,1.66
		c2.3-1.51,5.12-1.03,7.66,0.14c5.71,2.63,11.15,2.45,16.07-1.67c1.79,1.02,3.42,1.94,5.88,3.34c0.2-4.63,0.36-8.34,0.51-12.04
		c4.57-0.29,8.66-0.55,12.49-0.8c1.78-3.47,3.34-6.53,4.78-9.34c0.95-0.18,1.44-0.27,1.93-0.36c5.3-1.02,6.29-2.3,6.63-7.53
		c0.17-2.74,0.81-5.45,1.22-8.05c3.91-0.42,7.17-0.78,10.8-1.17C2087.87,37.38,2088.67,35.96,2088.33,34.92z M788.89,307.96
		c3.12,3.37,3.12,3.37,8.22,2.63c2.04,1.98,5.15,3.03,5.84,6.38c0.09,0.42,0.58,1.04,0.95,1.09c4.14,0.62,5.7,4.5,8.59,6.68
		c0.65,0.49,1.34,1.06,2.1,1.26c8.9,2.3,13.83,9.87,20.19,15.43c3.15,2.75,5.18,6.75,7.88,10.06c1.93,2.36,4.38,3.39,7.64,1.77
		c-0.66-2.77-1.79-5.42-1.78-8.07c0.01-2.59,1.19-5.17,1.85-7.74c-1.89-0.96-3.19-1.62-4.64-2.36c-0.23-3.01-0.46-5.94-0.67-8.66
		c-6.96-2.86-13.57-5.48-16.51-12.77c-3.07-0.85-5.99-1.66-9.02-2.5c-0.71-1.43-1.51-3.03-2.36-4.77c-6.1,0.35-11.04-5.2-17.84-2.13
		c-1.11-2.18-2.08-4.1-3.44-6.78c-3.19-1.44-8.18,1.75-11.46-1.86c-0.42-1.37-0.79-2.58-1.14-3.7c-3.03-0.08-5.29-0.98-7.51-2.74
		c-2.78-2.21-6.03-3.82-9.09-5.67c-0.27-0.16-0.64-0.25-0.96-0.24c-5.84,0.19-10.63-3.38-16.12-4.47c-2.63-0.52-5.08-1.46-6.84-3.68
		c-0.28-0.36-0.83-0.53-1.29-0.73c-6.35-2.74-12.66-5.61-19.09-8.15c-4.09-1.61-8.19-3.81-12.9-2.39c-0.26,0.08-0.62-0.16-1.16-0.32
		c-0.58-1.15-1.23-2.44-1.7-3.36c-1.51-0.38-2.58-0.67-3.66-0.93c-1.42-0.34-2.87-0.99-4.27-0.9c-3.43,0.21-6.34-0.58-8.95-2.94
		c-0.86-0.78-2.39-1.09-3.63-1.12c-1.78-0.05-3.57,0.36-5.94,0.64c-0.41-0.82-0.93-1.86-1.51-3.02c-1.41,1.29-2.21,2.02-2.95,2.69
		c-3.85-2.79-7.59-4.3-12.15-2.09c-1.09,0.53-2.9,0.12-4.17-0.37c-2.8-1.09-5.26-1.61-7.83,0.72c-1.27,1.16-3.18,1.61-4.59,2.28
		c-3.24-0.52-4.8-4.24-8.52-3.33c-0.28,1.22-0.59,2.55-0.99,4.33c-3.9-0.26-7.6-0.6-11.3-0.73c-2.33-0.08-4.16-0.84-5.52-2.76
		c-0.13-0.19-0.61-0.12-1.16-0.22c-0.71,0.89-1.5,1.86-2.42,3.01c-6.38-2.11-12.23-2.2-16.56,4.3c0.46,2.34,0.97,4.91,1.48,7.5
		c1.61,1.03,3.14,2.01,4.76,3.05c1.36-0.64,2.65-1.24,4.2-1.97c0.64,2.89,2.21,3.24,4.57,2.47c1.34-0.44,2.9-0.19,4.36-0.3
		c1.55-0.13,3.09-0.32,4.63-0.49c1.39,0.84,2.8,1.69,4.19,2.53c-0.33,1.1-0.63,2.1-0.84,2.82c1.96,0.72,3.69,1.08,5.1,1.94
		c1.76,1.08,3.42,1.04,5.24,0.52c3.01-0.86,6.04-1.69,8.86-2.47c1.61,1.83,3.06,3.46,4.31,4.87c2.14-1.21,3.64-2.76,5.18-2.8
		c3.44-0.09,5.94-1.77,8.47-4.01c2.5,2.94,5.37,3.44,8.7,2.25c1.06-0.38,2.29-0.49,3.43-0.42c2.28,0.14,4.22-0.23,4.9-2.51
		c2.59,2.33,4.96,4.46,7.19,6.47c3.06-1.8,5.62-3.31,7.92-4.67c2.03,0.96,4.06,2.82,5.46,2.42c3.29-0.94,5.72,1,8.55,1.4
		c1.8,0.26,3.61,0.47,5.38,0.85c1.91,0.42,3.82,0.91,5.67,1.56c1.86,0.65,3.63,1.55,5.45,2.32c1.2,0.51,2.47,0.88,3.63,1.46
		c5.04,2.48,10.05,5.03,15.09,7.51c1.62,0.79,3.35,2.1,4.97,2.01c7.02-0.38,11.93,4.28,17.68,6.89c0.78,2.63,3.63,1.11,4.96,2.42
		c3.41,3.38,8.26,3.97,12.31,6.99C787.47,309.29,788.18,308.62,788.89,307.96z M541.93,413.61c-2.43,0.77-4.51,1.43-7.15,0.66
		c-2.15-0.63-4.83-0.66-5.08,1.8c-2.97,1.35-5.33,3.36-7.6,3.25c-3.78-0.19-3.97,2.92-5.52,4.51c-1.66,0.26-3.1,0.48-3.87,0.6
		c-1.35,2.58-2.63,4.49-3.36,6.58c-0.51,1.45-0.73,3.32-0.24,4.7c0.69,1.95,2.01,3.75,3.36,5.36c1.28,1.53,1.31,2.9,0.35,4.73
		c-1.07-0.41-2.09-0.79-3.43-1.3c-1.3,1.71-2.57,3.39-3.71,4.89c0.73,1.89,1.29,3.38,1.94,5.06c-1.11,0.62-1.94,1.48-2.77,1.47
		c-3.41-0.03-6.4,0.55-9.24,2.8c-1.39,1.1-3.78,0.95-5.73,1.29c-1.26,0.22-2.55,0.31-4,0.47c0,2.2,0,4.09,0,6.15
		c4.45,0.74,9.14,0.15,11.99,4.53c0.27,1.56-1.31,4.08,2.01,4.59c1.48-1.15,3-2.34,4.69-3.65c2.58,3.74-1.54,6.81-0.32,10.3
		c0.39,1.12-1.53,3.05-2.55,4.91c0.71,0.72,1.35,1.95,2.28,2.23c3.48,1.05,6.47,3.01,9.68,4.55c2.66,1.27,4.29,2.96,4.97,5.75
		c0.39,1.59,0.95,3.14,1.45,4.77c4.04,0.99,7.55,2.52,8.08,7.01c2.96-0.54,5.59-1.02,8.31-1.52c1.07-2.38,2.24-4.98,3.42-7.59
		c0-1.63-0.31-3.48,0.06-5.18c0.99-4.55,1.87-9.08,1.59-13.78c-0.12-1.98,0.04-3.97,1.91-5.2c0.51,0.21,1.03,0.27,1.07,0.46
		c1.11,4.61,4.83,5.5,8.69,5.91c2.61,0.28,5.27,0.05,8.36,0.05c1.39,1.06,3.1,3.42,5.48,0.46c-0.33-2.17-0.66-4.4-1.02-6.79
		c-5.24-0.63-10.26-1.24-15.4-1.86c0.37-6.05-1.85-10-7.84-11.46c1-1.69,1.79-3.02,2.51-4.24c-1.02-1.46-1.86-2.65-2.73-3.89
		c0.93-1.24,1.71-2.28,2.39-3.21c-0.38-1.05-0.69-1.93-1.07-2.98c1.85-1.28,3.46-2.41,5.57-3.87c1.97-7,0.79-14.58,0.94-22.12
		c-1.7-0.49-2.97-0.86-5.25-1.52c2.44-0.91,3.78-1.41,5.05-1.89c0.42-2.33,0.79-4.43,1.3-7.24
		C548.07,412.74,544.89,412.67,541.93,413.61z M721.28,397.88c1.24-0.56,2.25-1.01,3.3-1.48c0.79,3.64,0.49,4.3-2.19,4.62
		c-1.77,0.21-3.57,0.23-4.51,0.29c-2.34,4.62-4.33,8.55-6.3,12.43c-2.22,0-4.04,0.2-5.8-0.04c-4.59-0.63-9.14-1.47-13.71-2.19
		c-1.58-0.25-2.47,0.58-2.95,2.11c0.95,0.35,1.86,0.67,3.04,1.1c-0.95,2.74-0.02,4.83,2.21,6.48c0.48,0.36,0.78,1.04,1.01,1.63
		c1.26,3.17,0.15,7.55,4.63,9.09c0.11,0.04,0.15,0.28,0.45,0.87c-0.11,1-0.26,2.42-0.41,3.8c-1.95-0.09-3.52-0.16-5.27-0.24
		c-0.29,5.51,4.85,2.46,6.62,5.18c0,3.18,0,6.82,0,10.48c0.76,0.46,1.34,0.76,1.85,1.13c0.66,0.47,1.34,0.94,1.9,1.53
		c2.89,3.02,3.21,3.06,6.48,0.73c0.64-0.45,1.35-0.79,1.78-1.04c2.33,0.66,2.23,4.45,5.51,3.17c0.35-1.29,0.72-2.68,1.12-4.15
		c2.64-0.24,5.07-0.46,6.66-0.6c2.1-2.76,3.66-4.81,5.21-6.84c0.05-0.83,0.1-1.72,0.19-3.26c4.54,1.93,8.57,3.65,12.4,5.28
		c4.86-2.68,1.68-6.83,2.79-10.02c-6.19-4.93-8.89-11.41-9.75-18.91c1.61-0.75,3.05-1.43,4.05-1.89c1.36-4.6,3.62-8.7,3.51-12.74
		c-0.14-4.74,3.86-7.65,3.95-12.28c-2.99-1.25-6.03-2.18-8.7-3.74c-2.23-1.29-4.4-2-6.94-2.38c-3.55-0.53-6.89,0.05-10.27,0.78
		c-1.84,0.4-3.66,0.9-5.57,1.38C718.96,391.74,720.09,394.74,721.28,397.88z M658.06,288.3c-1.12,0.29-2.23,0.64-3.36,0.86
		c-1.3,0.25-2.64,0.28-3.91,0.6c-3.5,0.86-4.3,3.38-1.47,5.63c2.5,1.99,4.37,4.2,5.08,7.24c2.82-1.05,5.51-1.61,7.68-2.98
		c2.69-1.71,4.71-1.55,7.23,0.26c3.38,2.43,7.02,1.43,10.81,0.47c-0.95-3.22-1.89-5.74-4.77-6.66c-2.95-0.94-5.98-1.62-8.97-2.45
		c-2.66-0.74-5.3-1.52-7.95-2.28C658.3,288.75,658.18,288.52,658.06,288.3z M1164.64,773.79c0.62-0.45,1.6-0.78,1.8-1.38
		c1.65-5.01,1.71-10.05-0.17-15.03c-0.17-0.44-0.52-0.82-0.9-1.4c-1.38,0.89-2.43,1.56-3.24,2.09c0,1.88,0.3,3.42-0.06,4.78
		c-0.69,2.63-0.27,4.77,1.4,6.95c0.8,1.05,0.84,2.68,1.23,4.05C1164.7,773.85,1164.64,773.79,1164.64,773.79z M135.88,323.24
		c-2.44,0.63-4.11,1.06-5.77,1.49c-0.08,4.03-0.75,7.59,0.55,11.23c1.44,0,2.73,0,4.57,0C135.45,331.69,135.65,327.72,135.88,323.24
		z M1592.1,570.3c1.4,0.59,2.7,1.15,4.38,1.86c1.18-1.67,2.26-3.19,3.59-5.06c-4.33-1.81-8.22-1.22-12.04-0.79
		c-1.49,0.17-2.06,1.65-1.5,3.09c0.45,1.17,1.23,2.22,2.23,3.96C1590.27,571.97,1591.19,571.13,1592.1,570.3z M626.73,287.33
		c-0.1,4.15,1.08,8.29-2.73,11.44c1.21,1.23,2.12,2.16,3.2,3.25c1.16-3.22,2.1-5.85,3.15-8.78c1.33,0.9,2.39,1.6,3.44,2.31
		C633.81,290.81,631.08,288.71,626.73,287.33z"/>
</g>
</svg>
